<?xml version="1.0" encoding="utf-8"?>
<!-- Generator: Adobe Illustrator 24.2.3, SVG Export Plug-In . SVG Version: 6.00 Build 0)  -->
<svg version="1.1" id="LOGO" xmlns="http://www.w3.org/2000/svg" xmlns:xlink="http://www.w3.org/1999/xlink" x="0px" y="0px"
	 viewBox="0 0 1140 282" style="enable-background:new 0 0 1140 282;" xml:space="preserve">
<style type="text/css">
	.st0{fill:#FFFFFF;}
</style>
<g>
	<path class="st0" d="M340,62.4c-5.4,2.4-10.1,5.7-14.1,9.9s-7.1,9.2-9.4,15s-3.4,12.1-3.4,18.8c0,6.9,1.2,13.2,3.6,19.1
		c2.4,5.9,5.7,10.9,9.9,15.1c4.2,4.3,9.2,7.6,15,10s12.1,3.6,18.8,3.6c4.2,0,7.8-0.2,11-0.7s6.1-1.1,8.7-1.8
		c2.6-0.8,5.1-1.6,7.4-2.7c2.3-1,4.6-2.1,6.8-3.3l3.2,7.6c-5.2,2.8-10.6,5-16.4,6.5s-12.7,2.3-20.8,2.3c-7.9,0-15.2-1.4-22-4.2
		s-12.6-6.7-17.6-11.7c-4.9-5-8.8-10.9-11.6-17.8c-2.8-6.9-4.2-14.3-4.2-22.3s1.4-15.4,4.1-22.1s6.5-12.5,11.2-17.4
		s10.3-8.7,16.6-11.4s13.2-4.1,20.4-4.1c5.5,0,10.3,0.6,14.6,1.7c4.3,1.2,8.1,2.7,11.4,4.6c3.3,1.9,6.3,4.2,8.8,6.7s4.8,5.2,6.7,7.9
		l-6.8,4.7c-1.7-2.3-3.6-4.6-5.8-6.8s-4.6-4.1-7.3-5.7c-2.7-1.6-5.9-2.9-9.4-3.9s-7.6-1.4-12.2-1.4C351.1,58.8,345.3,60,340,62.4z"
		/>
	<path class="st0" d="M469.7,151.4c-2.3,2.4-4.8,4.3-7.4,5.9c-2.7,1.5-5.4,2.6-8.2,3.3c-2.8,0.7-5.5,1.1-8.1,1.1
		c-5.5,0-10.4-0.9-14.7-2.8c-4.4-1.9-8.1-4.5-11.1-7.9s-5.4-7.4-7-12.2c-1.6-4.7-2.4-9.9-2.4-15.6c0-5.9,1-11.3,2.9-16.3
		c1.9-5,4.6-9.2,8-12.8c3.4-3.5,7.5-6.3,12.2-8.4s10-3,15.7-3c4.9,0,9.3,0.5,13.4,1.4s8.3,2.4,12.8,4.2v-4.1h7.4v52.3
		c0,4.2,0.6,7.7,1.7,10.7c1.2,3,3.4,5.3,6.6,7.1l-4.7,6.4c-3.7-1.7-6.4-4.3-8.1-7.6c-1.6-3.3-2.6-6.8-3-10.5
		C473.9,146.1,472,149.1,469.7,151.4z M463.8,91.8c-4.2-1.1-8.8-1.7-13.8-1.7c-4.9,0-9.2,0.8-13.1,2.4s-7.2,3.9-10,6.8
		s-4.8,6.4-6.3,10.5s-2.2,8.5-2.2,13.4c0,4.6,0.7,8.8,2,12.6s3.2,7.1,5.6,9.9c2.4,2.7,5.4,4.9,8.8,6.4s7.3,2.3,11.6,2.3
		c4.6,0,8.7-0.9,12.4-2.7c3.7-1.8,6.8-4.2,9.3-7.2s4.5-6.6,5.8-10.6s1.9-8.2,1.7-12.5V96C471.9,94.3,468,92.9,463.8,91.8z"/>
	<path class="st0" d="M521.9,96c4.6-7.9,12.3-11.9,23.3-11.9h3l1.4,7.4h-2.9c-3.6,0-6.8,0.3-9.4,0.9c-2.6,0.6-4.9,1.4-6.8,2.5
		c-1.9,1.1-3.5,2.3-4.9,3.6c-1.3,1.4-2.5,2.9-3.6,4.5v57.1h-7.4v-76h7.4L521.9,96L521.9,96z"/>
	<path class="st0" d="M581,158.6c-4.9-2.1-9-4.9-12.3-8.5s-5.9-7.8-7.6-12.5s-2.6-9.8-2.6-15.2c0-5.7,0.9-10.9,2.7-15.7
		c1.8-4.8,4.3-9,7.5-12.5s7-6.3,11.3-8.3c4.4-2,9.1-3,14.1-3s9.5,1,13.7,3s7.7,4.7,10.7,8.3c3,3.5,5.3,7.9,7,12.9s2.5,10.7,2.5,17
		v0.8h-61.7c0.6,9,3.6,16.2,9,21.5s12.8,8,22.3,8c5.2,0,9.9-0.6,14.2-1.7c4.3-1.1,8.1-2.6,11.3-4.4l2.4,7.1
		c-3.7,1.9-7.8,3.5-12.2,4.6c-4.4,1.2-9.6,1.7-15.8,1.7C591.5,161.7,585.9,160.7,581,158.6z M584.1,92.1c-3.2,1.2-6.1,3-8.6,5.3
		s-4.6,5.2-6.2,8.7c-1.6,3.4-2.6,7.4-2.9,11.9h53.3c-0.8-8.9-3.5-15.8-8-20.5c-4.5-4.8-10.4-7.1-17.6-7.1
		C590.7,90.3,587.3,90.9,584.1,92.1z"/>
	<path class="st0" d="M670.9,71.9c-2.7,2-4,4.7-4,8.1c0,4.1,1.9,7.2,5.6,9.4c3.7,2.2,8.8,4.5,15.2,6.8c4.4,1.6,8.3,3.3,11.9,5.2
		c3.6,1.8,6.7,4,9.3,6.5s4.7,5.4,6.2,8.8s2.2,7.5,2.2,12.2c0,5.2-0.9,9.8-2.7,13.8c-1.8,4.1-4.4,7.5-7.8,10.3
		c-3.3,2.8-7.4,5-12.2,6.5s-10,2.2-15.8,2.2c-7,0-13.6-1-19.8-2.9s-11.7-4.6-16.6-7.9l9.1-17c4.1,3,8.5,5.4,13.4,7.1
		c4.9,1.7,9.8,2.5,14.9,2.5c11,0,16.6-4.3,16.6-12.9c0-2.2-0.4-4.1-1.3-5.7c-0.9-1.6-2.2-3-3.9-4.3s-3.9-2.5-6.6-3.6
		c-2.7-1.1-5.8-2.3-9.3-3.6c-4.3-1.6-8.2-3.3-11.8-5.2s-6.7-4-9.3-6.4s-4.6-5.3-6.1-8.5s-2.2-7.1-2.2-11.6c0-4.9,0.9-9.2,2.6-13
		s4.2-7,7.3-9.7s6.8-4.7,11.1-6.2c4.3-1.4,8.9-2.1,14-2.1c9,0,16.4,1.7,22.3,5.2c5.8,3.5,9.9,7.7,12.2,12.7l-16.3,9.9
		c-1.6-2.6-3.8-4.9-6.7-6.8c-2.8-1.9-6.7-2.9-11.6-2.9C677,69,673.6,70,670.9,71.9z"/>
	<path class="st0" d="M756.4,158.9c-5.2-2-9.6-4.7-13.2-8.3c-3.6-3.5-6.5-7.8-8.4-12.6c-2-4.9-3-10.2-3-16c0-6.2,1-11.8,2.9-16.7
		c1.9-5,4.6-9.2,8-12.6s7.4-6.1,12.1-8c4.7-1.9,9.7-2.8,15-2.8c5.2,0,10,0.9,14.4,2.8c4.5,1.9,8.3,4.6,11.6,8.1s5.9,8,7.7,13.2
		c1.8,5.3,2.7,11.3,2.7,18.2v2.9H751c0.8,6.1,3.2,10.7,7.2,13.8c4,3.1,9.6,4.7,16.6,4.7c4.6,0,8.8-0.4,12.8-1.3s7.6-2.1,10.9-3.6
		l4.1,15c-3.6,1.7-7.7,3.1-12.2,4.3c-4.5,1.1-10.1,1.7-16.8,1.7C767.4,161.8,761.6,160.9,756.4,158.9z M757.9,101.2
		c-3.3,3-5.4,7.2-6.5,12.5H787c-0.6-5.5-2.6-9.7-5.9-12.6s-7.1-4.4-11.3-4.4C765.1,96.6,761.2,98.2,757.9,101.2z"/>
	<path class="st0" d="M870.1,158.1c-4.9,2.5-10.2,3.7-15.9,3.7c-5.2,0-9.9-0.9-14.3-2.7c-4.4-1.8-8.1-4.4-11.3-7.8
		c-3.2-3.4-5.7-7.5-7.4-12.3c-1.8-4.8-2.7-10.3-2.7-16.3c0-6.1,1-11.6,3-16.6s4.7-9.3,8.3-12.8c3.5-3.5,7.8-6.3,12.6-8.3
		c4.9-2,10.2-3,16-3c4.3,0,8.4,0.6,12.3,1.7c4,1.1,7.5,2.6,10.6,4.6l0.6-4.7h17v47.7c0,2.9,0.5,5.6,1.5,8.1s3.1,4.4,6.2,5.8
		l-8.5,16.4c-4.1-1-7.4-2.8-10.2-5.3c-2.7-2.5-4.8-5.6-6.2-9.1C878.8,151.9,875,155.6,870.1,158.1z M871.2,100.4
		C868,99.5,864.6,99,861,99c-7.3,0-12.9,2.2-16.9,6.5c-4,4.4-6,10-6,17c0,6.7,1.9,12,5.6,16c3.7,4,8.7,5.9,14.7,5.9
		c3.2,0,6.2-0.6,8.9-1.9s5-3,6.9-5.2s3.4-4.8,4.4-7.8c1-3,1.5-6.2,1.4-9.5v-16.4C877.4,102.5,874.4,101.4,871.2,100.4z"/>
	<path class="st0" d="M941.3,96c2.4-4.8,5.6-8.1,9.5-10.1s8.2-3,12.8-3h2.7l2.7,17h-2.6c-6.5,0-11.7,1.2-15.7,3.6s-7.2,5.1-9.5,8.1
		v48.6h-18.7V83.4h18.7L941.3,96L941.3,96z"/>
	<path class="st0" d="M1007.5,100.6c-2.5,1-4.7,2.5-6.5,4.5c-1.9,2-3.3,4.4-4.4,7.2c-1.1,2.8-1.6,6-1.6,9.6c0,6.7,2.1,12.1,6.3,16.2
		c4.2,4.1,9.9,6.2,17.1,6.2c4.6,0,8.6-0.6,12.2-1.7c3.5-1.2,7.1-2.7,10.6-4.6l4.9,16.4c-3.5,2.2-7.7,4.1-12.5,5.5
		s-10.3,2.1-16.5,2.1c-6.4,0-12.1-1-17.3-2.9c-5.1-1.9-9.5-4.7-13.1-8.2s-6.5-7.8-8.4-12.7c-2-4.9-3-10.4-3-16.5
		c0-5.9,0.9-11.2,2.8-16.1c1.9-4.9,4.6-9,8.1-12.5s7.7-6.2,12.5-8.1c4.9-1.9,10.3-2.9,16.3-2.9c6.4,0,12.4,1.4,17.9,4.1
		c5.6,2.7,10.1,6.5,13.7,11.2l-12.3,12.2c-1.8-2.8-4.3-5.3-7.5-7.3c-3.2-2-6.9-3-11.2-3C1012.6,99.1,1009.9,99.6,1007.5,100.6z"/>
	<path class="st0" d="M1063.5,46h18.8v47c2.9-3.2,6.5-5.9,10.7-8.1s9.2-3.2,15-3.2c9.3,0,16.4,2.8,21.2,8.5c4.8,5.7,7.2,13.7,7.2,24
		v46.1h-19V117c0-12.1-5.1-18.1-15.4-18.1c-3.9,0-7.5,0.9-10.9,2.8s-6.4,4.3-8.8,7.2v51.4h-18.8L1063.5,46L1063.5,46z"/>
	<path class="st0" d="M334.2,192.9v36.9h-4.8v-16.7h-18.8v16.7h-4.8v-36.9h4.8v16.2h18.8v-16.2H334.2z"/>
	<path class="st0" d="M356.1,227.8c-2.8-1.6-5.1-3.8-6.7-6.7s-2.5-6.1-2.5-9.7c0-3.6,0.8-6.8,2.5-9.7c1.6-2.9,3.9-5.1,6.7-6.7
		c2.8-1.6,5.9-2.4,9.4-2.4s6.6,0.8,9.4,2.4c2.8,1.6,5,3.8,6.7,6.7c1.6,2.9,2.4,6.1,2.4,9.7c0,3.6-0.8,6.9-2.4,9.7
		c-1.6,2.9-3.8,5.1-6.7,6.7c-2.8,1.6-6,2.4-9.4,2.4S359,229.4,356.1,227.8z M372.5,224.2c2.1-1.2,3.7-2.9,4.9-5.1
		c1.2-2.2,1.8-4.8,1.8-7.7c0-3-0.6-5.5-1.8-7.8c-1.2-2.2-2.8-3.9-4.8-5.1c-2-1.2-4.4-1.8-7-1.8s-4.9,0.6-7,1.8
		c-2,1.2-3.7,2.9-4.8,5.1s-1.8,4.8-1.8,7.8c0,2.9,0.6,5.5,1.8,7.7c1.2,2.2,2.8,3.9,4.9,5.1c2.1,1.2,4.4,1.8,7,1.8
		C368.1,226,370.4,225.4,372.5,224.2z"/>
	<path class="st0" d="M434.1,193.2v36.6h-4.8v-27.3l-12.2,27.3h-3.4l-12.2-27.3v27.3h-4.8v-36.6h5.2l13.5,30.3l13.5-30.3
		L434.1,193.2L434.1,193.2z"/>
	<path class="st0" d="M453.4,196.8v12.3h13.4v4h-13.4v12.7h15v4h-19.8v-36.9h19.8v4L453.4,196.8L453.4,196.8z"/>
	<path class="st0" d="M531,192.9v36.9h-4.8v-16.7h-18.8v16.7h-4.8v-36.9h4.8v16.2h18.8v-16.2H531z"/>
	<path class="st0" d="M550.3,196.8v12.3h13.4v4h-13.4v12.7h15v4h-19.8v-36.9h19.8v4L550.3,196.8L550.3,196.8z"/>
	<path class="st0" d="M583.8,225.9h12.9v3.9H579v-36.9h4.8V225.9z"/>
	<path class="st0" d="M629.7,211.4c-2.1,2-5.3,3-9.6,3H613v15.4h-4.8v-36.9h11.9c4.2,0,7.3,1,9.5,3s3.3,4.6,3.3,7.8
		C632.8,206.8,631.8,209.3,629.7,211.4z M626,208.7c1.3-1.2,1.9-2.8,1.9-5c0-4.5-2.6-6.8-7.8-6.8H613v13.5h7.1
		C622.8,210.4,624.8,209.9,626,208.7z"/>
	<path class="st0" d="M670.8,228.9c-1.9-0.9-3.4-2.1-4.5-3.6s-1.7-3.3-1.7-5.3h5.1c0.2,1.7,0.9,3.2,2.1,4.4c1.3,1.2,3.1,1.8,5.5,1.8
		c2.3,0,4.1-0.6,5.4-1.7c1.3-1.1,2-2.6,2-4.4c0-1.4-0.4-2.6-1.2-3.4c-0.8-0.9-1.7-1.6-2.9-2c-1.2-0.5-2.7-1-4.7-1.5
		c-2.4-0.6-4.4-1.3-5.8-1.9c-1.5-0.6-2.7-1.6-3.8-3c-1-1.4-1.6-3.2-1.6-5.5c0-2,0.5-3.8,1.5-5.3c1-1.6,2.5-2.8,4.3-3.6
		c1.9-0.8,4-1.3,6.4-1.3c3.5,0,6.3,0.9,8.5,2.6c2.2,1.7,3.4,4,3.7,6.9h-5.3c-0.2-1.4-0.9-2.7-2.2-3.7c-1.3-1.1-3-1.6-5.2-1.6
		c-2,0-3.6,0.5-4.9,1.6c-1.3,1-1.9,2.5-1.9,4.4c0,1.3,0.4,2.4,1.1,3.3c0.8,0.8,1.7,1.5,2.8,1.9s2.7,0.9,4.7,1.5
		c2.4,0.7,4.4,1.3,5.9,2s2.8,1.7,3.8,3c1.1,1.4,1.6,3.2,1.6,5.5c0,1.8-0.5,3.5-1.4,5.1s-2.4,2.9-4.2,3.9c-1.9,1-4.1,1.5-6.6,1.5
		C674.9,230.2,672.7,229.7,670.8,228.9z"/>
	<path class="st0" d="M707.9,196.8v12.3h13.4v4h-13.4v12.7h15v4H703v-36.9h19.8v4L707.9,196.8L707.9,196.8z"/>
	<path class="st0" d="M755.9,229.8l-8.8-15.1h-5.8v15.1h-4.8v-36.9h11.9c2.8,0,5.1,0.5,7.1,1.4c1.9,1,3.4,2.2,4.3,3.9
		c1,1.6,1.4,3.5,1.4,5.6c0,2.5-0.7,4.8-2.2,6.7s-3.7,3.2-6.6,3.9l9.3,15.4L755.9,229.8L755.9,229.8z M741.3,210.9h7.1
		c2.6,0,4.6-0.6,5.9-1.9c1.3-1.3,2-3,2-5.2s-0.6-3.9-1.9-5.1c-1.3-1.2-3.3-1.8-5.9-1.8h-7.1L741.3,210.9L741.3,210.9z"/>
	<path class="st0" d="M805.5,192.9l-13.9,36.9H786l-13.9-36.9h5.1l11.6,31.8l11.6-31.8H805.5z"/>
	<path class="st0" d="M822,192.9v36.9h-4.8v-36.9H822z"/>
	<path class="st0" d="M837.1,201.6c1.6-2.9,3.8-5.1,6.6-6.7c2.8-1.6,5.9-2.4,9.3-2.4c4,0,7.5,1,10.5,2.9s5.2,4.7,6.6,8.3h-5.8
		c-1-2.2-2.5-3.9-4.4-5.1c-1.9-1.2-4.2-1.8-6.9-1.8c-2.6,0-4.9,0.6-6.9,1.8s-3.7,2.9-4.8,5.1s-1.7,4.8-1.7,7.8
		c0,2.9,0.6,5.5,1.7,7.7c1.2,2.2,2.8,3.9,4.8,5.1c2,1.2,4.4,1.8,6.9,1.8c2.7,0,5-0.6,6.9-1.8s3.4-2.9,4.4-5.1h5.8
		c-1.4,3.5-3.6,6.3-6.6,8.2s-6.5,2.9-10.5,2.9c-3.4,0-6.5-0.8-9.3-2.4c-2.8-1.6-5-3.8-6.6-6.7s-2.4-6.1-2.4-9.7
		C834.7,207.7,835.5,204.5,837.1,201.6z"/>
	<path class="st0" d="M888.5,196.8v12.3h13.4v4h-13.4v12.7h15v4h-19.8v-36.9h19.8v4L888.5,196.8L888.5,196.8z"/>
</g>
<g>
	
		<ellipse transform="matrix(0.1602 -0.9871 0.9871 0.1602 100.566 296.9655)" class="st0" cx="224.8" cy="89.4" rx="21.4" ry="21.4"/>
	<g>
		<g>
			<path class="st0" d="M227.1,154.2c-0.6,0-1.3,0-2,0.1c-0.3,0-0.5,0.3-0.5,0.6c0.1,0.7,0.2,1.4,0.2,2.1
				c0,36.7-31.4,74.2-79.9,99.7c-3.8,2-10.6,4.8-22.8,5.5c-2.1,0.1-4,0.2-5.8,0.2c-6.1,0-12.5-0.6-18.7-1.6l0,0
				c-0.5,0-0.7,0.7-0.2,0.9c13.2,8.1,30.3,16.7,46.6,16.7c41.2,0,90.2-50.6,105.4-86.1c0.2-0.5,0.4-0.9,0.6-1.4l0,0
				c0.8-2.5,1.8-6.7,1.8-12.5C251.8,155.4,231.2,154.2,227.1,154.2z"/>
			<path class="st0" d="M259,191.2c3.6-7.9,9.2-23.1,9.2-39.5c0-16.5-25.7-34.6-43.5-34.6c-33.9,0-50,17.5-67.2,18.2
				c-0.4,0-0.7,0.5-0.4,0.8c0,0,0,0,0.1,0.1c12.5,13.2,22.9,17.1,25.4,17.9c0.2,0.1,0.4,0.2,0.6,0.3c1.9,0.6,3.9,0.9,5.7,0.9
				c2.4,0,4.6-0.5,6.7-1.8c0.5-0.3,8.9-3.2,17.8-5.3c1.4-0.3,2.7-0.6,4.1-0.9c1.4-0.3,2.9-0.5,4.3-0.7c1.9-0.3,3.8-0.4,5.4-0.4
				c7.2,0,15.7,2.1,22.2,7.5c3.1,2.6,5.8,6,7.7,10.2c1.7,4,2.8,8.7,2.8,14.4c0,5.5-0.8,9.8-1.6,12.9C258,192.1,258.6,192,259,191.2z
				"/>
			<path class="st0" d="M135.5,249.8c-20.3-3.7-47.1-23.5-62.8-40.5c-19.8-21.4-32.7-47-32.7-69.1c0-13.6,10.6-27.3,21.7-34.6
				c0.4-0.2,0.3-0.8-0.1-0.9c-7.8-2.6-16.9-4.1-27.7-4.1c-10.9,0-18.6,4.4-23.6,13.4c-3.7,6.6-4.5,13.6-4.7,14.9c0,0,0,0,0,0.1
				c0.2,44.7,32.5,84.7,62.4,111.3c7.2,6.4,18.7,10.5,30.6,12.6h0.1c6.7,1,12.9,1.5,18.5,1.5c1.3,0,2.5,0,3.7-0.1
				c0.3,0,0.6,0,0.9-0.1c0.2,0,0.4,0,0.6,0c5-0.4,9.6-1.2,13.2-2.4C136.6,251.4,136.5,250,135.5,249.8z"/>
			<path class="st0" d="M122.5,254.1c-0.2,0-0.4,0-0.6,0C122.1,254.1,122.3,254.1,122.5,254.1z"/>
			<path class="st0" d="M98.9,252.8L98.9,252.8c5.8,1,11.8,1.5,17.5,1.5c1.6,0,3.1,0,4.6-0.1c-1.2,0-2.4,0.1-3.7,0.1
				C111.8,254.3,105.5,253.8,98.9,252.8z"/>
			<path class="st0" d="M180.2,161.8l-0.1-0.1c-3.5-1.1-15.2-5.7-28.7-20c-4.6-4.9-9.4-10.8-14.2-18.2C118.9,95.4,103.4,71,66.4,71
				C46,71,28.8,79.9,16.6,91.6c-6.2,6-11.1,12.7-14.3,19.3c-1.2,2.4-0.7,2.5,0.6,0.1c2.8-5.4,7.1-10.9,13.7-14.4
				c4.1-2.2,9.1-3.7,15.2-4c0.7,0,1.4-0.1,2.1-0.1c15.8,0,28.5,3,38.9,7.9c11.8,5.6,20.7,13.5,28.3,22.4c0.9,1.1,1.8,2.2,2.7,3.3
				c0.4,0.5,0.9,1.1,1.3,1.7c13.4,17.6,20.9,41.4,46.1,41.4c15.6,0,25.8-4.9,28.9-6.6C180.5,162.4,180.5,162,180.2,161.8z"/>
		</g>
		<circle class="st0" cx="68.7" cy="32.4" r="30.6"/>
	</g>
</g>
</svg>
