<?xml version="1.0" encoding="utf-8"?>
<!-- Generator: Adobe Illustrator 24.2.3, SVG Export Plug-In . SVG Version: 6.00 Build 0)  -->
<svg version="1.1" id="Capa_1" xmlns="http://www.w3.org/2000/svg" xmlns:xlink="http://www.w3.org/1999/xlink" x="0px" y="0px"
	 viewBox="0 0 238.1 201.3" style="enable-background:new 0 0 238.1 201.3;" xml:space="preserve">
<style type="text/css">
	.st0{fill:#89AFDD;}
	.st1{fill:#1D1D1B;}
	.st2{fill:#F9C18D;}
	.st3{fill:#F7CC7F;}
	.st4{fill:#F1906A;}
	.st5{fill:#EE745A;}
	.st6{fill:#BA7D64;}
	.st7{fill:#E2975C;}
	.st8{fill:#95CCAF;}
	.st9{fill:#79C199;}
	.st10{fill:none;stroke:#1D1D1B;stroke-width:2;stroke-linecap:round;stroke-linejoin:round;stroke-miterlimit:10;}
	.st11{fill:#FFFFFF;}
	.st12{fill:#3690BB;}
	.st13{fill:#3C8F7C;}
	.st14{fill:none;}
	.st15{fill:#34A9DF;}
	.st16{fill:#1993B5;}
</style>
<g>
	<g>
		<g>
			<path class="st0" d="M293.2,996.3c-0.6,0-1-0.4-1-1v-56.8c0-0.6,0.4-1,1-1h3.9c0.6,0,1,0.4,1,1v56.8c0,0.6-0.4,1-1,1H293.2z"/>
			<path class="st1" d="M297.1,938.5v56.8h-3.9v-56.8H297.1 M297.1,936.5h-3.9c-1.1,0-2,0.9-2,2v56.8c0,1.1,0.9,2,2,2h3.9
				c1.1,0,2-0.9,2-2v-56.8C299.1,937.4,298.2,936.5,297.1,936.5L297.1,936.5z"/>
		</g>
		<g>
			<g>
				<path class="st2" d="M353.1,1001.6c-0.4,0-0.8-0.3-0.9-0.7c-0.3-0.9-1.6-5.4-1-7.2c0.2-0.4,0.3-0.9,0.4-1.3
					c0.4-2.3-0.1-9-0.3-11.5c0-0.3,0.1-0.6,0.3-0.8c0.2-0.2,0.4-0.2,0.7-0.2c0.1,0,0.1,0,0.2,0l7.1,1.6c0.4,0.1,0.8,0.5,0.8,0.9
					c0.1,3.6,0.7,7.9,1.5,8.7c1,1.1,2,1.9,2.8,2.3l0.4,0.3c0.4,0.2,1.2,0.7,1.4,0.8c4.8,2.1,6.2,2.9,7.8,4c0.7,0.5,1.8,1.3,1.5,2.3
					c-0.1,0.4-0.5,0.9-1.5,0.9L353.1,1001.6z"/>
				<path class="st1" d="M352.2,980.8l7.1,1.6c0,0,0.2,7.8,1.8,9.4c0.9,1,2,1.9,3.1,2.5c0.4,0.2,1.6,0.9,1.9,1.1
					c4.9,2.2,6.1,2.9,7.7,3.9c0.9,0.6,1.7,1.3,0.6,1.3c0,0,0,0,0,0l-21.1-0.1c0,0-1.6-5-1-6.6c0.2-0.5,0.4-1,0.4-1.4
					C353.1,989.7,352.2,980.8,352.2,980.8 M352.2,978.8c-0.5,0-1,0.2-1.3,0.5c-0.5,0.4-0.7,1.1-0.7,1.7c0.3,3.3,0.7,9.3,0.3,11.2
					c-0.1,0.3-0.3,0.9-0.4,1.1c-0.7,2,0.4,6.2,1,7.8c0.3,0.8,1,1.4,1.9,1.4l21.1,0.1c1.9,0,2.4-1.2,2.5-1.6c0.5-1.7-1.1-2.9-1.9-3.4
					c-1.7-1.2-3.1-1.9-8-4.1c-0.2-0.1-0.9-0.5-1.3-0.7l-0.4-0.3c-0.7-0.4-1.6-1.2-2.6-2.2c-0.5-0.7-1.1-4.5-1.2-8.1
					c0-0.9-0.7-1.7-1.6-1.9l-7.1-1.6C352.5,978.8,352.4,978.8,352.2,978.8L352.2,978.8z"/>
			</g>
			<g>
				<path class="st3" d="M371.6,1002.9c-7.2,0-11.4-0.3-14.8-0.5c-2.1-0.1-3.8-0.3-5.7-0.3c-0.4,0-0.7-0.2-0.9-0.5
					c-0.9-1.3,1-7.9,1-7.9c0.1-0.3,0.3-0.5,0.5-0.6c0.1-0.1,0.3-0.1,0.4-0.1c0.1,0,0.2,0,0.3,0.1c1.2,0.5,3.3,1,5.9,1
					c1.8,0,3.6-0.2,5.5-0.7c0.1,0,0.2,0,0.2,0c0.2,0,0.3,0,0.5,0.1c0.1,0,0.9,0.4,1.7,0.7c7.2,2.8,9.9,4.1,10.6,4.8
					c0.6,0.7,0.7,2.2,0.3,3c-0.2,0.5-0.7,0.8-1.2,0.8C374.5,1002.9,373,1002.9,371.6,1002.9L371.6,1002.9z"/>
				<path class="st1" d="M352.1,994c1.4,0.5,3.6,1.1,6.3,1.1c1.7,0,3.6-0.2,5.8-0.8c0.4,0.2,11.1,4.2,12.1,5.3
					c0.4,0.4,0.4,2.2-0.1,2.2c-1.6,0-3.1,0-4.5,0c-11.7,0-15.7-0.8-20.5-0.8C350.4,1001.1,351.5,995.6,352.1,994 M352.1,992
					c-0.3,0-0.6,0.1-0.8,0.2c-0.5,0.2-0.9,0.6-1,1.1c0,0.1-2.2,7-0.9,8.9c0.4,0.6,1,0.9,1.7,0.9c1.8,0,3.5,0.1,5.6,0.3
					c3.4,0.2,7.7,0.5,14.9,0.5c1.4,0,3,0,4.5,0c0.9,0,1.7-0.6,2.1-1.4c0.4-1,0.5-3-0.5-4.1c-0.7-0.8-2.5-1.8-11-5.1
					c-0.7-0.3-1.5-0.6-1.7-0.7c-0.3-0.1-0.6-0.2-0.9-0.2c-0.2,0-0.3,0-0.5,0.1c-1.8,0.5-3.6,0.7-5.3,0.7c-2.5,0-4.4-0.5-5.6-0.9
					C352.6,992,352.3,992,352.1,992L352.1,992z"/>
			</g>
			<g>
				<path class="st2" d="M385.5,984.7c-0.3,0-0.5-0.1-0.7-0.3c-0.6-0.7-3.8-4.2-4-6.2c-0.1-0.5-0.1-1-0.2-1.3
					c-0.6-2.2-4-8.2-5.3-10.3c-0.2-0.3-0.2-0.6-0.1-0.9c0.1-0.3,0.4-0.5,0.7-0.6l7.1-1.4c0.1,0,0.1,0,0.2,0c0.4,0,0.7,0.2,0.9,0.5
					c1.7,3.2,4.1,7,5.2,7.4c1.4,0.6,2.6,0.9,3.6,1l0.5,0.1c0.5,0.1,1.4,0.2,1.6,0.2c5.3,0,6.9,0.2,8.8,0.5c1.1,0.2,2.2,0.5,2.3,1.5
					c0,0.4-0.1,1-1,1.4l-19.3,8.3C385.8,984.7,385.7,984.7,385.5,984.7z"/>
				<path class="st1" d="M383.3,964.7c0,0,3.6,7,5.7,7.9c1.3,0.5,2.6,0.9,3.9,1.1c0.5,0,1.8,0.2,2.2,0.2c5.4,0,6.8,0.2,8.7,0.5
					c1.1,0.2,2.1,0.5,1.1,1l-19.3,8.3c0,0-3.6-3.9-3.8-5.6c-0.1-0.6-0.1-1.1-0.2-1.5c-0.7-2.9-5.4-10.6-5.4-10.6L383.3,964.7
					 M383.3,962.7c-0.1,0-0.3,0-0.4,0l-7.1,1.4c-0.6,0.1-1.2,0.6-1.4,1.1c-0.3,0.6-0.2,1.3,0.1,1.8c1.7,2.9,4.7,8.2,5.2,10.1
					c0.1,0.3,0.1,0.9,0.2,1.2c0.2,2.1,3.1,5.4,4.3,6.7c0.4,0.4,0.9,0.6,1.5,0.6c0.3,0,0.5-0.1,0.8-0.2l19.3-8.3
					c1.7-0.7,1.7-2.1,1.6-2.4c-0.2-1.8-2.2-2.2-3.1-2.3c-2-0.4-3.6-0.5-9-0.6c-0.2,0-1.1-0.1-1.5-0.1l-0.5-0.1
					c-0.9-0.1-2-0.4-3.3-0.9c-0.8-0.4-3-3.7-4.7-6.9C384.7,963.1,384,962.7,383.3,962.7L383.3,962.7z"/>
			</g>
			<g>
				<path class="st3" d="M383.9,986c-2,0-3.1-7.7-3.1-7.8c0-0.3,0.1-0.5,0.2-0.8c0.2-0.2,0.4-0.3,0.7-0.3c2.5-0.1,6.4-1,10.5-4.3
					c0.2-0.1,0.4-0.2,0.6-0.2c0,0,0.1,0,0.1,0c0.3,0,0.9,0,1.8-0.1c1.9-0.1,4.8-0.2,7.2-0.2c3.3,0,4.1,0.2,4.5,0.4
					c0.8,0.4,1.6,1.8,1.6,2.6c0,0.6-0.3,1-0.7,1.2c-9,4.1-14.1,5.9-17.8,7.2c-2,0.7-3.6,1.3-5.3,2C384.2,986,384,986,383.9,986
					L383.9,986z"/>
				<path class="st1" d="M402,973.5c2,0,3.7,0.1,4.1,0.3c0.5,0.2,1.3,1.8,0.8,2c-13.7,6.2-18.2,7.1-23,9.2c0,0,0,0,0,0
					c-0.6,0-1.9-5.2-2.1-6.9c2.5-0.1,6.6-1,11.1-4.5c0,0,0.1,0,0.1,0C393.8,973.7,398.5,973.5,402,973.5 M402,971.5
					c-2.4,0-5.3,0.1-7.2,0.2c-0.9,0-1.5,0.1-1.8,0.1c0,0,0.1,0,0.1,0c-0.1,0-0.1,0-0.2,0c-0.4,0-0.9,0.2-1.2,0.4
					c-4,3.1-7.6,3.9-10,4.1c-0.5,0-1.1,0.3-1.4,0.7c-0.4,0.4-0.5,1-0.5,1.5c0.1,1,0.5,2.8,1,4.4c0.7,2.5,1.4,4.3,3.1,4.3
					c0.3,0,0.6-0.1,0.8-0.2c1.6-0.7,3.2-1.3,5.2-2c3.7-1.3,8.9-3.2,17.9-7.3c0.8-0.4,1.3-1.2,1.3-2.1c0-1.2-1-3-2.2-3.5
					C406.4,971.7,405.6,971.5,402,971.5L402,971.5z"/>
			</g>
			<g>
				<path class="st4" d="M352.2,987.8c-0.4,0-0.8-0.2-0.9-0.6c-0.7-1.5-15.8-36.4-11.3-57.4c0,0-48.3,0.7-48.4,0.7
					c-0.1,0-0.2,0-0.3-0.1c-0.4-0.1-9.5-3.6-13.3-12.7c-2.6-6.3-2-13.7,1.8-21.9c0.2-0.4,0.5-0.6,0.9-0.6c0,0,0.1,0,0.1,0l29.7,3.9
					c0.5,0.1,0.9,0.5,0.9,1v3.7l44,8.9c0.3,0.1,0.6,0.3,0.7,0.7l11.1,31.9c0.1,0.4,0,0.9-0.3,1.1c-0.2,0.1-0.4,0.2-0.6,0.2
					c-0.2,0-0.4-0.1-0.5-0.2l-4.6-3l1.4,43.3c0,0.3-0.1,0.5-0.3,0.7c-0.2,0.2-0.4,0.3-0.7,0.3C361.6,987.7,352.2,987.8,352.2,987.8z
					"/>
				<path class="st1" d="M280.7,896.2l29.7,3.9v4.6l44.8,9l11.1,31.9l-6.2-4l1.4,45.2l-9.4,0.1c0,0-16.3-37.3-11-58l-49.6,0.7
					C291.6,929.5,269.1,921.2,280.7,896.2 M280.7,894.2c-0.8,0-1.5,0.4-1.8,1.2c-3.9,8.5-4.6,16.2-1.9,22.7
					c3.9,9.5,13.5,13.2,13.9,13.3c0.2,0.1,0.5,0.1,0.7,0.1c0,0,0,0,0,0l47.1-0.7c-1.5,8.8-0.2,20.6,4,35.3
					c3.4,11.9,7.4,21.1,7.6,21.5c0.3,0.7,1,1.2,1.8,1.2c0,0,0,0,0,0l9.4-0.1c0.5,0,1.1-0.2,1.4-0.6c0.4-0.4,0.6-0.9,0.6-1.5
					l-1.3-41.4l3,1.9c0.3,0.2,0.7,0.3,1.1,0.3c0.4,0,0.9-0.1,1.2-0.4c0.7-0.5,0.9-1.4,0.7-2.2L357.1,913c-0.2-0.7-0.8-1.2-1.5-1.3
					l-43.2-8.7v-2.9c0-1-0.7-1.9-1.7-2l-29.7-3.9C280.9,894.2,280.8,894.2,280.7,894.2L280.7,894.2z"/>
			</g>
			<g>
				<path class="st5" d="M375.5,973.1c-0.3,0-0.7-0.2-0.9-0.5c-0.8-1.3-19.5-32.4-20.7-34.8c-5.7-12.2-10.5-20.7-12.2-21.7
					c-2.5-1.5-23.7-8.1-31.6-10.5c-0.5-0.1-0.8-0.6-0.7-1.1c0.1-0.5,0.5-0.8,1-0.8c0,0,0,0,0,0c7.8,0,47,0.4,50.4,2.9
					c3.4,2.5,22.6,51.5,26.4,61.3c0.1,0.3,0.1,0.5,0,0.8c-0.1,0.2-0.3,0.4-0.6,0.5l-10.8,3.9C375.7,973,375.6,973.1,375.5,973.1z"/>
				<path class="st1" d="M310.4,904.6c0,0,46.5,0.3,49.8,2.7c3.3,2.4,26.1,60.8,26.1,60.8l-10.8,3.9c0,0-19.5-32.3-20.6-34.7
					c-1.1-2.4-9.5-20.3-12.6-22.1C339,913.4,310.4,904.6,310.4,904.6 M310.4,902.6c-1,0-1.8,0.7-2,1.7c-0.1,1,0.4,1.9,1.4,2.2
					c11,3.4,29.2,9.1,31.4,10.4c1.3,0.8,5.6,7.8,11.8,21.3c1.2,2.5,18.7,31.6,20.7,34.9c0.4,0.6,1,1,1.7,1c0.2,0,0.5,0,0.7-0.1
					l10.8-3.9c0.5-0.2,0.9-0.6,1.1-1.1s0.2-1.1,0-1.6c-0.1-0.1-5.8-14.8-11.8-29.5c-12.4-30.3-14.1-31.5-14.9-32.2
					c-0.9-0.7-2.6-1.9-27.3-2.7C322.2,902.7,310.5,902.6,310.4,902.6C310.4,902.6,310.4,902.6,310.4,902.6L310.4,902.6z"/>
			</g>
		</g>
		<g>
			<path class="st0" d="M291.9,999.4c-1.9,0-3.5-1.6-3.5-3.5s1.6-3.5,3.5-3.5h4.7c1.9,0,3.5,1.6,3.5,3.5s-1.6,3.5-3.5,3.5H291.9z"/>
			<path class="st1" d="M296.7,993.3c1.4,0,2.5,1.1,2.5,2.5c0,1.4-1.1,2.5-2.5,2.5h-4.7c-1.4,0-2.5-1.1-2.5-2.5
				c0-1.4,1.1-2.5,2.5-2.5H296.7 M296.7,991.3h-4.7c-2.5,0-4.5,2-4.5,4.5c0,2.5,2,4.5,4.5,4.5h4.7c2.5,0,4.5-2,4.5-4.5
				C301.2,993.4,299.2,991.3,296.7,991.3L296.7,991.3z"/>
		</g>
		<g>
			<path class="st0" d="M271.9,1001.7c-0.9,0-1.6-0.7-1.6-1.6c0-2.3,1.9-4.2,4.2-4.2h38.6c2.3,0,4.2,1.9,4.2,4.2
				c0,0.9-0.7,1.6-1.6,1.6H271.9z"/>
			<path class="st1" d="M313.2,996.9c1.8,0,3.2,1.4,3.2,3.2c0,0.3-0.3,0.6-0.6,0.6h-43.9c-0.3,0-0.6-0.3-0.6-0.6
				c0-1.8,1.4-3.2,3.2-3.2H313.2 M313.2,994.9h-38.6c-2.9,0-5.2,2.3-5.2,5.2c0,1.4,1.1,2.6,2.6,2.6h43.9c1.4,0,2.6-1.1,2.6-2.6
				C318.4,997.2,316,994.9,313.2,994.9L313.2,994.9z"/>
		</g>
		<g>
			<path class="st6" d="M285.6,873.8c-5.4,0-11.4-2.4-15.9-6.3c-5.5-4.8-9.1-12.6-9.2-19.9c-0.1-5.6,1.9-10.4,5.7-13.9
				c1.6-1.4,3.3-2.6,5-3.8c1.1-0.8,2.3-1.6,3.4-2.5c3.2-2.5,5.4-6.6,7.7-10.9c4-7.3,8.2-14.9,17.5-14.9c5.2,0,10.1,2.9,12.1,6.9
				c2.2,4.5,3.1,9.5,2.9,15.2c-0.3,7.4-2.6,14.5-4.5,19.9c-0.5,1.3-0.9,2.5-1.3,3.8c-1.7,4.8-3.4,9.7-5.7,14.2
				c-2.4,4.5-5.7,8-9.3,10C291.3,873.2,288.5,873.8,285.6,873.8C285.6,873.8,285.6,873.8,285.6,873.8z"/>
			<path class="st1" d="M299.7,802.7C299.7,802.7,299.7,802.7,299.7,802.7c4.4,0,9.2,2.3,11.2,6.4c2.3,4.7,3,9.7,2.8,14.8
				c-0.3,6.7-2.2,13.3-4.4,19.6c-2.1,5.9-4,12.3-7,17.9c-2.1,3.9-5.1,7.5-8.9,9.6c-2.4,1.3-5.1,1.9-7.7,1.9
				c-5.5,0-11.2-2.5-15.3-6.1c-8.7-7.6-13-23.6-3.5-32.3c2.6-2.3,5.6-4.1,8.3-6.3C284,821.1,285.8,802.7,299.7,802.7 M299.7,800.7
				c-9.9,0-14.4,8.2-18.4,15.4c-2.3,4.2-4.5,8.2-7.5,10.6c-1.1,0.9-2.2,1.6-3.4,2.5c-1.7,1.2-3.5,2.4-5.1,3.9c-4,3.7-6.1,8.7-6,14.6
				c0.1,7.6,3.8,15.7,9.6,20.6c4.7,4.1,10.9,6.6,16.6,6.6c3.2,0,6.1-0.7,8.7-2.2c3.8-2.1,7.2-5.7,9.7-10.4c2.4-4.5,4.1-9.5,5.8-14.3
				c0.4-1.3,0.9-2.6,1.3-3.8c2-5.4,4.2-12.7,4.5-20.2c0.2-5.8-0.8-11.1-3-15.7C310.2,803,304.4,800.7,299.7,800.7
				C299.7,800.7,299.7,800.7,299.7,800.7L299.7,800.7z"/>
		</g>
		<g>
			<path class="st7" d="M360.6,883l-9.5-0.8l-27.8-0.1c-1.4,0-2.7-0.6-3.6-1.6l-20.1-22.2c-0.4-0.4-0.3-1,0-1.4
				c1.3-1.2,2.3-2.8,3.3-4.5c1.1-1.7,2.1-3.4,3.6-4.8c0.2-0.2,0.4-0.3,0.7-0.3c0,0,0.1,0,0.1,0c0.3,0,0.6,0.2,0.7,0.4
				c7.3,10.3,13.3,18.3,14.4,19.8l29.8,8.3l8.3-0.9c0,0,0.1,0,0.1,0c0.2,0,0.5,0.1,0.7,0.3c0.2,0.2,0.3,0.5,0.3,0.7v6.1
				c0,0.3-0.1,0.5-0.3,0.7C361.2,882.9,360.9,883,360.6,883C360.7,883,360.6,883,360.6,883z"/>
			<path class="st1" d="M307.2,848.3c8.2,11.5,14.6,20.1,14.6,20.1l30.4,8.5l8.5-1v6.1l-9.5-0.8l-27.9-0.1c-1.1,0-2.1-0.5-2.8-1.3
				l-20.1-22.2C303,855,304.5,850.9,307.2,848.3 M307.2,846.3c-0.5,0-1,0.2-1.4,0.6c-1.5,1.5-2.6,3.3-3.7,5c-1,1.6-2,3.2-3.2,4.4
				c-0.8,0.8-0.8,2-0.1,2.8l20.1,22.2c1.1,1.2,2.7,1.9,4.3,1.9l27.8,0.1l9.5,0.8c0.1,0,0.1,0,0.2,0c0.5,0,1-0.2,1.4-0.5
				c0.4-0.4,0.6-0.9,0.6-1.5v-6.1c0-0.6-0.2-1.1-0.7-1.5c-0.4-0.3-0.8-0.5-1.3-0.5c-0.1,0-0.1,0-0.2,0l-8.1,0.9l-29.3-8.2
				c-1.5-2.1-7.2-9.8-14.2-19.5c-0.3-0.5-0.9-0.8-1.5-0.8C307.3,846.3,307.3,846.3,307.2,846.3L307.2,846.3z"/>
		</g>
		<g>
			<path class="st8" d="M308.5,871.4c-0.3,0-0.5-0.1-0.7-0.3c-0.4-0.4-10.5-10.8-13.3-15.5c-0.8-1.4-1.2-2.5-0.7-3.3
				c0.5-0.9,1.6-0.9,2-0.9c0.4,0,0.8,0,1.4,0.1c0.6,0,1.3,0.1,2,0.1c0.9,0,1.6-0.1,2.3-0.3c0.3-0.4,0.6-1.9,0.8-2.9
				c0.5-2.6,1.1-5.2,3-5.2c0.6,0,1.2,0.3,1.9,1c5.4,5.4,12,14.7,12.3,15.1c0.3,0.4,0.2,0.9-0.1,1.3l-10.1,10.6
				C309,871.3,308.7,871.4,308.5,871.4C308.5,871.4,308.5,871.4,308.5,871.4z"/>
			<path class="st1" d="M305.2,844.2c0.3,0,0.7,0.2,1.2,0.7c5.4,5.4,12.2,15,12.2,15l-10.1,10.6c0,0-10.4-10.7-13.1-15.3
				c-1.3-2.3-0.9-2.7,0.4-2.7c0.8,0,2,0.2,3.4,0.2c0.9,0,1.8-0.1,2.7-0.3C303.3,851.8,303.2,844.2,305.2,844.2 M305.2,842.2
				C305.2,842.2,305.2,842.2,305.2,842.2c-2.7,0-3.4,3.2-4,6c-0.1,0.7-0.3,1.7-0.5,2.2c-0.5,0.1-1,0.1-1.6,0.1
				c-0.7,0-1.3-0.1-1.9-0.1c-0.5,0-1-0.1-1.4-0.1c-1.4,0-2.3,0.5-2.8,1.4c-0.8,1.4-0.1,2.9,0.7,4.3c2.8,4.8,13,15.3,13.4,15.7
				c0.4,0.4,0.9,0.6,1.4,0.6c0,0,0,0,0,0c0.5,0,1.1-0.2,1.4-0.6l10.1-10.6c0.7-0.7,0.7-1.8,0.2-2.5c-0.3-0.4-7-9.7-12.4-15.2
				C307,842.6,306.1,842.2,305.2,842.2L305.2,842.2z"/>
		</g>
		<g>
			<path class="st9" d="M295.4,905.1c-8.6,0-17.5-1.5-17.5-1.6c-0.3,0-0.5-0.2-0.7-0.4s-0.2-0.5-0.2-0.8c0-0.1,2.9-14.8,2.9-19.9
				c0-1.3-0.4-4.5-0.8-8.5c-1.8-16.3-3-30.1,0.2-32.8c1.9-1.6,4.9-2.4,8.9-2.4c3,0,5.5,0.5,5.6,0.5c3.6,1,12.1,3.3,13.4,5.1
				c1.4,1.9,5.5,17.5,5.7,21.4c0.2,3.8-1,32.7-1.1,33.9c0,0.2-0.1,0.3-0.1,0.5C309.9,903.4,304.4,905.1,295.4,905.1L295.4,905.1z"/>
			<path class="st1" d="M288.3,839.7c2.9,0,5.4,0.5,5.4,0.5s11.6,3,12.7,4.7c1.2,1.7,5.4,17.1,5.6,20.9c0.2,3.8-1.1,33.8-1.1,33.8
				c-2,3.5-8.7,4.5-15.5,4.5c-8.6,0-17.4-1.5-17.4-1.5s2.9-14.8,2.9-20.1c0-5.3-5.2-37-0.9-40.5
				C282.1,840.1,285.5,839.7,288.3,839.7 M288.3,837.7c-4.2,0-7.4,0.9-9.5,2.7c-3.4,2.8-2.8,13.5-0.6,33.7c0.4,3.8,0.8,7.1,0.8,8.4
				c0,5-2.9,19.6-2.9,19.7c-0.1,0.5,0,1.1,0.3,1.5c0.3,0.4,0.8,0.7,1.3,0.8c0.4,0.1,9.1,1.6,17.7,1.6c9.5,0,15.1-1.8,17.2-5.5
				c0.2-0.3,0.2-0.6,0.3-0.9c0.1-1.2,1.3-30.2,1.1-34c-0.2-3.7-4.3-19.7-5.9-21.9c-1.1-1.5-5.7-3.3-13.9-5.5c0,0-0.1,0-0.1,0
				C293.9,838.2,291.4,837.7,288.3,837.7L288.3,837.7z"/>
		</g>
		<g>
			<path class="st2" d="M299.6,849c-3.8,0-7.5-3.2-9.2-6.2c-0.7-1.2-1.8-3.4-0.9-4.9c1-1.9,2.6-9,3.1-11.7l0.1-0.7
				c0.1-0.5,0.5-0.8,1-0.8c0,0,8.5-0.2,8.5-0.2c0.3,0,0.6,0.1,0.8,0.4c0.2,0.2,0.3,0.5,0.2,0.8l-2.8,14.2c0.1,0.3,0.3,1.1,0.5,1.8
				c1,3.2,1.6,5.3,0.9,6.5c-0.2,0.4-0.6,0.6-1,0.7C300.3,849,300,849,299.6,849C299.6,849,299.6,849,299.6,849z"/>
			<path class="st1" d="M302.1,825.5c0,0-0.5,2.5-1.1,5.6c-0.2,1.1-0.4,2.2-0.7,3.4c-0.4,2-0.8,4-1.1,5.4c-0.1,0.7,3,7.8,1.3,8.1
				c-0.3,0.1-0.6,0.1-1,0.1c-5.4,0-10.5-7.3-9.3-9.6c1.1-2.1,2.7-9.7,3.2-11.9c0.1-0.5,0.1-0.8,0.1-0.8L302.1,825.5 M302.1,823.5
				C302.1,823.5,302.1,823.5,302.1,823.5l-8.6,0.2c-1,0-1.8,0.7-1.9,1.7c0,0,0,0.3-0.1,0.7c-0.6,3-2.1,9.8-3,11.4
				c-0.8,1.5-0.5,3.6,0.9,5.9c2,3.3,5.9,6.7,10.1,6.7c0.4,0,0.9,0,1.3-0.1c0.7-0.1,1.3-0.5,1.7-1.2c0.9-1.5,0.3-3.8-0.8-7.3
				c-0.2-0.5-0.4-1.2-0.5-1.5c0.3-1.4,0.6-3.2,1-5.1l0.7-3.4l1.1-5.6c0.1-0.6,0-1.2-0.4-1.7C303.3,823.8,302.7,823.5,302.1,823.5
				L302.1,823.5z"/>
		</g>
		<path class="st7" d="M292.8,827.1c0.1-0.6,0.1-0.9,0.1-0.9l9.2-0.5c0,0-2,9.3-2.2,10.6c-1.4-0.2-2.8-1-4.2-2.4
			c-1.6-1.5-2.6-3.3-3.2-5.3C292.6,828.1,292.7,827.5,292.8,827.1z"/>
		<g>
			<path class="st2" d="M307.7,823.5c-0.4,0-0.7-0.1-1-0.3c-1.3-0.7-1.5-2.8-0.5-4.8c0.8-1.5,2-2.5,3.2-2.5c0.4,0,0.7,0.1,1,0.3
				c1.3,0.7,1.5,2.8,0.5,4.8C310.1,822.5,308.9,823.5,307.7,823.5z"/>
			<path class="st1" d="M309.4,817c0.2,0,0.3,0,0.5,0.1c0.8,0.5,0.8,2,0.1,3.4c-0.6,1.2-1.5,1.9-2.3,1.9c-0.2,0-0.3,0-0.5-0.1
				c-0.8-0.5-0.8-2-0.1-3.4C307.7,817.7,308.6,817,309.4,817 M309.4,815C309.4,815,309.4,815,309.4,815c-1.6,0-3.1,1.1-4.1,3
				c-1.3,2.5-0.9,5.1,0.9,6.1c0.5,0.3,1,0.4,1.5,0.4c1.6,0,3.1-1.2,4.1-3c1.3-2.5,0.9-5.1-0.9-6.1C310.5,815.1,309.9,815,309.4,815
				L309.4,815z"/>
		</g>
		<g>
			<path class="st2" d="M288.9,822.2c-1.5,0-2.9-1.5-3.2-3.5c-0.4-2.3,0.5-4.3,2.2-4.6c0.2,0,0.3,0,0.5,0c1.5,0,2.9,1.5,3.2,3.5
				c0.4,2.3-0.5,4.3-2.2,4.6C289.2,822.2,289.1,822.2,288.9,822.2z"/>
			<path class="st1" d="M288.3,815c1,0,2,1.1,2.3,2.7c0.3,1.7-0.3,3.2-1.4,3.5c-0.1,0-0.2,0-0.3,0c-1,0-2-1.1-2.3-2.7
				c-0.3-1.7,0.3-3.2,1.4-3.5C288.1,815,288.2,815,288.3,815 M288.3,813c-0.2,0-0.4,0-0.7,0.1c-2.2,0.4-3.5,3-3,5.8
				c0.5,2.5,2.2,4.3,4.2,4.3c0.2,0,0.4,0,0.7-0.1c2.2-0.4,3.5-3,3-5.8C292.1,814.8,290.3,813,288.3,813L288.3,813z"/>
		</g>
		<g>
			<path class="st2" d="M298.8,831c-1.9,0-3.8-0.8-5.6-2.3c-3.8-3.3-4.3-7.8-4.1-11c0.2-3.9,1.7-7.4,3-9.1c2.2-2.9,5.5-3.2,6.8-3.2
				c0.3,0,0.5,0,0.6,0c0.1,0,0.2,0,0.4,0c3,0,5.2,0.9,6.7,2.6c2.6,3,2.4,8,1.7,12.8C307.4,825.8,303.7,831,298.8,831
				C298.8,831,298.8,831,298.8,831z"/>
			<path class="st1" d="M298.8,806.4c0.3,0,0.5,0,0.5,0c0.1,0,0.3,0,0.4,0c8.7,0,8.3,7.8,7.4,14.3c-0.7,4.8-4.1,9.4-8.4,9.4
				c-1.6,0-3.3-0.6-4.9-2.1c-6.2-5.5-3.5-15.5-1-18.7C294.8,806.7,297.6,806.4,298.8,806.4 M298.8,804.4
				C298.8,804.4,298.8,804.4,298.8,804.4c-1.4,0-5.1,0.3-7.6,3.6c-3.3,4.2-5.7,15.3,1.3,21.5c2,1.7,4.1,2.6,6.3,2.6
				c5.5,0,9.6-5.6,10.4-11.1c0.7-5.1,1-10.3-1.9-13.6c-1.7-1.9-4.2-2.9-7.5-2.9c-0.1,0-0.2,0-0.3,0
				C299.3,804.4,299.1,804.4,298.8,804.4L298.8,804.4z"/>
		</g>
		<path class="st6" d="M301,804.3c0,0-6.5,11.6-11.1,12.1c-4.6,0.5-5.3,6.7-5.3,6.7s-3.2-9.1,6.3-16.9
			C295,802.8,301,804.3,301,804.3z"/>
		<path class="st10" d="M301.2,804.4c0,0-6.4,11.3-10.9,11.9c-4.6,0.5-5.2,6.5-5.2,6.5"/>
		<g>
			<path class="st2" d="M343.8,882l-9.5-0.8l-27.8-0.1c-1.4,0-2.7-0.6-3.6-1.6l-20.1-22.2c-0.4-0.4-0.3-1,0-1.4
				c1.3-1.2,2.3-2.8,3.3-4.5c1.1-1.7,2.1-3.4,3.6-4.8c0.2-0.2,0.4-0.3,0.7-0.3c0,0,0,0,0,0c0.3,0,0.5,0.1,0.7,0.3
				c8.3,9.5,17,20.6,18.5,22.5l25.8,5.7l8.3-0.9c0,0,0.1,0,0.1,0c0.2,0,0.5,0.1,0.7,0.3c0.2,0.2,0.3,0.5,0.3,0.7v6.1
				c0,0.3-0.1,0.5-0.3,0.7C344.4,881.9,344.1,882,343.8,882C343.9,882,343.8,882,343.8,882z"/>
			<path class="st1" d="M290.4,847.2c9.1,10.5,18.7,22.8,18.7,22.8l26.3,5.8l8.5-1v6.1l-9.5-0.8l-27.9-0.1c-1.1,0-2.1-0.5-2.8-1.3
				l-20.1-22.2C286.2,854,287.7,849.9,290.4,847.2 M290.4,845.2c-0.5,0-1,0.2-1.4,0.6c-1.5,1.5-2.6,3.3-3.7,5c-1,1.6-2,3.2-3.2,4.4
				c-0.8,0.8-0.8,2-0.1,2.8l20.1,22.2c1.1,1.2,2.7,1.9,4.3,1.9l27.8,0.1l9.5,0.8c0.1,0,0.1,0,0.2,0c0.5,0,1-0.2,1.4-0.5
				c0.4-0.4,0.6-0.9,0.6-1.5v-6.1c0-0.6-0.2-1.1-0.7-1.5c-0.4-0.3-0.8-0.5-1.3-0.5c-0.1,0-0.1,0-0.2,0l-8.2,0.9l-25.3-5.6
				c-2-2.5-10.3-13.1-18.3-22.3C291.5,845.5,291,845.3,290.4,845.2C290.4,845.2,290.4,845.2,290.4,845.2L290.4,845.2z"/>
		</g>
		<g>
			<path class="st8" d="M291.7,870.4c-0.3,0-0.5-0.1-0.7-0.3c-0.4-0.4-10.5-10.8-13.3-15.5c-1.6-2.9-1.8-6.9-0.4-10.3
				c1.1-2.5,2.8-4.2,4.9-4.8c0.2-0.1,0.5-0.1,0.7-0.1c5.3,0,17.3,15.7,19.7,18.9c0.3,0.4,0.3,0.9-0.1,1.3l-10.1,10.6
				C292.2,870.3,291.9,870.4,291.7,870.4C291.7,870.4,291.7,870.4,291.7,870.4z"/>
			<path class="st1" d="M282.9,840.3c5,0,18.9,18.5,18.9,18.5l-10.1,10.6c0,0-10.4-10.7-13.1-15.3c-2.7-4.6-0.7-12.4,3.9-13.6
				C282.6,840.4,282.8,840.3,282.9,840.3 M282.9,838.3C282.9,838.3,282.9,838.3,282.9,838.3c-0.3,0-0.7,0-1,0.1
				c-2.4,0.6-4.4,2.6-5.6,5.4c-1.5,3.7-1.4,8.1,0.4,11.2c2.8,4.8,13,15.3,13.4,15.7c0.4,0.4,0.9,0.6,1.4,0.6c0,0,0,0,0,0
				c0.5,0,1.1-0.2,1.4-0.6l10.1-10.6c0.7-0.7,0.7-1.8,0.2-2.6c-0.1-0.2-3.6-4.7-7.7-9.4C288,839.5,284.8,838.3,282.9,838.3
				L282.9,838.3z"/>
		</g>
		<g>
			<g>
				<path class="st0" d="M306.1,883.6c-1.2,0-2.2-1-2.2-2.2c0-1.2,1-2.2,2.2-2.2h23.3l13.1-32c0.6-1.4,2-2.4,3.5-2.4h43.4
					c1.3,0,2.5,0.7,3.2,1.8c0.7,1.1,0.8,2.5,0.3,3.6l-13.5,30c-0.9,2.1-3,3.4-5.3,3.4H306.1z"/>
				<path class="st1" d="M389.5,845.9c2.1,0,3.4,2.1,2.6,4l-13.5,30c-0.8,1.7-2.5,2.8-4.3,2.8h-68.1c-0.7,0-1.2-0.5-1.2-1.2
					c0-0.7,0.5-1.2,1.2-1.2h23.9l13.4-32.6c0.4-1.1,1.5-1.8,2.6-1.8H389.5 M389.5,843.9h-43.4c-2,0-3.7,1.2-4.5,3l-12.9,31.4h-22.6
					c-1.8,0-3.2,1.4-3.2,3.2s1.4,3.2,3.2,3.2h68.1c2.7,0,5.1-1.6,6.2-4l13.5-30c0.7-1.5,0.5-3.2-0.4-4.6
					C392.6,844.7,391.1,843.9,389.5,843.9L389.5,843.9z"/>
			</g>
			<g>
				<path class="st11" d="M363.7,868.1c-0.2,0-0.4,0-0.6-0.1c-0.9-0.2-1.7-0.7-2.2-1.6c-0.5-0.8-0.6-1.8-0.4-2.7
					c0.4-1.8,1.8-3,3.4-3c0.2,0,0.4,0,0.6,0.1c0.9,0.2,1.7,0.7,2.2,1.6c0.5,0.8,0.6,1.8,0.4,2.7
					C366.7,866.8,365.3,868.1,363.7,868.1z"/>
				<path class="st1" d="M363.9,861.7c0.1,0,0.3,0,0.4,0c1.3,0.3,2.1,1.7,1.8,3.1c-0.3,1.3-1.3,2.2-2.4,2.2c-0.1,0-0.3,0-0.4,0
					c-1.3-0.3-2.1-1.7-1.8-3.1C361.7,862.6,362.8,861.7,363.9,861.7 M363.9,859.7C363.9,859.7,363.9,859.7,363.9,859.7
					c-2.1,0-4,1.6-4.4,3.8c-0.2,1.2,0,2.4,0.5,3.4c0.6,1.1,1.7,1.8,2.8,2.1c0.3,0.1,0.5,0.1,0.8,0.1c2.1,0,4-1.6,4.4-3.8
					c0.2-1.2,0-2.4-0.5-3.4c-0.6-1.1-1.7-1.8-2.8-2.1C364.4,859.7,364.2,859.7,363.9,859.7L363.9,859.7z"/>
			</g>
		</g>
		<g>
			<path class="st12" d="M320.1,933c-0.5,0-0.9-0.3-1-0.8l-2.7-11.1c-1.8-7.3-8.2-12.6-15.7-12.9l-33.7-1.4c-0.4,0-0.8-0.3-0.9-0.7
				l-1-3.4c-0.1-0.3,0-0.6,0.2-0.9c0.2-0.2,0.5-0.4,0.8-0.4c0,0,34.9,1.4,34.9,1.4c9.9,0.4,18.4,7.4,20.7,17l2.8,11.8
				c0.1,0.3,0,0.6-0.2,0.8c-0.2,0.2-0.5,0.4-0.8,0.4C322.7,932.9,321.5,932.9,320.1,933C320.2,933,320.1,933,320.1,933z"/>
			<path class="st1" d="M266.1,902.4l34.8,1.4c9.5,0.4,17.6,7.1,19.8,16.3l2.8,11.8c-1,0-2.1,0.1-3.5,0.1l-2.7-11.1
				c-1.9-7.7-8.7-13.4-16.7-13.7l-33.6-1.4L266.1,902.4 M266.1,900.4c-0.6,0-1.2,0.3-1.6,0.8c-0.4,0.5-0.5,1.2-0.3,1.8l1,3.4
				c0.2,0.8,1,1.4,1.8,1.4l33.6,1.4c7.1,0.3,13.1,5.3,14.8,12.2l2.7,11.1c0.2,0.9,1,1.5,1.9,1.5c0,0,0,0,0,0c1.4,0,2.6-0.1,3.5-0.1
				c0.6,0,1.2-0.3,1.5-0.8c0.4-0.5,0.5-1.1,0.3-1.7l-2.8-11.8c-2.4-10.1-11.3-17.4-21.7-17.8L266.1,900.4
				C266.2,900.4,266.2,900.4,266.1,900.4L266.1,900.4z"/>
		</g>
		<g>
			<path class="st3" d="M276.9,941.1c-12.1,0-12.5-0.4-13-0.8c-0.4-0.4-1.4-1.3-21.4-70.1c-1.2-4.2,1.2-8.6,5.4-9.8
				c0.7-0.2,1.5-0.3,2.2-0.3c3.5,0,6.6,2.3,7.6,5.6l18,59.5c3.8,0.1,21.6,0.3,34.9,0.3h0c10.9,0,14.3-0.2,15.2-0.3
				c0.3-0.1,0.7-0.1,1-0.1c1.9,0,3.6,1,4.8,2.7c1.4,2.1,1.7,5.1,0.8,7.2c-1.9,4.2-7.5,5-12.1,5.3
				C316.7,940.4,292.2,941.1,276.9,941.1z"/>
			<path class="st1" d="M250.1,861c3,0,5.7,1.9,6.6,4.9l18.2,60.2c0,0,20.5,0.4,35.7,0.4c7.6,0,13.8-0.1,15.4-0.4
				c0.3,0,0.6-0.1,0.8-0.1c4.2,0,6,5.5,4.6,8.5c-1.4,3.2-5.4,4.4-11.2,4.7c-4,0.2-28.3,0.9-43.4,0.9c-6.9,0-11.8-0.1-12.3-0.5
				c-1.1-1.1-15.8-51.3-21.2-69.7c-1.1-3.7,1-7.5,4.7-8.6C248.8,861.1,249.5,861,250.1,861 M250.1,859
				C250.1,859,250.1,859,250.1,859c-0.9,0-1.7,0.1-2.5,0.4c-4.7,1.4-7.4,6.3-6.1,11.1c20.1,69.1,21.1,70,21.7,70.6
				c0.7,0.7,1.2,1.1,13.6,1.1c15.4,0,39.8-0.7,43.5-0.9c4.9-0.2,10.8-1.1,12.9-5.8c1.1-2.4,0.7-5.7-0.8-8.1
				c-1.3-2.1-3.3-3.2-5.6-3.2c-0.4,0-0.8,0-1.2,0.1c-0.7,0.1-3.7,0.3-15.1,0.3c-12.6,0-29.2-0.2-34.2-0.3l-17.8-58.8
				C257.5,861.5,254.1,859,250.1,859L250.1,859z"/>
		</g>
		<g>
			<g>
				<path class="st12" d="M343.9,1002.7c-0.5,0-0.9-0.4-1-0.9L331.7,890c0-0.3,0.1-0.6,0.3-0.8c0.2-0.2,0.5-0.3,0.7-0.3h5.2
					c0.5,0,0.9,0.4,1,0.9l11.2,111.7c0,0.3-0.1,0.6-0.3,0.8c-0.2,0.2-0.5,0.3-0.7,0.3H343.9z"/>
				<path class="st1" d="M337.9,889.9l11.2,111.7h-5.2l-11.2-111.7H337.9 M337.9,887.9h-5.2c-0.6,0-1.1,0.2-1.5,0.7
					c-0.4,0.4-0.6,1-0.5,1.5l11.2,111.7c0.1,1,1,1.8,2,1.8h5.2c0.6,0,1.1-0.2,1.5-0.7c0.4-0.4,0.6-1,0.5-1.5l-11.2-111.7
					C339.8,888.7,338.9,887.9,337.9,887.9L337.9,887.9z"/>
			</g>
			<g>
				<path class="st12" d="M294.7,1002.7c-0.3,0-0.6-0.1-0.7-0.3c-0.2-0.2-0.3-0.5-0.3-0.8l11.2-111.7c0.1-0.5,0.5-0.9,1-0.9h5.2
					c0.3,0,0.6,0.1,0.7,0.3c0.2,0.2,0.3,0.5,0.3,0.8l-11.2,111.7c-0.1,0.5-0.5,0.9-1,0.9H294.7z"/>
				<path class="st1" d="M311,889.9l-11.2,111.7h-5.2l11.2-111.7H311 M311,887.9h-5.2c-1,0-1.9,0.8-2,1.8l-11.2,111.7
					c-0.1,0.6,0.1,1.1,0.5,1.5c0.4,0.4,0.9,0.7,1.5,0.7h5.2c1,0,1.9-0.8,2-1.8L313,890.1c0.1-0.6-0.1-1.1-0.5-1.5
					C312.1,888.2,311.6,887.9,311,887.9L311,887.9z"/>
			</g>
			<g>
				<path class="st12" d="M464.7,1002.7c-0.5,0-0.9-0.4-1-0.9L452.6,890c0-0.3,0.1-0.6,0.3-0.8c0.2-0.2,0.5-0.3,0.7-0.3h5.2
					c0.5,0,0.9,0.4,1,0.9l11.2,111.7c0,0.3-0.1,0.6-0.3,0.8c-0.2,0.2-0.5,0.3-0.7,0.3H464.7z"/>
				<path class="st1" d="M458.8,889.9l11.2,111.7h-5.2l-11.2-111.7H458.8 M458.8,887.9h-5.2c-0.6,0-1.1,0.2-1.5,0.7
					c-0.4,0.4-0.6,1-0.5,1.5l11.2,111.7c0.1,1,1,1.8,2,1.8h5.2c0.6,0,1.1-0.2,1.5-0.7c0.4-0.4,0.6-1,0.5-1.5l-11.2-111.7
					C460.7,888.7,459.8,887.9,458.8,887.9L458.8,887.9z"/>
			</g>
			<g>
				<path class="st12" d="M415.5,1002.7c-0.3,0-0.6-0.1-0.7-0.3c-0.2-0.2-0.3-0.5-0.3-0.8l11.2-111.7c0.1-0.5,0.5-0.9,1-0.9h5.2
					c0.3,0,0.6,0.1,0.7,0.3c0.2,0.2,0.3,0.5,0.3,0.8l-11.2,111.7c-0.1,0.5-0.5,0.9-1,0.9H415.5z"/>
				<path class="st1" d="M431.9,889.9l-11.2,111.7h-5.2l11.2-111.7H431.9 M431.9,887.9h-5.2c-1,0-1.9,0.8-2,1.8l-11.2,111.7
					c-0.1,0.6,0.1,1.1,0.5,1.5c0.4,0.4,0.9,0.7,1.5,0.7h5.2c1,0,1.9-0.8,2-1.8l11.2-111.7c0.1-0.6-0.1-1.1-0.5-1.5
					C433,888.2,432.5,887.9,431.9,887.9L431.9,887.9z"/>
			</g>
			<g>
				<path class="st12" d="M301.3,890.9c-2.6,0-4.6-2.1-4.6-4.6s2.1-4.6,4.6-4.6h165c2.6,0,4.6,2.1,4.6,4.6s-2.1,4.6-4.6,4.6H301.3z"
					/>
				<path class="st1" d="M466.3,882.6c2,0,3.6,1.6,3.6,3.6s-1.6,3.6-3.6,3.6h-165c-2,0-3.6-1.6-3.6-3.6s1.6-3.6,3.6-3.6H466.3
					 M466.3,880.6h-165c-3.1,0-5.6,2.5-5.6,5.6s2.5,5.6,5.6,5.6h165c3.1,0,5.6-2.5,5.6-5.6S469.4,880.6,466.3,880.6L466.3,880.6z"/>
			</g>
		</g>
	</g>
	<g>
		<path class="st13" d="M244.2,1003.7c-1.1,0-2-0.9-2-2s0.9-2,2-2h235c1.1,0,2,0.9,2,2s-0.9,2-2,2H244.2z"/>
		<path class="st1" d="M479.2,1000.6c0.6,0,1,0.5,1,1c0,0.6-0.5,1-1,1h-235c-0.6,0-1-0.5-1-1c0-0.6,0.5-1,1-1H479.2 M479.2,998.6
			h-235c-1.7,0-3,1.4-3,3c0,1.7,1.4,3,3,3h235c1.7,0,3-1.4,3-3C482.2,1000,480.9,998.6,479.2,998.6L479.2,998.6z"/>
	</g>
</g>
<g>
	<g>
		<g>
			<rect x="50.2" y="136.7" class="st0" width="3.9" height="56.8"/>
		</g>
		<g>
			<g>
				<path class="st2" d="M109.3,179c0,0,0.8,8.9,0.3,11.8c-0.1,0.4-0.2,0.9-0.4,1.4c-0.6,1.6,1,6.6,1,6.6l21.1,0.1
					c1.2,0,0.4-0.7-0.6-1.3c-1.5-1-2.8-1.7-7.7-3.9c-0.3-0.1-1.5-0.8-1.9-1.1c-1.1-0.6-2.1-1.6-3.1-2.5c-1.5-1.6-1.8-9.4-1.8-9.4
					L109.3,179z"/>
			</g>
			<g>
				<path class="st3" d="M121.2,192.5c-5.6,1.4-9.7,0.6-12-0.3c-0.6,1.6-1.7,7.1-1,7.1c5.3,0,9.8,1,25,0.7c0.5,0,0.5-1.8,0.1-2.2
					C132.3,196.8,121.6,192.8,121.2,192.5z"/>
			</g>
			<g>
				<path class="st2" d="M133.2,164.3c0,0,4.6,7.7,5.4,10.6c0.1,0.4,0.2,0.9,0.2,1.5c0.2,1.7,3.8,5.6,3.8,5.6l19.3-8.3
					c1-0.5,0-0.8-1.1-1c-1.9-0.3-3.3-0.5-8.7-0.5c-0.4,0-1.7-0.2-2.2-0.2c-1.2-0.1-2.6-0.6-3.9-1.1c-2.1-0.8-5.7-7.9-5.7-7.9
					L133.2,164.3z"/>
			</g>
			<g>
				<path class="st3" d="M149.9,171.9c-4.4,3.5-8.6,4.4-11.1,4.5c0.2,1.7,1.6,7.1,2.2,6.9c4.8-2.1,9.3-3,23-9.2
					c0.5-0.2-0.3-1.8-0.8-2C161.8,171.3,150.4,171.9,149.9,171.9z"/>
			</g>
			<g>
				<path class="st4" d="M67.5,98.3v4.6l44.8,9l11.1,31.9l-6.2-4l1.4,45.2l-9.4,0.1c0,0-16.3-37.3-11-58l-49.6,0.7
					c0,0-22.5-8.3-10.9-33.3L67.5,98.3z"/>
			</g>
			<g>
				<path class="st5" d="M67.5,102.8c0,0,46.5,0.3,49.8,2.7c3.3,2.4,26.1,60.8,26.1,60.8l-10.8,3.9c0,0-19.5-32.3-20.6-34.7
					c-1.1-2.4-9.5-20.3-12.6-22.1S67.5,102.8,67.5,102.8z"/>
			</g>
		</g>
		<g>
			<path class="st0" d="M49,191.6h4.7c1.4,0,2.5,1.1,2.5,2.5l0,0c0,1.4-1.1,2.5-2.5,2.5H49c-1.4,0-2.5-1.1-2.5-2.5l0,0
				C46.5,192.7,47.6,191.6,49,191.6z"/>
		</g>
		<g>
			<path class="st0" d="M31.6,195.1h38.6c1.8,0,3.2,1.4,3.2,3.2l0,0c0,0.3-0.3,0.6-0.6,0.6H29c-0.3,0-0.6-0.3-0.6-0.6l0,0
				C28.4,196.5,29.8,195.1,31.6,195.1z"/>
		</g>
		<g>
			<path class="st6" d="M70.8,22C71,17,70.2,12,68,7.3C66,3.2,61.2,0.9,56.8,0.9c-14,0-15.7,18.4-24.6,25.5
				c-2.7,2.2-5.7,3.9-8.3,6.3c-9.5,8.7-5.2,24.7,3.5,32.3c6,5.3,15.5,8.3,23,4.1c3.9-2.1,6.8-5.7,8.9-9.6c3-5.6,4.9-12,7-17.9
				C68.6,35.3,70.5,28.8,70.8,22z"/>
		</g>
		<g>
			<path class="st7" d="M109.3,75.1l-30.4-8.5c0,0-6.4-8.6-14.6-20.1c-2.7,2.7-4.2,6.8-6.9,9.4l20.1,22.2c0.7,0.8,1.8,1.3,2.8,1.3
				l27.9,0.1l9.5,0.8v-6.1L109.3,75.1z"/>
		</g>
		<g>
			<path class="st8" d="M65.5,68.6c0,0-10.4-10.7-13.1-15.3c-2.7-4.6,1.8-1.6,6.4-2.8c1.7-0.5,1.3-10.7,4.6-7.4
				c5.4,5.4,12.2,15,12.2,15L65.5,68.6z"/>
		</g>
		<g>
			<path class="st9" d="M50.7,38.4c0,0-9.4-1.8-13.6,1.7C32.8,43.7,38,75.4,38,80.6c0,5.3-2.9,20.1-2.9,20.1s28.3,5,32.9-2.9
				c0,0,1.3-30.1,1.1-33.8c-0.2-3.8-4.4-19.2-5.6-20.9C62.3,41.4,50.7,38.4,50.7,38.4z"/>
		</g>
		<g>
			<path class="st2" d="M50.7,23.9c0,0,0,0.3-0.1,0.8c-0.4,2.3-2.1,9.9-3.2,11.9c-1.3,2.5,4.6,10.5,10.2,9.6
				c1.7-0.3-1.4-7.4-1.3-8.1c0.3-1.4,0.7-3.4,1.1-5.4c0.2-1.1,0.5-2.3,0.7-3.4c0.6-3.1,1.1-5.6,1.1-5.6L50.7,23.9z"/>
		</g>
		<path class="st7" d="M49.8,25.3c0.1-0.6,0.1-0.9,0.1-0.9l9.2-0.5c0,0-2,9.3-2.2,10.6c-1.4-0.2-2.8-1-4.2-2.4
			c-1.6-1.5-2.6-3.3-3.2-5.3C49.7,26.3,49.8,25.8,49.8,25.3z"/>
		<g>
			<path class="st2" d="M67.1,18.8c-0.7,1.4-2,2.2-2.8,1.8c-0.8-0.5-0.8-2-0.1-3.4c0.7-1.4,2-2.2,2.8-1.8
				C67.8,15.8,67.8,17.3,67.1,18.8z"/>
		</g>
		<g>
			<path class="st2" d="M47.7,15.9c0.3,1.7-0.3,3.2-1.4,3.5c-1.1,0.2-2.2-1-2.5-2.7c-0.3-1.7,0.3-3.2,1.4-3.5
				C46.2,13,47.3,14.2,47.7,15.9z"/>
		</g>
		<g>
			<path class="st2" d="M56.4,4.6c0,0-4-0.5-6.5,2.8c-2.5,3.2-5.2,13.3,1,18.7c6.2,5.5,12.4-0.7,13.3-7.3
				C65.1,12.3,65.5,4.4,56.4,4.6z"/>
		</g>
		<path class="st6" d="M58,2.5c0,0-6.5,11.6-11.1,12.1c-4.6,0.5-5.3,6.7-5.3,6.7s-3.2-9.1,6.3-16.9C52,1,58,2.5,58,2.5z"/>
		<path class="st14" d="M58.3,2.6c0,0-6.4,11.3-10.9,11.9C42.8,15,42.2,21,42.2,21"/>
		<g>
			<path class="st2" d="M92.4,74l-26.3-5.8c0,0-9.5-12.2-18.7-22.8c-2.7,2.7-4.2,6.8-6.9,9.4l20.1,22.2c0.7,0.8,1.8,1.3,2.8,1.3
				l27.9,0.1l9.5,0.8v-6.1L92.4,74z"/>
		</g>
		<g>
			<path class="st8" d="M48.7,67.6c0,0-10.4-10.7-13.1-15.3c-2.7-4.6-0.7-12.4,3.9-13.6C44.1,37.4,58.9,57,58.9,57L48.7,67.6z"/>
		</g>
		<g>
			<g>
				<path class="st0" d="M146.5,44.1h-43.4c-1.1,0-2.2,0.7-2.6,1.8L87.1,78.4H63.2c-0.7,0-1.2,0.5-1.2,1.2l0,0
					c0,0.7,0.5,1.2,1.2,1.2h68.1c1.9,0,3.6-1.1,4.3-2.8l13.5-30C150,46.2,148.6,44.1,146.5,44.1z"/>
			</g>
			<g>
				<path class="st11" d="M123.2,63.1c-0.3,1.5-1.6,2.4-2.9,2.2c-1.3-0.3-2.1-1.7-1.8-3.1c0.3-1.5,1.6-2.4,2.9-2.2
					C122.6,60.2,123.5,61.6,123.2,63.1z"/>
			</g>
		</g>
		<path class="st15" d="M77.2,130.2l-2.7-11.1c-1.9-7.7-8.7-13.4-16.7-13.7l-33.6-1.4l-1-3.4l34.8,1.4c9.5,0.4,17.6,7.1,19.8,16.3
			l2.8,11.8C79.7,130.1,78.5,130.2,77.2,130.2z"/>
		<g>
			<path class="st3" d="M32.1,124.3c0,0,46.2,0.8,51.1,0c4.8-0.8,6.9,5.3,5.5,8.4c-1.4,3.2-5.4,4.4-11.2,4.7
				c-5.8,0.3-54.3,1.7-55.7,0.4c-1.1-1.1-15.8-51.3-21.2-69.7c-1.1-3.7,1-7.5,4.7-8.6l0,0c3.7-1.1,7.5,1,8.6,4.6L32.1,124.3z"/>
		</g>
		<g>
			<polygon class="st16" points="100.9,199.9 106.1,199.9 95,88.1 89.8,88.1 			"/>
			<polygon class="st16" points="56.9,199.9 51.7,199.9 62.9,88.1 68.1,88.1 			"/>
			<polygon class="st16" points="221.8,199.9 227,199.9 215.8,88.1 210.6,88.1 			"/>
			<polygon class="st16" points="177.8,199.9 172.6,199.9 183.8,88.1 188.9,88.1 			"/>
			<path class="st16" d="M58.4,88.1h165c2,0,3.6-1.6,3.6-3.6l0,0c0-2-1.6-3.6-3.6-3.6h-165c-2,0-3.6,1.6-3.6,3.6l0,0
				C54.7,86.5,56.3,88.1,58.4,88.1z"/>
		</g>
	</g>
	<g>
		<path class="st13" d="M236.3,200.9H1.3c-0.6,0-1-0.5-1-1l0,0c0-0.6,0.5-1,1-1h235c0.6,0,1,0.5,1,1l0,0
			C237.3,200.5,236.8,200.9,236.3,200.9z"/>
	</g>
</g>
</svg>
