<?xml version="1.0" encoding="utf-8"?>
<!-- Generator: Adobe Illustrator 24.2.3, SVG Export Plug-In . SVG Version: 6.00 Build 0)  -->
<svg version="1.1" id="Capa_1" xmlns="http://www.w3.org/2000/svg" xmlns:xlink="http://www.w3.org/1999/xlink" x="0px" y="0px"
	 viewBox="0 0 595.3 595.3" style="enable-background:new 0 0 595.3 595.3;" xml:space="preserve">
<style type="text/css">
	.st0{fill:#00A5B5;}
	.st1{fill:#FEFEFE;}
</style>
<circle class="st0" cx="297.8" cy="297.2" r="294.5"/>
<path class="st1" d="M273.9,367.5c0-14.4-0.2-28.7,0.1-43.1c0.1-4.2-1-5.4-5.3-5.4c-28.7,0.2-57.4,0.2-86.1,0.1
	c-13.3-0.1-23.3-9.6-23.6-22.1c-0.3-13.3,9.8-23.5,23.8-23.6c28.4-0.1,56.7-0.2,85.1,0.1c4.9,0,6.3-1.1,6.2-6.1
	c-0.3-28.7-0.2-57.4-0.1-86.1c0-10.2,6.3-18.6,15.5-21.7c9.2-3,19.1-0.1,25.2,7.4c3.8,4.7,5,10.1,5,16c-0.1,28.2,0.1,56.3-0.1,84.5
	c0,4.7,1,6,5.8,6c28.7-0.3,57.4-0.3,86.1-0.1c16.1,0.1,26.9,15.1,21.9,30c-3.2,9.7-11.7,15.6-23.2,15.6c-28.4,0.1-56.7,0.1-85.1-0.1
	c-4.4,0-5.7,1-5.7,5.6c0.2,28.7,0.2,57.4,0.1,86.1c-0.1,16.3-14.8,27-29.8,22.3c-9.3-2.9-15.7-11.2-15.8-21.4
	C273.8,396.9,273.9,382.2,273.9,367.5C273.9,367.5,273.9,367.5,273.9,367.5z"/>
</svg>
