<?xml version="1.0" encoding="utf-8"?>
<!-- Generator: Adobe Illustrator 24.2.3, SVG Export Plug-In . SVG Version: 6.00 Build 0)  -->
<svg version="1.1" id="Capa_1" xmlns="http://www.w3.org/2000/svg" xmlns:xlink="http://www.w3.org/1999/xlink" x="0px" y="0px"
	 viewBox="0 0 82.2 100.6" style="enable-background:new 0 0 82.2 100.6;" xml:space="preserve">
<style type="text/css">
	.st0{fill:#FB4755;}
	.st1{fill:#FC5461;}
	.st2{fill:#F9A415;}
	.st3{fill:#FC636E;}
	.st4{fill:#FC5460;}
	.st5{fill:#F9EF63;}
	.st6{fill:#F9D107;}
	.st7{fill:#F9B41C;}
</style>
<g>
	<path class="st0" d="M63.2,100.1c-0.6-0.6-0.9-1.3-1.3-2C57.2,90,52.6,82,48,73.9c0.2-0.6,0.8-0.5,1.2-0.6
		c5.7-1.3,10.8-3.9,15.3-7.6c0.4-0.3,0.7-0.7,1.1-1.1c0.4-0.4,0.8-0.9,1.5-0.9c0.5,0.9,1.1,1.8,1.6,2.7c0.2,0.6-0.2,0.8-0.5,1.1
		c-2.2,2.1-4.6,3.9-7.2,5.4c-2,1.2-4,2.2-6.2,3c-0.8,0.3-0.7,0.6-0.4,1.2c2.1,3.6,4.1,7.2,6.2,10.8c1.5,2.6,2.9,5.2,4.5,7.8
		c0.2,0.3,0.2,0.6,0.3,0.9c-0.1,0.9-0.5,1.6-0.7,2.5c-0.1,0.5-0.5,0.6-0.8,0.8C63.6,100.1,63.4,100.1,63.2,100.1z"/>
	<path class="st1" d="M20.7,96.9c-0.6,1.1-1.2,2.3-2,3.2c-0.3,0-0.7,0-1,0c-0.9-1.5-1.2-3.2-1.7-4.7c-0.8-2.1-1.4-4.3-2-6.5
		c-0.2-0.5-0.4-0.8-0.9-1.1c0-0.3,0.2-0.4,0.4-0.4c1-0.3,2-0.5,3-0.6c0.6-0.1,1.1,0.2,1.3,0.8c1.1,3,2.1,6,2.9,9.1
		C20.8,96.7,20.7,96.8,20.7,96.9z"/>
	<path class="st2" d="M67.1,63.8c-3.1,2.8-6.3,5.3-10.1,7c-2.8,1.3-5.6,2.3-8.6,2.9c-0.2,0-0.3,0.1-0.4,0.2
		c-1.2,0.1-2.5,0.3-3.7,0.4c-3.4,0.3-6.8,0.1-10.1-0.5c-0.4,0.1-0.8,0.1-1.1,0c-5.7-1.3-10.7-3.7-15.3-7.3c-0.8-0.7-1.6-1.5-2.4-2.1
		c-0.2-0.2-0.3-0.4-0.4-0.6c-2-2.2-3.9-4.5-5.5-7.1C-2,38,5.1,13.5,24.9,3.9c21.6-10.5,47.8,2.4,52.4,26c2.4,12.6-0.9,23.7-9.6,33.2
		C67.5,63.3,67.3,63.5,67.1,63.8z"/>
	<path class="st3" d="M65.3,96.8c-2.2-3.5-4.2-7.2-6.2-10.8c-1.6-2.8-3.3-5.7-4.9-8.5c-0.7-1.2-0.7-1.2,0.6-1.7
		c4.3-1.6,8.2-3.9,11.6-6.9c0.8-0.7,1.8-1.3,2.2-2.3c3.8,6.5,7.5,13,11.3,19.5c-0.5,0.3-0.9,0.1-1.4,0c-1.6-0.4-3.3-0.7-4.9-1.1
		c-1-0.3-2-0.4-2.9-0.6c-0.7-0.2-1.2,0.1-1.4,0.8c-0.3,0.9-0.6,1.8-0.8,2.7c-0.3,0.3-0.5,0.7-0.6,1.2C67,91.6,66.2,94.2,65.3,96.8z"
		/>
	<path class="st3" d="M20.7,96.9c-0.9-2.9-1.8-5.7-2.8-8.6c-0.5-1.5-0.6-1.5-2.2-1.2c-0.9,0.2-1.8,0.2-2.7,0.6c-3,0.6-6,1.3-9,1.9
		c-0.2-0.4,0.1-0.7,0.3-1.1C7,84,9.7,79.5,12.3,74.9c0.8-1.3,1.5-2.6,2.3-4c0.5-0.9,0.6-0.9,1.5-0.3c3.1,2.2,6.3,3.9,9.9,5.2
		c1.5,0.6,3.1,1,4.7,1.4c0.4,0.1,0.8,0.1,1.2,0.4c-3.6,6.3-7.3,12.6-10.9,19C20.9,96.7,20.8,96.8,20.7,96.9z"/>
	<path class="st0" d="M31.8,77.7c-2.8-0.4-5.4-1.3-8-2.4c-2.9-1.2-5.6-2.8-8.2-4.7c-0.4-0.3-0.5-0.2-0.7,0.2
		c-2.2,3.8-4.4,7.6-6.6,11.5c-1.4,2.5-2.9,5-4.3,7.5c-0.8,0.2-1.6,0.4-2.4,0.6c-0.5,0.1-0.8,0-1.1-0.4c-0.3-0.4-0.3-0.8-0.1-1.2
		c0.1-0.1,0.1-0.2,0.2-0.3c4.6-8,9.2-16.1,13.9-24.1c0.1-0.2,0.2-0.3,0.3-0.5c2.7,2.4,5.5,4.7,8.8,6.4c3.3,1.7,6.8,2.9,10.5,3.7
		C33.3,75.1,32.6,76.4,31.8,77.7z"/>
	<path class="st4" d="M73.6,84.7c2.1,0.5,4.3,0.9,6.4,1.4c0.5,0.8,1,1.6,1.4,2.5c0.5,1,0,1.8-1.1,1.6c-1.7-0.3-3.4-0.7-5.1-1
		c-0.5-0.1-1.1-0.2-1.6-0.4C73.1,87.4,73.1,86,73.6,84.7z"/>
	<path class="st4" d="M73.6,84.7c0,1.4,0,2.7,0,4.1c-1.7-0.3-3.3-1-5-0.9c-0.2-0.1-0.2-0.3-0.2-0.5c0.3-0.8,0.5-1.7,0.8-2.5
		c0.2-0.7,0.7-1,1.5-0.8C71.6,84.3,72.6,84.5,73.6,84.7z"/>
	<path class="st5" d="M41,10.7c14.7,0,26.5,11.9,26.5,26.6C67.5,52,55.8,64,41,63.9c-14.8,0-26.5-11.9-26.5-26.7
		C14.4,22.6,26.4,10.7,41,10.7z"/>
	<path class="st6" d="M19.5,46.6c-1.8-3.9-2.3-7.9-1.8-12.1c0.7-5.7,3.2-10.6,7.4-14.5c3.6-3.4,7.9-5.3,12.8-6
		c4.9-0.6,9.6,0.1,13.9,2.5c7,3.9,11.2,9.8,12.3,17.8c0.6,4.1,0.1,8.1-1.6,11.9c-0.2,0.2-0.3,0.5-0.4,0.7c-2,3.1-4.8,5.3-8,7.2
		c-4.6,2.7-9.7,3.8-15.1,3.5c-5.7-0.4-10.8-2.5-15.2-6.1C22.2,50.1,20.7,48.5,19.5,46.6z"/>
	<path class="st2" d="M19.5,46.6c1.1,1.2,2.1,2.4,3.2,3.5c3.9,3.6,8.5,6,13.8,6.9c6.2,1,12,0,17.4-3c3-1.7,5.7-3.8,7.8-6.6
		c0.2-0.2,0.4-0.4,0.5-0.5c0.1,0,0.1,0.1,0.1,0.1c0,0.1,0,0.1,0,0.1c-1.5,3.6-3.9,6.5-7,8.9c-3.2,2.5-6.8,4.1-10.8,4.6
		c-6.8,0.9-13-0.7-18.4-5.1C23.2,53.1,20.9,50.2,19.5,46.6z"/>
	<path class="st7" d="M62.3,47c0-0.1,0-0.2,0-0.2c0-0.3,0.1-0.5,0.4-0.6C62.6,46.6,62.5,46.8,62.3,47z"/>
	<path class="st2" d="M49,49.5c-0.7-0.3-1.6-0.8-2.4-1.2c-1.6-0.8-3.2-1.7-4.8-2.6c-0.5-0.3-1-0.3-1.6,0c-2.2,1.2-4.4,2.3-6.5,3.5
		c-0.5,0.3-1,0.6-1.5,0.1c-0.5-0.4-0.4-0.9-0.3-1.4c0.4-2.4,0.8-4.8,1.3-7.2c0.1-0.6,0-1.1-0.4-1.5c-1.8-1.7-3.3-3.5-5.2-5.1
		c-1-0.8-1.1-1.8-0.3-2.2c0.5-0.2,1-0.2,1.5-0.3c2.2-0.3,4.5-0.7,6.7-1c0.6-0.1,0.9-0.4,1.2-0.9c1.1-2.3,2.3-4.5,3.4-6.8
		c0.2-0.4,0.4-0.9,1-0.9c0.6,0,0.9,0.5,1.1,0.9c1.1,2.2,2.2,4.5,3.3,6.7c0.3,0.5,0.6,0.8,1.2,0.9c2.5,0.3,5,0.8,7.6,1.1
		c0.6,0.1,1,0.3,1.2,0.9c0.2,0.5-0.1,0.9-0.5,1.2c-1.9,1.6-3.5,3.4-5.3,5.1c-0.6,0.6-0.8,1.2-0.7,2.1c0.5,2.4,0.9,4.9,1.3,7.3
		C50.3,49.1,49.9,49.6,49,49.5z"/>
</g>
</svg>
