<?xml version="1.0" encoding="utf-8"?>
<!-- Generator: Adobe Illustrator 24.2.3, SVG Export Plug-In . SVG Version: 6.00 Build 0)  -->
<svg version="1.1" id="Capa_1" xmlns="http://www.w3.org/2000/svg" xmlns:xlink="http://www.w3.org/1999/xlink" x="0px" y="0px"
	 viewBox="0 0 595.3 595.3" style="enable-background:new 0 0 595.3 595.3;" xml:space="preserve">
<style type="text/css">
	.st0{fill:#B20000;}
</style>
<g>
	<path class="st0" d="M590.1,254.8c-5-34.6-16-67.2-32.4-98.1c-17.2-32.5-40.3-60.3-67.9-84.4c-21.9-19.1-46.2-34.5-73-46
		c-19.9-8.5-40.4-15.2-61.7-19.5c-11.4-2.3-23-2.6-34.5-4c-0.8,0-1.5,0-2.3,0s-1.5,0-2.3,0s-1.5,0-2.3,0c-1.1,0-2.3,0-3.4,0
		c-7.3,0-14.6,0-21.8,0c-1.1,0-2.3,0-3.4,0c-1.1,0-2.3,0-3.4,0c-0.8,0-1.5,0-2.3,0s-1.5,0-2.3,0c-1.1,0-2.3,0-3.4,0
		c-0.1,0.2-0.2,0.5-0.3,0.7c-0.7,1-2.1,0.5-3.1,0.6c-40.4,4.1-78.4,15.8-114.1,35.2C40.1,102.1-20.2,239,11.8,366.9
		c37.7,150.8,183.1,245.9,336,219.8c125.1-21.3,222.8-121.8,240.8-247.3c0.9-6.5,0.5-13.2,3.1-19.4c0-2.3,0-4.6,0-6.9
		c0-0.8,0-1.5,0-2.3c0-1.1,0-2.3,0-3.4c0-4.2,0-8.4,0-12.6c0-2.7,0-5.4,0-8c0-0.8,0-1.5,0-2.3c0-1.1,0-2.3,0-3.4c0-0.8,0-1.5,0-2.3
		c0-1.5,0-3.1,0-4.6C590.3,267.7,591,261.2,590.1,254.8z M303,22.7c151.3,2.6,269.9,126.1,269,275.7
		C571,451.3,446.6,574.2,291.6,571.5C142.5,567.8,22.3,446.9,23.1,295C24,142,148.7,20.1,303,22.7z"/>
	<path class="st0" d="M95.7,452.5c4.4,5.9,10,7.1,14.8,3.6c4.9-3.7,5.3-9.2,1-15.1c-0.6-0.8-1.1-1.6-1.7-2.3
		C78.4,396.7,63,349.4,62.3,298.5c0.2-21.7,2.7-41.8,7.9-61.5C101.6,116.5,224.1,40.9,345.7,66.8c35.4,7.5,67.2,22.4,95.9,44.2
		c5.7,4.3,11.6,3.7,15.1-1.2c3.4-4.7,2.2-10.3-3.3-14.4c-65-48.6-137.4-64.8-216.2-45.9C131.5,75,55.1,162.9,44.1,271.1
		C37.2,338.1,55.1,398.7,95.7,452.5z"/>
	<path class="st0" d="M261.8,529.3c-40-5.6-75.8-21.7-107.8-46.1c-6-4.6-12-4.1-15.6,1c-3.4,4.8-2,10.3,3.9,14.7
		c62,46.2,131,62.5,206.9,47.4C466.9,522.9,553,417.1,552.4,290.7c-0.2-34.4-9.3-73.3-28.1-109.9c-7.3-14.3-16-27.8-25.9-40.5
		c-3.7-4.7-9.3-5.6-13.7-2.5c-4.6,3.3-5.4,9-2,14.2c1.2,1.7,2.5,3.4,3.8,5.1c29.5,40,45.3,84.9,46.1,134.4
		c1.1,66-20.9,123.7-67.7,170.5C408.8,518.2,340.5,540.3,261.8,529.3z"/>
	<path class="st0" d="M297.6,91.2c-32.7-0.1-57.7,27.5-55,60.7c4.5,55.1,9,110.2,13.4,165.3c1.6,20.1,17.6,36.6,37.1,38.3
		c21.5,1.8,39.9-11.2,44.8-31.9c2.3-9.9,2.2-20.1,3.1-30.2c3.9-46.9,7.4-93.8,11.4-140.7C355.3,119.3,330.5,91.3,297.6,91.2z
		 M333,149c-1.7,24.4-3.8,48.8-5.8,73.2c-2.5,30.9-5.1,61.7-7.6,92.6c-1,12.6-9.9,21.3-21.8,21.3c-12.2,0.1-21.1-8.6-22.2-21.6
		c-4.5-55.1-8.9-110.1-13.3-165.2c-1.7-21,14.6-38.6,35.5-38.6C318.4,110.8,334.4,128,333,149z"/>
	<path class="st0" d="M297.4,385.4c-27,0.1-48.9,22.1-48.9,48.9c0,26.9,22.1,48.9,49,48.9c27.2,0,49.5-22.3,49.2-49.3
		C346.3,406.9,324.4,385.3,297.4,385.4z M297.5,463.6c-16.1,0-29.2-13-29.4-29.1c-0.2-16.2,13.2-29.6,29.5-29.6
		c16.1,0,29.2,13,29.4,29.1C327.2,450.2,313.8,463.6,297.5,463.6z"/>
</g>
</svg>
