<?xml version="1.0" encoding="utf-8"?>
<!-- Generator: Adobe Illustrator 24.2.3, SVG Export Plug-In . SVG Version: 6.00 Build 0)  -->
<svg version="1.1" fill="#0fdba8" id="Capa_1" xmlns="http://www.w3.org/2000/svg" xmlns:xlink="http://www.w3.org/1999/xlink" x="0px" y="0px"
	 viewBox="0 0 595.3 595.3" style="enable-background:new 0 0 595.3 595.3;" xml:space="preserve">
<g>
	<path d="M424,510.3c-2.9,1.5-5.7,3.1-8.5,4.7c-48.8,26.6-100.8,36.4-155.7,28.1c-67.4-10.1-122-43-162.7-97.7
		c-46.5-62.6-60-132.5-41.8-208c14.3-59.2,47.3-106.6,97-141.6c67.6-47.6,141.5-57.9,220.4-34c23.2,7.1,44.2,18.6,64.6,31.7
		c11.2,7.2,24.9,4,31.8-6.6c7-10.8,3.9-24.5-7.4-32.1c-6-4-12.1-8.1-18.4-11.6c-73.1-41-150.4-51-230.8-27.4
		C133.5,38.9,75,88.3,35.7,160.3C18.1,192.7,7.5,227.4,3.8,264.2c-0.3,0-0.7,0.1-1,0.2c0,1.9,0,3.8,0,5.7c0,18.4,0,36.8,0,55.1
		c0,1.9,0,3.8,0,5.7c0.2,0.1,0.4,0.1,0.6,0.1c0,0,0,0,0,0c0,2.3-0.2,4.6,0.1,6.9c3.5,34.1,14.3,66.1,30.1,96.3
		c18.2,35,42.8,65.1,73.1,90.4c40.2,33.6,86.2,54.9,137.8,64.1c9,1.6,18.2,1.3,27.2,2.9c1.9,0,3.8,0,5.7,0c0.8,0,1.5,0,2.3,0
		c1.9,0,3.8,0,5.7,0c2.3,0,4.6,0,6.9,0c3.8,0,7.7,0,11.5,0c1.1,0,2.3,0,3.4,0c0.8,0,1.5,0,2.3,0c2.3,0,4.6,0,6.9,0
		c0.5-1.6,1.8-1,2.9-1.1c21-1.6,41.6-5.6,61.8-11.7c22.8-6.9,44.3-16.4,64.8-28.5c12.3-7.3,16.5-20.2,10.2-31.7
		C449.9,507.3,436.4,503.7,424,510.3z"/>
	<path d="M285.5,358c-24.4-23.2-48.9-46.4-73.3-69.6c-14.2-13.4-28.4-26.8-42.5-40.3c-6.3-6-13.6-9.3-22.4-7.2
		c-8.7,2.1-14.5,7.4-17,16.1c-2.9,9.8,0.5,17.6,7.5,24.3c39,37,78.1,74,117.1,111c12.2,11.6,26.5,17.8,46.8,17.9
		c15.6-0.7,31-8.5,43-23.5c70.2-87.4,140.5-174.8,210.7-262.1c9.6-11.9,19.3-23.7,28.7-35.8c11.3-14.6,4.6-34.1-12.9-37.6
		c-10.1-2-17.7,2.3-23.9,10.1C468.2,159.7,389.1,258.1,310,356.5C302.1,366.4,294.7,366.8,285.5,358z"/>
	<path d="M580.8,225.1c-1.8-7.3-5.9-12.8-12.8-15.9c-8.4-3.9-16.5-2.9-23.7,2.8c-8.3,6.5-10.2,15.4-7.8,25.3
		c9.6,39.4,9.9,78.7,0.5,118.2c-6.8,28.5-18.9,54.7-34.6,79.4c-7.6,12-4.6,26.2,6.2,32.7c11.8,7.1,24.9,3.6,32.7-8.5
		c30.9-47.8,47.4-100.2,48.6-164.2C590.1,275.8,587,250.3,580.8,225.1z"/>
</g>
</svg>
