<?xml version="1.0" encoding="utf-8"?>
<!-- Generator: Adobe Illustrator 24.2.3, SVG Export Plug-In . SVG Version: 6.00 Build 0)  -->
<svg version="1.1" id="Capa_1" xmlns="http://www.w3.org/2000/svg" xmlns:xlink="http://www.w3.org/1999/xlink" x="0px" y="0px"
	 viewBox="0 0 595.3 595.3" style="enable-background:new 0 0 595.3 595.3;" xml:space="preserve">
<style type="text/css">
	.st0{fill:#DF4F5F;}
	.st1{fill:#FEFEFE;}
</style>
<circle class="st0" cx="297.8" cy="297.2" r="294.5"/>
<path class="st1" d="M435.5,203.9c-1,1.1-2.1,2.4-3.3,3.6c-28.3,28.3-56.5,56.7-85,84.8c-3.4,3.4-3.9,5.1-0.2,8.8
	c28.5,28.1,56.6,56.5,85.1,84.7c3.4,3.3,3.5,5.1,0,8.5c-12.7,12.2-25.1,24.7-37.4,37.3c-3.1,3.2-4.8,3.3-8,0
	c-28.3-28.6-56.9-56.9-85.1-85.5c-3.5-3.5-5.2-3.2-8.4,0.1c-28,28.3-56.3,56.3-84.3,84.6c-3.5,3.5-5.5,4.3-9.3,0.2
	c-11.9-12.5-24.1-24.7-36.5-36.5c-4-3.8-3.3-5.8,0.2-9.3c28.3-28,56.3-56.3,84.6-84.3c3.3-3.3,3.7-4.9,0.1-8.4
	c-28.6-28.3-56.9-56.8-85.4-85.1c-3.2-3.1-3.3-4.9-0.1-8c12.6-12.3,25.1-24.7,37.4-37.4c3.3-3.4,5.1-3.5,8.5-0.1
	c28.2,28.4,56.6,56.6,84.7,85c3.6,3.6,5.3,3.6,8.8,0c28-28.3,56.3-56.3,84.3-84.7c3.8-3.9,5.8-3.5,9.3,0.2
	c12.2,12.7,24.8,25,37.3,37.5C433.7,201.1,435.1,201.9,435.5,203.9z"/>
</svg>
