<?xml version="1.0" encoding="utf-8"?>
<!-- Generator: Adobe Illustrator 24.2.3, SVG Export Plug-In . SVG Version: 6.00 Build 0)  -->
<svg version="1.1" id="Capa_1" xmlns="http://www.w3.org/2000/svg" xmlns:xlink="http://www.w3.org/1999/xlink" x="0px" y="0px"
	 viewBox="0 0 100.6 100.6" style="enable-background:new 0 0 100.6 100.6;" xml:space="preserve">
<style type="text/css">
	.st0{fill:#47568B;}
	.st1{fill:#29376D;}
	.st2{fill:#FEDD46;}
	.st3{fill:#F9BD2C;}
	.st4{fill:#6AA8FE;}
	.st5{fill:#4894FE;}
	.st6{fill:#29376C;}
	.st7{fill:#ECF4FE;}
	.st8{fill:#D4E7FD;}
</style>
<g>
	<path class="st0" d="M0.4,7.6c0.3-0.2,0.3-0.6,0.4-1c1-3.5,4.2-6.2,7.9-6.2c7.1-0.1,14.1,0,21.2,0C30,0.6,30.1,0.8,30.1,1
		c0.1,1.5,0.1,3.1,0,4.6c0,0.2-0.1,0.4-0.2,0.6c-0.5,0.4-1.1,0.3-1.7,0.3c-5.9,0-11.9,0-17.8,0c-0.5,0-0.9,0-1.4,0
		c-1.3,0.2-2.2,1-2.4,2.3c-0.1,0.5,0,0.9,0,1.4c0,26.6,0,53.3,0,79.9c0,0.4,0,0.8,0,1.3c0.1,1.4,1.1,2.3,2.5,2.5c0.4,0,0.8,0,1.3,0
		c5.9,0,11.9,0,17.8,0c0.6,0,1.2-0.1,1.7,0.3c0.3,0.3,0.3,0.6,0.3,1c0,1.3,0,2.6,0,3.9c0,0.4,0,0.7-0.3,1c-7.3,0-14.7,0-22,0
		c-3.4-0.4-5.6-2.4-7-5.4c-0.3-0.6-0.1-1.2-0.4-1.8C0.4,64.4,0.4,36,0.4,7.6z"/>
	<path class="st1" d="M29.9,100.1c0-1.9,0-3.9,0-5.8c0,0,0.1-0.1,0.1-0.1c0.5-0.3,1.1-0.2,1.6-0.2c5.9,0,11.8,0,17.7,0
		c0.4,0,0.8,0,1.3,0c1.2-0.1,2.1-1,2.3-2.3c0.1-0.5,0-0.9,0-1.4c0-8,0-16,0-23.9c0-0.6-0.1-1.2,0.2-1.7c0.2-0.2,0.5-0.3,0.7-0.2
		c1.5,0.2,2.9,0.1,4.4,0.2c0.3,0,0.6,0.1,0.8,0.3c0,8.7,0,17.3,0,26c0,4.9-2.6,8.1-7.3,9.1c-0.1,0-0.1,0.1-0.1,0.1
		C44.4,100.1,37.1,100.1,29.9,100.1z"/>
	<path class="st2" d="M59.1,64.9c-1.9,0-3.9,0-5.8-0.2c-1,0-1.7,0.5-2.3,1.2c-1,1.1-2.1,2.1-3.2,3.2c-0.3,0.3-0.7,0.7-1.1,1
		c-1.1,0.8-2.2,1.3-3.5,0.6c-1.3-0.7-1.9-1.8-1.9-3.2c0-2.2,0-4.5,0-6.7c0-1.3-0.3-2.2-1.1-3.2c-4.6-5.9-6.1-12.5-3.6-19.6
		c2.8-8,8.6-12.5,16.9-14c1.6-0.3,3.2-0.2,4.7-0.2c0.3,0,0.6,0,0.9,0.3c2.9,0,5.8,0,8.8,0.1c0.3,0.3,0.3,0.6,0.3,1
		c0,5.2,0,10.4,0,15.6c0,0.2,0,0.4-0.1,0.6c-0.1,0.4-0.5,0.5-0.8,0.6c-1.3,0.4-2.1,1.3-2,2.6c0,1.3,0.8,2.1,2,2.6
		c0.3,0.1,0.7,0.2,0.8,0.6c0.1,0.4,0.1,0.9,0.1,1.4c0,4.8,0,9.5,0,14.3c0,0.5,0.1,1.1-0.3,1.6C64.9,64.8,62,64.8,59.1,64.9z"/>
	<path class="st3" d="M67.8,64.8c0-5.8,0-11.6,0-17.5c0,0,0.1-0.1,0.1-0.1c0.2-0.1,0.3-0.2,0.5-0.2c1.4-0.5,2.1-1.3,2.1-2.7
		c0-1.3-0.7-2.1-2.1-2.6c-0.2-0.1-0.4-0.1-0.5-0.2c0,0-0.1-0.1-0.1-0.1c0-5.8,0-11.6,0-17.5c4.4,0,8.9-0.3,13.3,0
		c9.1,0.6,16.7,7.2,18.6,16.2c2.5,11.7-5.5,22.4-16.8,24.4c-1,0.2-1.9,0.3-2.9,0.3C75.9,64.8,71.9,64.8,67.8,64.8z"/>
	<path class="st1" d="M59.1,23.9c-1.9,0.1-3.9,0-5.8,0.2c-0.4-0.4-0.3-1-0.3-1.5c0-4.2,0-8.4,0-12.5c0-2.8-0.8-3.6-3.6-3.6
		c-5.9,0-11.8,0-17.7,0c-0.5,0-1.1,0.1-1.6-0.2c0,0-0.1-0.1-0.1-0.1c0-1.9,0-3.9,0-5.8c7.1,0,14.1-0.1,21.2,0c4.2,0.1,8,4.1,8,8.3
		C59.1,13.8,59.1,18.8,59.1,23.9z"/>
	<path class="st4" d="M29.9,94.3c-6.7,0-13.4,0-20.1,0c-2.5,0-3.5-1.1-3.5-3.6c0-27,0-53.9,0-80.9c0-2.5,1.1-3.6,3.5-3.6
		c6.7,0,13.4,0,20.1,0c0,0,0,0,0,0c0.2,0.2,0.3,0.4,0.3,0.7c0,1.6,0.1,3.3-0.1,4.9c-0.2,0.5-0.6,0.5-1,0.7c-1.1,0.4-1.8,1.3-1.8,2.5
		c-0.1,1.1,0.7,2,1.9,2.6c0.4,0.2,0.8,0.2,1,0.7c0.1,0.5,0.1,1,0.1,1.5c0,20.3,0,40.6,0,61c0,0.5,0.1,1.1-0.1,1.6
		c-0.2,0.5-0.7,0.5-1.1,0.5c-0.7,0-1.4,0-2.1,0c-1.5,0.1-2.5,1.3-2.5,2.7c0,1.4,1.1,2.5,2.5,2.6c0.7,0.1,1.4,0,2,0
		c0.4,0,0.9,0,1.1,0.4c0.3,1.7,0.2,3.5,0.1,5.2C30.1,93.9,30,94.1,29.9,94.3L29.9,94.3z"/>
	<path class="st5" d="M29.9,12c0-1.9,0-3.9,0-5.8c6.9,0,13.8,0,20.6,0c1.6,0,2.7,1.3,2.8,2.9c0,5,0,10,0,15
		c-4.6,0.8-8.6,2.8-11.9,6.2C34,37.9,33.8,50,40.9,57.9c0.5,0.5,0.6,1,0.6,1.6c0,2.6,0,5.3,0,7.9c0,1.4,0.5,2.5,1.8,3
		c1.3,0.6,2.4,0.1,3.3-0.8c1.5-1.5,3.1-3,4.5-4.5c0.6-0.6,1.2-0.8,2-0.4c0,8.8,0,17.6,0,26.4c0,2.1-1.1,3.2-3.2,3.2
		c-6.7,0-13.4,0-20.1,0c0-1.9,0-3.9,0-5.8c0,0,0.1-0.1,0.1-0.1c1-0.3,2-0.1,3-0.2c1.2-0.1,2.1-0.9,2.4-1.9c0.3-1.2-0.1-2.3-1.1-3
		c-0.5-0.3-1.1-0.4-1.7-0.4c-0.9,0-1.7,0.2-2.6-0.2c0,0-0.1-0.1-0.1-0.1c0-20.4,0-40.9,0-61.3c0-1.1,0-2.2,0-3.3
		c0,0,0.1-0.1,0.1-0.1c0.2-0.2,0.5-0.2,0.7-0.3c1.3-0.4,1.9-1.3,1.9-2.7c0-1.1-0.7-2.1-1.8-2.5c-0.2-0.1-0.5-0.1-0.7-0.2
		C29.9,12.1,29.9,12.1,29.9,12z"/>
	<path class="st0" d="M56.2,47.3c-1.6,0-2.9-1.3-3-2.8c0-1.6,1.3-3,2.9-3c1.6,0,2.9,1.3,2.9,2.9C59.1,45.9,57.8,47.3,56.2,47.3z"/>
	<path class="st0" d="M67.8,47.3c-1.9-0.3-2.9-1.4-2.9-3c0-1.6,1.1-2.6,2.9-2.9c0,0,0,0.1,0,0.1c0.2,0.2,0.3,0.4,0.3,0.6
		c0.1,1.5,0.1,3,0,4.6C68.1,46.9,68,47.1,67.8,47.3L67.8,47.3z"/>
	<path class="st6" d="M82.4,44.4c0,1.6-1.3,2.9-2.9,2.9c-1.6,0-3-1.3-3-3c0-1.6,1.4-2.9,2.9-2.9C81.1,41.5,82.4,42.8,82.4,44.4z"/>
	<path class="st1" d="M67.8,47.3c0-1.9,0-3.8,0-5.8c1.7,0,2.9,1.2,2.9,2.9C70.8,46.1,69.5,47.3,67.8,47.3z"/>
	<path class="st7" d="M29.9,88.4c-1,0-1.9,0-2.9,0c-1.7,0-3-1.3-2.9-3c0-1.6,1.3-2.8,2.9-2.9c1,0,1.9,0,2.9,0c0,0,0,0,0,0
		c0.1,0.1,0.2,0.3,0.3,0.5c0.1,1.6,0.1,3.2,0,4.8C30.1,88.1,30,88.2,29.9,88.4L29.9,88.4z"/>
	<path class="st7" d="M29.9,17.9c-1.9-0.2-3-1.3-2.9-3c0-1.6,1.1-2.7,2.9-2.9c0,0,0,0,0,0c0.1,0.1,0.2,0.3,0.3,0.5
		c0.1,1.6,0.1,3.2,0,4.8C30.1,17.6,30,17.7,29.9,17.9L29.9,17.9z"/>
	<path class="st8" d="M29.8,88.4c0-1.9,0-3.9,0-5.8c1,0,2.1,0,3.1,0c1.6,0,2.7,1.3,2.7,2.9c0,1.6-1.2,2.9-2.7,2.9
		C31.9,88.4,30.9,88.4,29.8,88.4z"/>
	<path class="st8" d="M29.8,17.9c0-1.9,0-3.9,0-5.8c1.7,0,2.9,1.2,2.9,2.8C32.8,16.7,31.6,17.8,29.8,17.9z"/>
</g>
</svg>
