<?xml version="1.0" encoding="utf-8"?>
<!-- Generator: Adobe Illustrator 24.2.3, SVG Export Plug-In . SVG Version: 6.00 Build 0)  -->
<svg version="1.1" id="LOGO" xmlns="http://www.w3.org/2000/svg" xmlns:xlink="http://www.w3.org/1999/xlink" x="0px" y="0px"
	 viewBox="0 0 1140 282" style="enable-background:new 0 0 1140 282;" xml:space="preserve">
<style type="text/css">
	.st0{fill:url(#SVGID_1_);}
	.st1{fill:url(#SVGID_2_);}
	.st2{fill:url(#SVGID_3_);}
	.st3{fill:url(#SVGID_4_);}
	.st4{fill:url(#SVGID_5_);}
	.st5{fill:url(#SVGID_6_);}
	.st6{fill:#002D5D;}
	.st7{fill:#323E48;}
</style>
<g>
	<g>
		
			<linearGradient id="SVGID_1_" gradientUnits="userSpaceOnUse" x1="201.353" y1="649.7" x2="244.153" y2="649.7" gradientTransform="matrix(1 0 0 1 0 -560)">
			<stop  offset="0" style="stop-color:#0176AA"/>
			<stop  offset="0.3383" style="stop-color:#0174A7"/>
			<stop  offset="0.5418" style="stop-color:#026D9F"/>
			<stop  offset="0.7095" style="stop-color:#056291"/>
			<stop  offset="0.857" style="stop-color:#06537F"/>
			<stop  offset="0.9914" style="stop-color:#06436B"/>
			<stop  offset="1" style="stop-color:#05426A"/>
		</linearGradient>
		<circle class="st0" cx="222.7" cy="89.7" r="21.4"/>
		<g>
			
				<linearGradient id="SVGID_2_" gradientUnits="userSpaceOnUse" x1="119.2001" y1="845.7262" x2="253.8409" y2="711.0853" gradientTransform="matrix(1 0 0 1 0 -560)">
				<stop  offset="0" style="stop-color:#0176AA"/>
				<stop  offset="0.3383" style="stop-color:#0174A7"/>
				<stop  offset="0.5418" style="stop-color:#026D9F"/>
				<stop  offset="0.7095" style="stop-color:#056291"/>
				<stop  offset="0.857" style="stop-color:#06537F"/>
				<stop  offset="0.9914" style="stop-color:#06436B"/>
				<stop  offset="1" style="stop-color:#05426A"/>
			</linearGradient>
			<path class="st1" d="M142.9,257c48.5-25.5,79.9-63,79.9-99.7c0-5.3-3-10.4-4.2-12.1c-0.2-0.3,0-0.7,0.3-0.8l22.9-5
				c0.3-0.1,0.5,0.1,0.6,0.3l10.1,29.6c0,0.1,0,0.1,0,0.1c0,0.9,0.2,10.6-5.2,23c-15.2,35.6-64.2,86.1-105.4,86.1
				c-16.3,0-33.3-8.7-46.6-16.7c-0.5-0.3-0.2-1,0.3-0.9C124,265.2,137,260.1,142.9,257z"/>
		</g>
		<g>
			
				<linearGradient id="SVGID_3_" gradientUnits="userSpaceOnUse" x1="192.5794" y1="734.1165" x2="242.3594" y2="684.3365" gradientTransform="matrix(1 0 0 1 0 -560)">
				<stop  offset="0" style="stop-color:#05426A"/>
				<stop  offset="8.618474e-03" style="stop-color:#06436B"/>
				<stop  offset="0.143" style="stop-color:#06537F"/>
				<stop  offset="0.2905" style="stop-color:#056291"/>
				<stop  offset="0.4582" style="stop-color:#026D9F"/>
				<stop  offset="0.6617" style="stop-color:#0174A7"/>
				<stop  offset="1" style="stop-color:#0176AA"/>
			</linearGradient>
			<path class="st2" d="M193.5,153.8c0.7-0.5,11.4-7.2,22.6-7.2c14,0,32.7,8,32.7,32.1c0,11.9-3.7,18.7-3.7,18.7s12-21.3,12-45.3
				c0-16.5-16.7-34.6-34.5-34.6c-33.9,0-50,17.5-67.2,18.2c-0.4,0-0.7,0.5-0.4,0.8c0.6,0.7,1.3,1.5,2.3,2.4
				C164.7,146.3,182.4,160.5,193.5,153.8z"/>
		</g>
	</g>
	<g>
		<g>
			
				<linearGradient id="SVGID_4_" gradientUnits="userSpaceOnUse" x1="38.3098" y1="773.4771" x2="117.365" y2="694.4219" gradientTransform="matrix(1 0 0 1 0 -560)">
				<stop  offset="0" style="stop-color:#00A5B5"/>
				<stop  offset="1" style="stop-color:#016169"/>
			</linearGradient>
			<path class="st3" d="M135.3,250.4c0.5,0.1,0.6,0.8,0.1,0.9c-15.5,6.6-53.4,3.4-69.4-10.8C36.1,213.9,3.7,173.7,3.7,128.9
				c0-29.5,27.2-38.3,41.4-39.7c9.9-1,50,10.7,50,28.9c-7.6-9.8-17.4-17.8-20.6-17.8c-13.6,0-36.4,20.1-36.4,40.1
				c0,22.1,12.9,47.7,32.7,69.1C86.9,227.1,114.8,247.6,135.3,250.4z"/>
		</g>
		<g>
			
				<linearGradient id="SVGID_5_" gradientUnits="userSpaceOnUse" x1="50.1744" y1="735.4745" x2="122.7827" y2="662.8663" gradientTransform="matrix(1 0 0 1 0 -560)">
				<stop  offset="0" style="stop-color:#00A5B5"/>
				<stop  offset="0.3326" style="stop-color:#00A2B2"/>
				<stop  offset="0.5326" style="stop-color:#009AA9"/>
				<stop  offset="0.6975" style="stop-color:#008D99"/>
				<stop  offset="0.8433" style="stop-color:#007B85"/>
				<stop  offset="0.9753" style="stop-color:#00656D"/>
				<stop  offset="1" style="stop-color:#016169"/>
			</linearGradient>
			<path class="st4" d="M178.1,162.9c0.4-0.2,0.3-0.8-0.1-0.9c-4.7-1.5-24.1-9.2-42.9-38.2c-18.3-28.1-33.7-52.5-70.8-52.5
				c-40.4,0-60.7,35.1-60.7,57.6c0,0,2.3-36.1,36.2-36.1c35.9,0,47.3,15.5,61.9,33.6c14.2,17.7,21.4,43.1,47.4,43.1
				C164.8,169.5,175,164.6,178.1,162.9z"/>
		</g>
		
			<linearGradient id="SVGID_6_" gradientUnits="userSpaceOnUse" x1="36" y1="592.8" x2="97.2" y2="592.8" gradientTransform="matrix(1 0 0 1 0 -560)">
			<stop  offset="0" style="stop-color:#00A5B5"/>
			<stop  offset="0.3326" style="stop-color:#00A2B2"/>
			<stop  offset="0.5326" style="stop-color:#009AA9"/>
			<stop  offset="0.6975" style="stop-color:#008D99"/>
			<stop  offset="0.8433" style="stop-color:#007B85"/>
			<stop  offset="0.9753" style="stop-color:#00656D"/>
			<stop  offset="1" style="stop-color:#016169"/>
		</linearGradient>
		<circle class="st5" cx="66.6" cy="32.8" r="30.6"/>
	</g>
</g>
<g>
	<path class="st6" d="M340,62.4c-5.4,2.4-10.1,5.7-14.1,9.9s-7.1,9.2-9.4,15c-2.3,5.8-3.4,12.1-3.4,18.8c0,6.9,1.2,13.2,3.6,19.1
		s5.7,10.9,9.9,15.1c4.2,4.3,9.2,7.6,15,10c5.8,2.4,12.1,3.6,18.8,3.6c4.2,0,7.8-0.2,11-0.7s6.1-1.1,8.7-1.8
		c2.6-0.8,5.1-1.6,7.4-2.7c2.3-1,4.6-2.1,6.8-3.3l3.2,7.6c-5.2,2.8-10.6,5-16.4,6.5c-5.8,1.5-12.7,2.3-20.8,2.3
		c-7.9,0-15.2-1.4-22-4.2c-6.8-2.8-12.6-6.7-17.6-11.7c-4.9-5-8.8-10.9-11.6-17.8s-4.2-14.3-4.2-22.3s1.4-15.4,4.1-22.1
		s6.5-12.5,11.2-17.4c4.7-4.9,10.3-8.7,16.6-11.4s13.2-4.1,20.4-4.1c5.5,0,10.3,0.6,14.6,1.7c4.3,1.2,8.1,2.7,11.4,4.6
		c3.3,1.9,6.3,4.2,8.8,6.7c2.5,2.5,4.8,5.2,6.7,7.9l-6.8,4.7c-1.7-2.3-3.6-4.6-5.8-6.8s-4.6-4.1-7.3-5.7c-2.7-1.6-5.9-2.9-9.4-3.9
		c-3.5-1-7.6-1.4-12.2-1.4C351.1,58.8,345.3,60,340,62.4z"/>
	<path class="st6" d="M469.7,151.4c-2.3,2.4-4.8,4.3-7.4,5.9c-2.7,1.5-5.4,2.6-8.2,3.3c-2.8,0.7-5.5,1.1-8.1,1.1
		c-5.5,0-10.4-0.9-14.7-2.8c-4.4-1.9-8.1-4.5-11.1-7.9c-3-3.4-5.4-7.4-7-12.2c-1.6-4.7-2.4-9.9-2.4-15.6c0-5.9,1-11.3,2.9-16.3
		c1.9-5,4.6-9.2,8-12.8c3.4-3.5,7.5-6.3,12.2-8.4s10-3,15.7-3c4.9,0,9.3,0.5,13.4,1.4s8.3,2.4,12.8,4.2v-4.1h7.4v52.3
		c0,4.2,0.6,7.7,1.7,10.7c1.2,3,3.4,5.3,6.6,7.1l-4.7,6.4c-3.7-1.7-6.4-4.3-8.1-7.6c-1.6-3.3-2.6-6.8-3-10.5
		C473.9,146.1,472,149.1,469.7,151.4z M463.8,91.8c-4.2-1.1-8.8-1.7-13.8-1.7c-4.9,0-9.2,0.8-13.1,2.4c-3.9,1.6-7.2,3.9-10,6.8
		s-4.8,6.4-6.3,10.5c-1.5,4.1-2.2,8.5-2.2,13.4c0,4.6,0.7,8.8,2,12.6s3.2,7.1,5.6,9.9c2.4,2.7,5.4,4.9,8.8,6.4
		c3.4,1.5,7.3,2.3,11.6,2.3c4.6,0,8.7-0.9,12.4-2.7c3.7-1.8,6.8-4.2,9.3-7.2c2.5-3,4.5-6.6,5.8-10.6c1.3-4,1.9-8.2,1.7-12.5V96
		C471.9,94.3,468,92.9,463.8,91.8z"/>
	<path class="st6" d="M521.9,96c4.6-7.9,12.3-11.9,23.3-11.9h3l1.4,7.4h-2.9c-3.6,0-6.8,0.3-9.4,0.9c-2.6,0.6-4.9,1.4-6.8,2.5
		c-1.9,1.1-3.5,2.3-4.9,3.6c-1.3,1.4-2.5,2.9-3.6,4.5v57.1h-7.4v-76h7.4V96z"/>
	<path class="st6" d="M581,158.6c-4.9-2.1-9-4.9-12.3-8.5c-3.3-3.6-5.9-7.8-7.6-12.5s-2.6-9.8-2.6-15.2c0-5.7,0.9-10.9,2.7-15.7
		c1.8-4.8,4.3-9,7.5-12.5c3.2-3.5,7-6.3,11.3-8.3c4.4-2,9.1-3,14.1-3c5,0,9.5,1,13.7,3c4.2,2,7.7,4.7,10.7,8.3c3,3.5,5.3,7.9,7,12.9
		s2.5,10.7,2.5,17v0.8h-61.7c0.6,9,3.6,16.2,9,21.5c5.4,5.3,12.8,8,22.3,8c5.2,0,9.9-0.6,14.2-1.7c4.3-1.1,8.1-2.6,11.3-4.4l2.4,7.1
		c-3.7,1.9-7.8,3.5-12.2,4.6c-4.4,1.2-9.6,1.7-15.8,1.7C591.5,161.7,585.9,160.7,581,158.6z M584.1,92.1c-3.2,1.2-6.1,3-8.6,5.3
		c-2.5,2.3-4.6,5.2-6.2,8.7c-1.6,3.4-2.6,7.4-2.9,11.9h53.3c-0.8-8.9-3.5-15.8-8-20.5c-4.5-4.8-10.4-7.1-17.6-7.1
		C590.7,90.3,587.3,90.9,584.1,92.1z"/>
	<path class="st6" d="M670.9,71.9c-2.7,2-4,4.7-4,8.1c0,4.1,1.9,7.2,5.6,9.4c3.7,2.2,8.8,4.5,15.2,6.8c4.4,1.6,8.3,3.3,11.9,5.2
		c3.6,1.8,6.7,4,9.3,6.5s4.7,5.4,6.2,8.8s2.2,7.5,2.2,12.2c0,5.2-0.9,9.8-2.7,13.8c-1.8,4.1-4.4,7.5-7.8,10.3
		c-3.3,2.8-7.4,5-12.2,6.5c-4.8,1.5-10,2.2-15.8,2.2c-7,0-13.6-1-19.8-2.9c-6.2-1.9-11.7-4.6-16.6-7.9l9.1-17
		c4.1,3,8.5,5.4,13.4,7.1c4.9,1.7,9.8,2.5,14.9,2.5c11,0,16.6-4.3,16.6-12.9c0-2.2-0.4-4.1-1.3-5.7c-0.9-1.6-2.2-3-3.9-4.3
		c-1.7-1.3-3.9-2.5-6.6-3.6c-2.7-1.1-5.8-2.3-9.3-3.6c-4.3-1.6-8.2-3.3-11.8-5.2s-6.7-4-9.3-6.4c-2.6-2.4-4.6-5.3-6.1-8.5
		s-2.2-7.1-2.2-11.6c0-4.9,0.9-9.2,2.6-13s4.2-7,7.3-9.7c3.1-2.7,6.8-4.7,11.1-6.2c4.3-1.4,8.9-2.1,14-2.1c9,0,16.4,1.7,22.3,5.2
		c5.8,3.5,9.9,7.7,12.2,12.7l-16.3,9.9c-1.6-2.6-3.8-4.9-6.7-6.8c-2.8-1.9-6.7-2.9-11.6-2.9C677,69,673.6,70,670.9,71.9z"/>
	<path class="st6" d="M756.4,158.9c-5.2-2-9.6-4.7-13.2-8.3c-3.6-3.5-6.5-7.8-8.4-12.6c-2-4.9-3-10.2-3-16c0-6.2,1-11.8,2.9-16.7
		c1.9-5,4.6-9.2,8-12.6s7.4-6.1,12.1-8c4.7-1.9,9.7-2.8,15-2.8c5.2,0,10,0.9,14.4,2.8c4.5,1.9,8.3,4.6,11.6,8.1
		c3.3,3.5,5.9,8,7.7,13.2c1.8,5.3,2.7,11.3,2.7,18.2v2.9h-55.2c0.8,6.1,3.2,10.7,7.2,13.8c4,3.1,9.6,4.7,16.6,4.7
		c4.6,0,8.8-0.4,12.8-1.3s7.6-2.1,10.9-3.6l4.1,15c-3.6,1.7-7.7,3.1-12.2,4.3c-4.5,1.1-10.1,1.7-16.8,1.7
		C767.4,161.8,761.6,160.9,756.4,158.9z M757.9,101.2c-3.3,3-5.4,7.2-6.5,12.5H787c-0.6-5.5-2.6-9.7-5.9-12.6s-7.1-4.4-11.3-4.4
		C765.1,96.6,761.2,98.2,757.9,101.2z"/>
	<path class="st6" d="M870.1,158.1c-4.9,2.5-10.2,3.7-15.9,3.7c-5.2,0-9.9-0.9-14.3-2.7c-4.4-1.8-8.1-4.4-11.3-7.8
		c-3.2-3.4-5.7-7.5-7.4-12.3c-1.8-4.8-2.7-10.3-2.7-16.3c0-6.1,1-11.6,3-16.6c2-5,4.7-9.3,8.3-12.8c3.5-3.5,7.8-6.3,12.6-8.3
		c4.9-2,10.2-3,16-3c4.3,0,8.4,0.6,12.3,1.7c4,1.1,7.5,2.6,10.6,4.6l0.6-4.7h17v47.7c0,2.9,0.5,5.6,1.5,8.1s3.1,4.4,6.2,5.8
		l-8.5,16.4c-4.1-1-7.4-2.8-10.2-5.3c-2.7-2.5-4.8-5.6-6.2-9.1C878.8,151.9,875,155.6,870.1,158.1z M871.2,100.4
		c-3.2-0.9-6.6-1.4-10.2-1.4c-7.3,0-12.9,2.2-16.9,6.5c-4,4.4-6,10-6,17c0,6.7,1.9,12,5.6,16c3.7,4,8.7,5.9,14.7,5.9
		c3.2,0,6.2-0.6,8.9-1.9s5-3,6.9-5.2c1.9-2.2,3.4-4.8,4.4-7.8c1-3,1.5-6.2,1.4-9.5v-16.4C877.4,102.5,874.4,101.4,871.2,100.4z"/>
	<path class="st6" d="M941.3,96c2.4-4.8,5.6-8.1,9.5-10.1s8.2-3,12.8-3h2.7l2.7,17h-2.6c-6.5,0-11.7,1.2-15.7,3.6
		c-4,2.4-7.2,5.1-9.5,8.1v48.6h-18.7V83.4h18.7V96z"/>
	<path class="st6" d="M1007.5,100.6c-2.5,1-4.7,2.5-6.5,4.5c-1.9,2-3.3,4.4-4.4,7.2c-1.1,2.8-1.6,6-1.6,9.6c0,6.7,2.1,12.1,6.3,16.2
		c4.2,4.1,9.9,6.2,17.1,6.2c4.6,0,8.6-0.6,12.2-1.7c3.5-1.2,7.1-2.7,10.6-4.6l4.9,16.4c-3.5,2.2-7.7,4.1-12.5,5.5
		c-4.8,1.4-10.3,2.1-16.5,2.1c-6.4,0-12.1-1-17.3-2.9c-5.1-1.9-9.5-4.7-13.1-8.2c-3.6-3.5-6.5-7.8-8.4-12.7c-2-4.9-3-10.4-3-16.5
		c0-5.9,0.9-11.2,2.8-16.1c1.9-4.9,4.6-9,8.1-12.5c3.5-3.5,7.7-6.2,12.5-8.1c4.9-1.9,10.3-2.9,16.3-2.9c6.4,0,12.4,1.4,17.9,4.1
		c5.6,2.7,10.1,6.5,13.7,11.2l-12.3,12.2c-1.8-2.8-4.3-5.3-7.5-7.3c-3.2-2-6.9-3-11.2-3C1012.6,99.1,1009.9,99.6,1007.5,100.6z"/>
	<path class="st6" d="M1063.5,46h18.8v47c2.9-3.2,6.5-5.9,10.7-8.1s9.2-3.2,15-3.2c9.3,0,16.4,2.8,21.2,8.5c4.8,5.7,7.2,13.7,7.2,24
		v46.1h-19V117c0-12.1-5.1-18.1-15.4-18.1c-3.9,0-7.5,0.9-10.9,2.8c-3.4,1.9-6.4,4.3-8.8,7.2v51.4h-18.8V46z"/>
	<path class="st7" d="M334.2,192.9v36.9h-4.8v-16.7h-18.8v16.7h-4.8v-36.9h4.8v16.2h18.8v-16.2H334.2z"/>
	<path class="st7" d="M356.1,227.8c-2.8-1.6-5.1-3.8-6.7-6.7c-1.6-2.9-2.5-6.1-2.5-9.7c0-3.6,0.8-6.8,2.5-9.7
		c1.6-2.9,3.9-5.1,6.7-6.7c2.8-1.6,5.9-2.4,9.4-2.4c3.5,0,6.6,0.8,9.4,2.4c2.8,1.6,5,3.8,6.7,6.7c1.6,2.9,2.4,6.1,2.4,9.7
		c0,3.6-0.8,6.9-2.4,9.7c-1.6,2.9-3.8,5.1-6.7,6.7c-2.8,1.6-6,2.4-9.4,2.4C362.1,230.2,359,229.4,356.1,227.8z M372.5,224.2
		c2.1-1.2,3.7-2.9,4.9-5.1c1.2-2.2,1.8-4.8,1.8-7.7c0-3-0.6-5.5-1.8-7.8c-1.2-2.2-2.8-3.9-4.8-5.1c-2-1.2-4.4-1.8-7-1.8
		c-2.6,0-4.9,0.6-7,1.8c-2,1.2-3.7,2.9-4.8,5.1s-1.8,4.8-1.8,7.8c0,2.9,0.6,5.5,1.8,7.7c1.2,2.2,2.8,3.9,4.9,5.1
		c2.1,1.2,4.4,1.8,7,1.8C368.1,226,370.4,225.4,372.5,224.2z"/>
	<path class="st7" d="M434.1,193.2v36.6h-4.8v-27.3l-12.2,27.3h-3.4l-12.2-27.3v27.3h-4.8v-36.6h5.2l13.5,30.3l13.5-30.3H434.1z"/>
	<path class="st7" d="M453.4,196.8v12.3h13.4v4h-13.4v12.7h15v4h-19.8v-36.9h19.8v4H453.4z"/>
	<path class="st7" d="M531,192.9v36.9h-4.8v-16.7h-18.8v16.7h-4.8v-36.9h4.8v16.2h18.8v-16.2H531z"/>
	<path class="st7" d="M550.3,196.8v12.3h13.4v4h-13.4v12.7h15v4h-19.8v-36.9h19.8v4H550.3z"/>
	<path class="st7" d="M583.8,225.9h12.9v3.9H579v-36.9h4.8V225.9z"/>
	<path class="st7" d="M629.7,211.4c-2.1,2-5.3,3-9.6,3H613v15.4h-4.8v-36.9h11.9c4.2,0,7.3,1,9.5,3c2.2,2,3.3,4.6,3.3,7.8
		C632.8,206.8,631.8,209.3,629.7,211.4z M626,208.7c1.3-1.2,1.9-2.8,1.9-5c0-4.5-2.6-6.8-7.8-6.8H613v13.5h7.1
		C622.8,210.4,624.8,209.9,626,208.7z"/>
	<path class="st7" d="M670.8,228.9c-1.9-0.9-3.4-2.1-4.5-3.6c-1.1-1.5-1.7-3.3-1.7-5.3h5.1c0.2,1.7,0.9,3.2,2.1,4.4
		c1.3,1.2,3.1,1.8,5.5,1.8c2.3,0,4.1-0.6,5.4-1.7c1.3-1.1,2-2.6,2-4.4c0-1.4-0.4-2.6-1.2-3.4c-0.8-0.9-1.7-1.6-2.9-2
		c-1.2-0.5-2.7-1-4.7-1.5c-2.4-0.6-4.4-1.3-5.8-1.9c-1.5-0.6-2.7-1.6-3.8-3c-1-1.4-1.6-3.2-1.6-5.5c0-2,0.5-3.8,1.5-5.3
		c1-1.6,2.5-2.8,4.3-3.6c1.9-0.8,4-1.3,6.4-1.3c3.5,0,6.3,0.9,8.5,2.6c2.2,1.7,3.4,4,3.7,6.9h-5.3c-0.2-1.4-0.9-2.7-2.2-3.7
		c-1.3-1.1-3-1.6-5.2-1.6c-2,0-3.6,0.5-4.9,1.6c-1.3,1-1.9,2.5-1.9,4.4c0,1.3,0.4,2.4,1.1,3.3c0.8,0.8,1.7,1.5,2.8,1.9
		c1.1,0.4,2.7,0.9,4.7,1.5c2.4,0.7,4.4,1.3,5.9,2c1.5,0.7,2.8,1.7,3.8,3c1.1,1.4,1.6,3.2,1.6,5.5c0,1.8-0.5,3.5-1.4,5.1
		s-2.4,2.9-4.2,3.9c-1.9,1-4.1,1.5-6.6,1.5C674.9,230.2,672.7,229.7,670.8,228.9z"/>
	<path class="st7" d="M707.9,196.8v12.3h13.4v4h-13.4v12.7h15v4H703v-36.9h19.8v4H707.9z"/>
	<path class="st7" d="M755.9,229.8l-8.8-15.1h-5.8v15.1h-4.8v-36.9h11.9c2.8,0,5.1,0.5,7.1,1.4c1.9,1,3.4,2.2,4.3,3.9
		c1,1.6,1.4,3.5,1.4,5.6c0,2.5-0.7,4.8-2.2,6.7c-1.5,1.9-3.7,3.2-6.6,3.9l9.3,15.4H755.9z M741.3,210.9h7.1c2.6,0,4.6-0.6,5.9-1.9
		c1.3-1.3,2-3,2-5.2c0-2.2-0.6-3.9-1.9-5.1c-1.3-1.2-3.3-1.8-5.9-1.8h-7.1V210.9z"/>
	<path class="st7" d="M805.5,192.9l-13.9,36.9H786l-13.9-36.9h5.1l11.6,31.8l11.6-31.8H805.5z"/>
	<path class="st7" d="M822,192.9v36.9h-4.8v-36.9H822z"/>
	<path class="st7" d="M837.1,201.6c1.6-2.9,3.8-5.1,6.6-6.7c2.8-1.6,5.9-2.4,9.3-2.4c4,0,7.5,1,10.5,2.9c3,1.9,5.2,4.7,6.6,8.3h-5.8
		c-1-2.2-2.5-3.9-4.4-5.1c-1.9-1.2-4.2-1.8-6.9-1.8c-2.6,0-4.9,0.6-6.9,1.8c-2,1.2-3.7,2.9-4.8,5.1s-1.7,4.8-1.7,7.8
		c0,2.9,0.6,5.5,1.7,7.7c1.2,2.2,2.8,3.9,4.8,5.1c2,1.2,4.4,1.8,6.9,1.8c2.7,0,5-0.6,6.9-1.8c1.9-1.2,3.4-2.9,4.4-5.1h5.8
		c-1.4,3.5-3.6,6.3-6.6,8.2c-3,1.9-6.5,2.9-10.5,2.9c-3.4,0-6.5-0.8-9.3-2.4c-2.8-1.6-5-3.8-6.6-6.7s-2.4-6.1-2.4-9.7
		C834.7,207.7,835.5,204.5,837.1,201.6z"/>
	<path class="st7" d="M888.5,196.8v12.3h13.4v4h-13.4v12.7h15v4h-19.8v-36.9h19.8v4H888.5z"/>
</g>
</svg>
