<?xml version="1.0" encoding="utf-8"?>
<!-- Generator: Adobe Illustrator 24.2.3, SVG Export Plug-In . SVG Version: 6.00 Build 0)  -->
<svg version="1.1" id="Capa_1" xmlns="http://www.w3.org/2000/svg" xmlns:xlink="http://www.w3.org/1999/xlink" x="0px" y="0px"
	 viewBox="0 0 95 100.6" style="enable-background:new 0 0 95 100.6;" xml:space="preserve">
<style type="text/css">
	.st0{fill:#90DDB5;}
	.st1{fill:#FD92BA;}
	.st2{fill:#6ED4A0;}
	.st3{fill:#FD77A8;}
	.st4{fill:#FD76A7;}
	.st5{fill:#FD86B2;}
	.st6{fill:#FDD1A3;}
	.st7{fill:#BB7C63;}
	.st8{fill:#FEEDE5;}
	.st9{fill:#A96A51;}
	.st10{fill:#F1FAFE;}
	.st11{fill:#FEBC85;}
	.st12{fill:#FEDECE;}
	.st13{fill:#F5A86C;}
	.st14{fill:#FECDBE;}
	.st15{fill:#F3D1B7;}
	.st16{fill:#DEF5FC;}
	.st17{fill:#FAF9F7;}
	.st18{fill:#FD84B1;}
	.st19{fill:#FBC596;}
</style>
<g>
	<path class="st0" d="M48.3,61.9c3.7,0.8,7.3,1.6,10.9,2.6c0.4,0.1,0.5,0.4,0.7,0.6c1.4,2.5,3.4,4.4,5.9,5.7
		c0.2,0.1,0.4,0.3,0.6,0.5c0.2,0.4,0.5,0.8,0.1,1.3c-1.3,0.3-2.7,0.1-4,0.5c-5,1.4-8.2,4.6-9.3,9.7c-1.1,5.2-1.9,10.4-2.9,15.6
		c-0.1,0.6-0.1,1.3-0.6,1.8c-10.6,0-21.2,0-31.8,0c-0.4-0.5-0.3-1-0.3-1.6c0-4.9,0-9.7,0-14.6c0-0.5,0-0.9-0.1-1.4
		c-0.1-0.4-0.3-0.8-0.8-0.8c-0.5,0-0.9,0.1-1.1,0.6c-0.3,0.5-0.3,1.1-0.3,1.6c0,5,0,10,0,15c0,0.4,0.1,0.8-0.1,1.1
		c-2.5,0-5.1,0-7.6,0c-1.3-0.5-2-1.5-2-2.9c0-2.1,0.5-4.1,0.8-6.2c0.7-4.6,1.2-9.2,2-13.7c1-5.8,4.4-9.5,10.1-11.1
		c2.8-0.8,5.6-1.3,8.5-2c0.1,0,0.2,0,0.3,0c1.7,0.5,3.5,1.1,5.3,1.3c5,0.5,9.7-0.2,14.1-2.7C47,62.5,47.6,62.1,48.3,61.9z"/>
	<path class="st1" d="M82.6,73c5.7,2,8.8,6.2,9.8,12.1c0.7,4.1,1.4,8.2,2.2,12.2c0.3,1.4-0.2,2.2-1.2,2.9c-2.2,0-4.4,0-6.6,0
		c-0.3-0.3-0.3-0.8-0.3-1.2c0-2.1,0-4.3,0-6.4c0-0.6,0.1-1.2,0.4-1.8c0.2-0.5,0.5-1.1,0.7-1.6c0.4-0.8,0.2-1.5-0.4-1.8
		c-0.6-0.3-1.2,0-1.6,0.8c-0.9,1.5-1.5,3.1-1.4,5c0.1,1.9,0,3.8,0,5.7c0,0.4,0.1,0.9-0.3,1.3c-7.6,0-15.2,0-22.8,0
		c-0.3-0.4-0.3-0.9-0.3-1.3c0-2.3,0-4.5,0-6.8c0-1.6-0.7-2.9-1.5-4.2c-0.5-0.9-1.1-0.8-2.2,0c-0.1,0-0.2,0.1-0.3,0
		c-0.3-0.3-0.2-0.7-0.1-1c0.2-1.4,0.4-2.8,0.7-4.2c0.6-2.7,1.8-5,3.9-6.9c0.3-0.3,0.7-0.8,1.3-0.5c0.2,0.5,0.2,1,0.2,1.5
		c0.1,2.7-0.2,5.3,0.2,8c0.4,3.1,3.2,5.5,6.3,5.6c1.2,0,2.4,0,3.6,0c1.2,0,2.3,0,3.5,0c3.4,0,5.9-2.5,5.9-5.9c0-3.3,0-6.7,0-10
		C82.2,73.9,82,73.3,82.6,73z"/>
	<path class="st2" d="M26.8,64.5c-2.2,0.8-4.6,1.2-6.9,1.7c-4.9,0.9-8.5,3.4-10.6,8c-0.8,1.8-1,3.8-1.3,5.8
		c-0.5,3.1-0.9,6.1-1.3,9.2c-0.3,2.4-0.7,4.8-1,7.2c-0.2,1.7,0.4,2.9,1.8,3.8c-1.7,0-3.4,0-5.1,0c-2.3-1.1-2.3-3-1.9-5.1
		C1.3,90.1,1.9,85,2.7,80c0.4-2.6,0.5-5.2,1.4-7.6c1.6-4.5,4.9-7.3,9.5-8.4c2.7-0.7,5.5-1.3,8.2-1.9c0.2,0,0.4,0,0.6,0
		C23.8,62.8,25.4,63.5,26.8,64.5z"/>
	<path class="st3" d="M62.3,75.2c-2.2,1.4-3.4,3.5-4.3,5.8c-0.8,2.2-1,4.6-1.4,6.9c0,0.2,0.1,0.4,0.1,0.6c-0.6,3.6-1.3,7.2-1.9,10.9
		c0,0.3-0.1,0.6-0.3,0.8c-1.6,0-3.3,0-4.9,0c0.6-3.1,1.2-6.3,1.8-9.4c0.5-2.9,0.9-5.8,1.6-8.6c1.3-4.9,4.4-8,9.3-9.3
		C62.8,73.7,62.8,74.4,62.3,75.2z"/>
	<path class="st2" d="M15.1,100.2c-0.2-0.3-0.2-0.7-0.2-1c0-5.2,0-10.5,0-15.7c0-1.3,0.5-2,1.5-2c1,0,1.5,0.4,1.5,1.6
		c0,3.1,0,6.2,0,9.4c0,2.6,0,5.2,0,7.8C17,100.2,16,100.2,15.1,100.2z"/>
	<path class="st4" d="M83.8,100.2c0-2.7,0-5.5,0-8.2c0-1.8,0.9-3.1,1.8-4.6c0.4-0.6,1.1-0.7,1.7-0.3c0.7,0.4,1.1,1.1,0.7,1.7
		c-1.5,2.3-1.2,4.9-1.2,7.4c0,1.3,0,2.6,0,3.9C85.8,100.2,84.8,100.2,83.8,100.2z"/>
	<path class="st4" d="M56.9,87.9c0.8-1.3,2-1.3,2.7,0.1c0.8,1.6,1.5,3.2,1.4,5.1c-0.2,2.4,0,4.8,0,7.2c-1,0-2,0-2.9,0
		c-0.3-0.4-0.3-0.8-0.3-1.3c0-1.9,0-3.9,0-5.8c0-1.1-0.2-2.1-0.7-3.1c-0.2-0.4-0.4-0.8-0.4-1.3C56.7,88.5,56.7,88.2,56.9,87.9z"/>
	<path class="st5" d="M56.9,88.7c0,0.3,0.1,0.6,0.3,0.9c0.8,1.2,1,2.6,0.9,4c-0.1,2.2,0,4.4,0,6.6c-1.2,0-2.3,0-3.5,0
		c0.1-1.9,0.6-3.7,0.9-5.6c0.3-2.1,0.7-4.2,1.1-6.3C56.9,88.2,56.7,88.6,56.9,88.7z"/>
	<path class="st6" d="M53.6,35.8c-0.2,0.3-0.2,0.7-0.2,1c0.1,4.7-1.8,8.7-4.9,12.1c-1.4,1.5-3,2.7-4.9,3.5c-0.6,0.3-0.9,0.6-0.8,1.3
		c0,1.8,0,3.5,0,5.3c-0.6-0.2-0.4-0.7-0.4-1.1c0-0.4,0-0.8,0-1.1c0-0.8,0-1.6,0-2.4c0-0.9-0.1-1-1-0.7c-1.2,0.4-2.5,0.8-3.8,0.8
		c-3,0-5.5-1.3-7.8-2.9c-4.4-3.1-6.9-7.4-7.8-12.7c-0.1-0.5-0.1-1-0.1-1.5c0-4.2,0.1-8.3,0-12.5c-0.1-4.6,3.1-9.1,7.6-10.6
		c0.2-0.1,0.4-0.1,0.6-0.2c0.7-0.1,1.5-0.1,2.2-0.1c3.5,0,6.9,0,10.4,0c5.3,0,9.5,3.3,10.8,8.4c0.2,0.7,0.2,1.4,0.2,2.1
		c0.1,3.5,0,7,0,10.5C53.7,35.4,53.6,35.6,53.6,35.8z"/>
	<path class="st7" d="M53.4,24.4c-0.1-5.4-4.7-10.1-10.6-10.1c-4.3,0-8.6,0-12.9,0c-1.4,0.4-2.8,0.1-4.2,0.4c-4.3,1-7.1,3.6-8.1,8
		c-0.1,0.6-0.1,1.3-0.5,1.8c-0.5,0.2-0.9,0.2-1.4,0c-0.5-0.4-0.4-0.9-0.3-1.4c0.5-6.1,2.9-11.4,7.1-15.8c3.6-3.6,7.9-6.1,13-7
		c0.3-0.1,0.7,0,1-0.1c7,0.1,12.9,2.8,17.6,8c4.2,4.7,6.2,10.2,6.1,16.5c0,1.3,0,2.7,0,4c-0.5,0-0.5-0.5-0.6-0.8
		c-1-2.2-2.7-3.1-5-3.3C54.1,24.7,53.7,24.8,53.4,24.4z"/>
	<path class="st8" d="M88.9,58.4c-0.1,0.1-0.2,0.1-0.2,0.1c-0.5,0.2-1.3-0.3-1.6,0.3c-0.3,0.4-0.2,1.1-0.2,1.6
		c-0.8,4.9-3.5,8.4-7.8,10.6c-0.3,0.2-0.7,0.3-1,0.6c-1.2,0.7-2.5,0.9-3.9,1c-6.2-1.7-10.5-6.5-11.4-12.9c-0.1-0.8-0.1-1.6-0.1-2.4
		c0-2.4-0.1-4.8,0-7.2c0.1-2.4,0.9-4.6,2.7-6.3c1.8-0.5,3.5-1.3,5.3-1.7c1.1,0.4,2.1,0.4,3.1-0.1c1.3,0.4,2.6,0.9,3.9,1.3
		c1.7,0.6,2.2,0.3,3-1.3c0.1-0.1,0.1-0.2,0.2-0.3c2,0.9,3.7,2.2,4.8,4.2c0.8,1.4,1.2,2.9,1.2,4.4c0.3,0.4,0.3,0.8,0.3,1.3
		c0,1.7,0,3.4,0,5c0,0.9,0.1,1.5,1.2,1.4C88.6,58.2,88.8,58.3,88.9,58.4z"/>
	<path class="st7" d="M17.1,43.4c-0.4,5.3-3.1,9-8,11.1c-1.6-0.3-2.5-1.3-2.6-2.9c0-0.3,0-0.6,0-1c0-9.4,0-18.8,0-28.2
		c0-4.7,1.6-8.7,5-12c0.6-0.5,1.2-1,1.8-1.4c1-0.3,2-0.4,3-0.4c0.1,0.4-0.2,0.7-0.4,0.9c-2.8,3.6-4.4,7.7-4.9,12.1
		c-0.2,2.3-0.2,4.5,0,6.8c0,0.6-0.1,1.2-0.1,1.8c0,2.9,2.1,5,5,5.1c0.4,0,0.8,0,1.1,0.2c0.1,0.1,0.2,0.2,0.2,0.3
		c0.2,0.8,0.1,1.5,0.1,2.3C17.2,40,17.2,41.7,17.1,43.4z"/>
	<path class="st9" d="M13.3,9c0.1,0.4-0.3,0.5-0.5,0.6c-3.5,2.7-5.4,6.3-5.9,10.7c-0.1,1.1-0.2,2.3-0.2,3.4c0,9,0,18,0,27
		c0,1.7,0.4,3,2.2,3.6c0.1,0,0.1,0.1,0.2,0.2c-1.6,0.6-3.2,0.9-4.9,0.8C3,55.2,2,54.4,1.8,53.1c-0.1-0.4-0.1-0.7-0.1-1.1
		c0-9.3,0-18.7,0-28c0-6.1,2.6-10.8,8-13.8C10.9,9.7,12.1,9.2,13.3,9z"/>
	<path class="st10" d="M82.6,73c-0.3,0.3-0.2,0.7-0.2,1c0,3.4,0,6.9,0,10.3c0,3.6-2.6,6.3-6.3,6.3c-1.2,0-2.3,0-3.5,0
		c-3.6-0.3-5.8-3.6-5.9-6.7c-0.1-2.9-0.1-5.8,0-8.7c0-0.2,0-0.3,0.1-0.5c0.7-0.3,0.6,0.3,0.8,0.6c0.9,1.9,2.5,2.8,4.5,2.9
		c3,0.2,5.1-1.6,5.5-4.6c0.1-0.4-0.1-0.9,0.3-1.2C79.5,72.4,81.1,72.6,82.6,73z"/>
	<path class="st11" d="M17.1,24.5c0.2-5.7,4.9-10.1,10.5-10.1c0.8,0,1.6,0,2.3,0c-1.4,0.6-2.8,1.2-4,2.3c-2.3,2-3.7,4.4-3.7,7.4
		c-0.1,4.2,0,8.3,0,12.5c0,4.1,1.4,7.7,3.8,11c2.5,3.3,5.9,5.4,9.9,6.6c0.6,0.2,1.2,0,1.7,0.1c-0.1,0.5-0.4,0.4-0.7,0.5
		c-2.9,0.2-5.8-0.1-8.6-1.2c0.1,1.5,0.1,3.1,0,4.7c0,0.4,0.1,0.8-0.4,1c0-1.7-0.1-3.4,0-5.2c0-0.7-0.2-1.1-0.9-1.4
		c-5-2.5-8.1-6.5-9.4-11.9c-0.1-0.2-0.1-0.4-0.1-0.7c-0.4-0.6-0.3-1.2-0.3-1.8c-0.1-0.8,0.1-1.6-0.1-2.3l0,0
		c-0.3-0.4-0.3-0.8-0.3-1.3c0-2.9,0-5.8,0-8.7C16.8,25.3,16.7,24.8,17.1,24.5z"/>
	<path class="st12" d="M65.5,44c-1.7,2.1-2.7,4.4-2.6,7.2c0.1,2.4,0,4.9,0,7.3c0,5.5,3.9,11.2,9.2,13.2c0.7,0.2,1.3,0.5,2,0.8
		c-0.2,0.2-0.4,0.3-0.6,0.3c-2.1,0.1-4.3,0.1-6.3-0.8c-0.4-0.1-0.7-0.4-0.9-0.6c-3.1-1.4-5.4-3.8-7-6.8c-0.6-1.6-1.2-3.3-1.2-5.1
		c0-0.6-0.3-1-1.1-0.9c-0.3,0-0.6,0.1-0.8-0.2c1.5-0.3,1.6-1.3,1.5-2.6c-0.1-1.4,0-2.8,0-4.2c0-0.4,0-0.9,0.3-1.3
		c0.2-2.6,1.1-4.9,3.1-6.7c0.6-0.5,1.2-1,1.9-1.3c0.4-0.2,0.6-0.4,0.8-0.8C63.9,42.7,64.6,43.4,65.5,44z"/>
	<path class="st9" d="M10.8,28.6c-0.1-0.1-0.1-0.2-0.1-0.2c-0.3-5.1,0-10.2,2.4-14.8c0.9-1.7,2-3.3,3.2-4.8c5.4-6,12.1-8.8,20.1-8.3
		C33.7,1,31,1.7,28.6,3.1c-4.3,2.4-7.7,5.7-10.1,10.1c-1.9,3.5-2.9,7.3-3,11.3c-0.1,0.3-0.3,0.4-0.6,0.4c-1.8,0.5-3.1,1.6-3.8,3.3
		C11.1,28.4,11,28.5,10.8,28.6z"/>
	<path class="st11" d="M42.6,56.7c0.1,0.8-0.2,1.6,0.2,2.3c0.2,1.2,1,1.8,2.1,2.1c1.1,0.3,2.3,0.6,3.4,0.8c-2.4,1.9-5.1,3-8.1,3.6
		c-4.5,0.9-8.9,0.7-13.2-1.1c0.8-0.5,1.8-0.5,2.7-0.8c0.5-0.1,1-0.2,1.4-0.4c0.9-0.4,1.5-1.1,1.5-2.1c0-0.6,0-1.2,0-1.8
		c0.1-1,0.4-1.4,1.5-1.4c1.1-0.1,2.1,0.1,3.2-0.1c1.5-0.2,3.1-0.5,4.5-1.1C42.1,56.7,42.3,56.5,42.6,56.7z"/>
	<path class="st13" d="M42.6,56.7c-2.6,1.3-5.3,1.6-8.2,1.6c-1.5,0-1.6,0.1-1.6,1.6c0,0.6,0,1.1,0,1.7c-0.1,1-0.6,1.7-1.5,2
		c-1.4,0.5-2.9,0.9-4.4,1c-0.1,0-0.1,0-0.2,0c-1.6-0.7-3.2-1.4-4.5-2.6c1.1-0.3,2.2-0.6,3.4-0.8c1.2-0.3,2-0.9,2.2-2.1
		c0.4-0.9,0.1-1.8,0.2-2.7c0-1.1,0-2.1,0-3.3c2.8,1.1,5.7,1.4,8.6,1.3c0.3,0,0.7,0.1,0.9-0.2c1.4,0,2.7-0.4,4.1-0.9
		c1-0.3,1-0.3,1,0.8C42.6,54.9,42.6,55.8,42.6,56.7z"/>
	<path class="st13" d="M53.4,24.4c0.6,0,1.2,0,1.8,0.1c2.5,0.4,3.9,2,4.7,4.2c0.1,1.7,0.1,3.4-1.1,4.9c-1.4,1.8-3.2,2.3-5.3,2.2
		c-0.2-0.2-0.2-0.4-0.2-0.6C53.4,31.6,53.4,28,53.4,24.4z"/>
	<path class="st14" d="M67,71.7c2.3,0.9,4.6,0.8,7,0.8c1.3-0.1,2.6-0.6,3.9-0.8c0,0.3,0,0.5,0,0.8c0,2.3-0.6,4.3-2.8,5.4
		c-2.7,1.4-6.7,0.6-7.9-3c0-0.1-0.1-0.2-0.2-0.3c-0.5-0.6-0.3-1.4-0.2-2.1C66.8,72.2,66.8,71.9,67,71.7z"/>
	<path class="st1" d="M65.5,44c-1.5-0.5-1.7-0.8-1.8-2.4c0.4-1.1,0.5-2.1,0.1-3.3c-0.5-1.6,1-2.9,2.6-2.4c1.5,0.4,2.9,1.1,4.3,1.4
		c0.3,0.4,0,0.6-0.2,0.8c-1,1.4-1,2.2,0,3.6c0.1,0.2,0.4,0.4,0.2,0.7C69,42.9,67.3,43.7,65.5,44z"/>
	<path class="st1" d="M80.9,41.8c-0.2,1.8-1.3,2.5-3,1.9c-1.4-0.5-2.8-0.7-4.1-1.5c0-0.3,0.3-0.5,0.4-0.8c0.7-1,0.7-2,0-3.1
		c-0.2-0.3-0.7-0.6-0.4-1.1c1.4-0.3,2.8-0.8,4.1-1.3c0.9-0.3,1.7-0.2,2.4,0.5c0.6,0.7,0.7,1.5,0.2,2.3C80,40,80.8,40.9,80.9,41.8z"
		/>
	<path class="st14" d="M88.9,58.4c-2,0-2,0-2-2c0-2,0-4,0-6c0.8,0,1.6-0.1,2.4,0.2c2.1,0.7,3,2.1,2.9,4.5
		C92.1,56.7,90.8,58.1,88.9,58.4z"/>
	<path class="st14" d="M57.9,50.4c0,2.3,0,4.5,0,6.8c0,0.9-0.2,1.4-1.2,1.2c-0.2,0-0.4,0-0.6,0c-2-0.2-3.5-1.9-3.5-4.1
		c0-2.1,1.8-3.8,3.9-3.9C57,50.4,57.4,50.4,57.9,50.4z"/>
	<path class="st10" d="M73.9,37.4c-0.1,0.3,0.2,0.5,0.3,0.6c1.3,1.4,1.1,3-0.3,4.2c-1,0.8-2.1,0.7-3.2,0.2c-0.5-0.6-1.1-1.1-1.2-2
		c0-0.9,0.1-1.7,0.8-2.3c0.2-0.2,0.5-0.3,0.4-0.7C71.8,37.1,72.8,37.2,73.9,37.4z"/>
	<path class="st15" d="M17.3,38.1c0.1,0.6,0.1,1.2,0.2,1.8c-0.4,0.7-0.1,1.4-0.2,2.1c-0.1,0.5,0.1,1-0.2,1.4c0-1.8,0-3.5,0-5.3
		C17.2,38,17.2,38,17.3,38.1z"/>
	<path class="st16" d="M67,72.5c0,0.7,0,1.4,0,2.1c0,3,0,5.9,0,8.9c0,3.3,2,6.3,5.4,7c0.1,0,0.2,0.1,0.2,0.2c-1.6,0-3.3,0.3-4.9-0.1
		c-3.4-0.8-5.4-3.6-5.5-7.2c0-2.7,0-5.4,0-8.1c0-0.8,0-1.5,0-2.3c1.4-0.5,2.8-0.4,4.2-0.4C66.7,72.4,66.9,72.4,67,72.5z"/>
	<path class="st17" d="M67,72.5c-0.1,0-0.3,0-0.4,0c-0.1-0.4-0.3-0.8-0.4-1.2c0.3,0.1,0.6,0.1,0.8,0.4C67,72,67,72.2,67,72.5z"/>
	<path class="st18" d="M56.9,88.7c-0.1-0.1-0.3-0.3-0.4-0.4c0-0.2,0-0.3,0.2-0.4c0.1,0,0.1,0,0.2,0C56.9,88.2,56.9,88.4,56.9,88.7z"
		/>
	<path class="st13" d="M10.8,28.6c0.6-2.4,2.4-3.5,4.7-4.1c0.5,0,1,0,1.6,0c0,3.8,0,7.6,0,11.3c-1.6,0.1-3.1-0.1-4.4-1.2
		C10.7,33,10.3,30.9,10.8,28.6z"/>
	<path class="st1" d="M70,63.9c-1.6-0.3-2.9-1.4-3.1-2.7c-0.3-1.7,0.3-3.2,1.6-4c0.5-0.3,1-0.4,1.6-0.4c1.6,0,3.1,0,4.7,0
		c1.7,0,3.1,1.2,3.4,2.8c0.3,1.6-0.6,3.4-2.2,4c-0.4,0.1-0.7,0.3-1.1,0.3c-0.3-0.1-0.5-0.4-0.7-0.6c-1.1-1.2-2.6-1.1-3.6,0.1
		C70.4,63.6,70.3,64,70,63.9z"/>
	<path class="st10" d="M70,63.9c1.1-1.6,2.1-2.1,3.4-1.5c0.7,0.3,1.1,0.8,1.5,1.5c0.2,0.9,0.1,1.8-0.6,2.5c-0.9,0.9-1.6,1.1-2.8,0.6
		c-0.9-0.4-1.5-1.2-1.5-2.3C70,64.4,70,64.2,70,63.9z"/>
	<path class="st19" d="M17.3,38.1L17.3,38.1c-0.1,0-0.2,0-0.2,0c0-0.8,0-1.6,0-2.3C17.5,36.5,17.2,37.4,17.3,38.1z"/>
</g>
</svg>
