<?xml version="1.0" encoding="utf-8"?>
<!-- Generator: Adobe Illustrator 24.2.3, SVG Export Plug-In . SVG Version: 6.00 Build 0)  -->
<svg version="1.1" id="Capa_1" xmlns="http://www.w3.org/2000/svg" xmlns:xlink="http://www.w3.org/1999/xlink" x="0px" y="0px"
	 viewBox="0 0 103.7 100.6" style="enable-background:new 0 0 103.7 100.6;" xml:space="preserve">
<style type="text/css">
	.st0{fill:#FC9368;}
	.st1{fill:#62DAFA;}
	.st2{fill:#FECDBE;}
	.st3{fill:#D7EBFD;}
	.st4{fill:#3691BB;}
	.st5{fill:#FD92BA;}
	.st6{fill:#AD6C6C;}
	.st7{fill:#B2D9FD;}
	.st8{fill:#FEAF9D;}
	.st9{fill:#FD76A7;}
	.st10{fill:#01BFF9;}
	.st11{fill:#9B5E5E;}
	.st12{fill:#0781AF;}
	.st13{fill:#04C0F9;}
</style>
<g>
	<path class="st0" d="M8.5,20.4c-0.9,0.4-1.7,0.7-2.6,1.1c-2.9,1.2-4.2,0.8-5.7-1.8c0-0.6,0-1.2,0-1.8c0.6-1.4,1.9-2.2,3.2-2.7
		c2.4-1,4.8-2.2,7.2-3.3c0.7-0.6,1.5-0.9,2.3-1.2c1.4-0.7,2.9-1.3,4.3-2c0.3-0.1,0.6-0.3,1-0.2c2.1-0.9,4.1-1.8,6.2-2.7
		c1.2-0.6,2.3-0.6,3.5-0.1c7.4,3.4,14.8,6.7,22.2,10.1c1.6,0.7,2.3,2.1,2.1,3.6c-0.3,1.6-1.3,2.6-3,2.9c-0.7,0.1-1.4-0.1-2-0.4
		c-1-0.4-2-0.9-3-1.3c-1.4-0.2-2.5-1-3.8-1.5c-0.7-0.3-1.4-0.6-2.1-0.9c-3.7-1.8-7.4-3.4-11.2-5.1c-0.5-0.3-1-0.1-1.5,0.1
		c-3.9,1.7-7.8,3.5-11.7,5.3c-1.5,0.7-2.9,1.3-4.4,2C9,20.4,8.8,20.5,8.5,20.4z"/>
	<path class="st1" d="M49.8,85.6c0.9-8.4,5.3-14.4,12.9-17.9c0.4,1.2,0.6,2.5,1.1,3.7c1.5,3.8,4,6.8,7,9.4c0.7,0.7,1.5,1.4,2.3,1.9
		c0.2,0.1,0.3,0.2,0.2,0.5c-0.5,0.5-0.7,1.1-0.7,1.8c0,2.2,0,4.4,0,6.6c0,1.4,0.3,1.7,1.7,1.7c1.5,0,3.1,0,4.6,0
		c1.1,0,1.3-0.3,1.3-1.3c0-2.5,0-4.9,0-7.4c0-0.5-0.2-1-0.5-1.4c-0.2-0.5,0.3-0.6,0.6-0.8c3.4-2.8,6.5-5.9,8.4-10
		c0.2-0.5,0.4-1,0.6-1.5c0.1-0.4,0.2-0.8,0.8-0.8c1.5,0.7,2.5,1.9,3.4,3c3.4,4,5.3,8.7,5.2,14c0,1.1,0.2,2.1-0.2,3.2
		c-0.1,0.1-0.2,0.2-0.3,0.2c-0.5,0.1-1,0.1-1.5,0.1c-1.4,0-1.6,0.2-1.6,1.6c0,2.2,0,4.4,0,6.6c0,0.5,0.1,1-0.3,1.4
		c-6.9,0-13.9,0-20.8,0c-5.3,0-10.5,0-15.8,0C58,99.9,58,99.4,58,98.9c0-2.1,0-4.2,0-6.3c0-1.5-0.3-1.8-1.8-1.8c-1.7,0-3.5,0-5.2,0
		c-1.1,0-1.2-0.2-1.2-1.2C49.8,88.2,49.7,86.9,49.8,85.6z"/>
	<path class="st2" d="M84.9,58.2c-0.7,0.4-1.5,0.8-2.2,1.2c-0.5,0.6-1.2,0.7-1.9,0.9c-2.9,0.8-5.9,0.8-8.8-0.1
		c-1.1-0.3-1.1-0.3-1.1,0.8c0,1.4,0,2.7,0,4.1c0,0.4,0,0.9-0.2,1.3c-0.4,0.1-0.4-0.1-0.2-0.4c0-1.9,0-3.9,0-5.8c0-0.6-0.1-1-0.7-1.3
		c-3.8-2.1-6.3-5.3-7.4-9.6c-0.2-0.8-0.7-1.3-1.6-1.2c-0.8,0-1.7,0-2.5,0c-2.1,0-3.6-1-4.2-2.6c-0.7-1.8-0.2-3.4,1.5-4.9
		c0.1-0.1,0.2-0.2,0.3-0.3c0.7-0.8,1.8-0.8,2.7-0.9c0.7-0.1,1.4,0,2.1,0c1.1,0,1.1-0.1,1.1-1.2c0-0.9,0-1.7,0-2.6
		c0-2.9,1.2-4.4,4.1-4.8c4.3-0.6,8.3-1.8,12.3-3.5c1.7-0.7,3.2-1.7,4.8-2.5c3.5-1.5,7.4,0.3,8.5,3.9c0.2,0.6,0.2,1.1,0.2,1.7
		c0,2.6,0,5.2,0,7.8c0,1.1,0.1,1.2,1.2,1.2c1.2,0,2.4-0.1,3.6,0.2c0.7,0.2,0.9-0.1,0.9-0.8c0-2.4,0-4.8,0-7.2c0-0.4-0.1-1,0.4-1.3
		c0.2,1.5,0.1,2.9,0.1,4.4c0,1,0,2.1,0,3.1c0,1.3,0,2.5,1.1,3.7c1.5,1.6,1,5-1.7,6.2c-0.3,0.6-0.9,0.6-1.5,0.6c-0.9,0-1.8,0-2.7,0
		c-1.1,0-1.4,0.3-1.7,1.3c-0.8,3.1-2.5,5.6-4.9,7.7C85.8,57.7,85.4,58.1,84.9,58.2z"/>
	<path class="st3" d="M8.5,20.4c3.4-1.6,6.9-3.2,10.3-4.7c2.2-1,4.4-2,6.6-3c0.4-0.2,0.8-0.4,1.3-0.1c3.8,1.8,7.6,3.5,11.4,5.2
		c0.3,0.4,0.3,0.9,0.3,1.5c0,9.9,0,19.8,0,29.7c0,0.5,0,0.9-0.3,1.4c-0.1,0-0.1,0.1-0.2,0.1c-2.2,0.3-4.4,0.4-6.6,0
		c-0.4-0.5-0.3-1.1-0.3-1.6c0-4.7,0-9.3,0-14c0-1.8-0.1-1.9-1.9-1.9c-2,0-4.1,0-6.1,0c-1.8,0-2,0.2-2,2c0,4.6,0,9.2,0,13.8
		c0,0.6,0.1,1.2-0.3,1.7c-0.4,0.3-0.8,0.3-1.3,0.3c-3.3,0-6.5,0-9.8,0c-0.5,0-1,0.1-1.3-0.3C8.5,40.3,8.5,30.4,8.5,20.4z"/>
	<path class="st4" d="M97.5,30.4c0,3,0,6,0,9c0,0.7-0.1,0.9-0.9,0.6c-1.4-0.5-2.9-0.3-4.4-0.3c-0.8,0-1-0.2-1-1c0-2.7-0.1-5.3,0-8
		c0.2-4.7-4.7-7.9-9-5.4c-5.3,3.1-11,5-17,5.8C63.2,31.4,62,32.9,62,35c0,1.3,0,2.7,0,4c0,0.5-0.2,0.7-0.7,0.7c-0.5,0-1.1,0-1.6,0
		c-1.4-0.1-2.7,0.1-3.9,0.6c0.1-3.8-0.2-7.6,0.2-11.4c0.9-7.9,7.7-15.1,15.7-16c4.6-0.5,9.2-0.9,13.6,0.9
		c7.3,2.9,11.4,8.4,12.3,16.2C97.5,30.1,97.5,30.3,97.5,30.4z"/>
	<path class="st5" d="M23.7,91.6c-2.9-2.5-5.9-5.1-8.8-7.6c-1.5-1.2-2.5-2.7-3-4.5c-0.7-3.1,0.5-6.3,3.2-8.1
		c2.6-1.8,6.1-1.7,8.6,0.1c0.4,0.3,0.8,0.6,1.2,1c1.1,0.9,1.6,1,2.7,0c0.9-0.8,1.9-1.6,3.1-1.9c2.7,1,4.3,3,4.8,5.7
		c0.6,3.2-0.5,5.8-3,7.9c-2.7,2.3-5.3,4.6-8,6.9C24.2,91.3,24,91.5,23.7,91.6z"/>
	<path class="st6" d="M31.6,50.3c2.2,0,4.4,0,6.6,0c0.2-0.2,0.5-0.3,0.7-0.3c1.5,0,3-0.1,4.5,0c0.2,0,0.5,0.1,0.6,0.3
		c1.2,0.2,2.4-0.2,3.6,0.2c-0.3,0.3-0.8,0.3-1.2,0.3c-1.3,0-2.7,0-4,0c-0.1-0.1-0.1,0.2,0,0c0,0,0,0,0.1,0c0.4,0.2,0.6,0.6,0.6,1
		c0.2,1.7,0.2,3.5,0,5.2c0,0.5-0.4,0.8-0.6,1.4c0.2-0.3,0.4-0.4,0.6-0.4c1.3,0,2.5,0,3.8,0c0.3,0,0.5,0.1,0.7,0.3
		c-1.6,0.4-3.3,0.1-4.9,0.1c-11.8,0-23.6,0-35.3,0c-0.6,0-1.1,0-1.7,0c-1.1-0.1-1.6-0.6-1.6-1.7c0-1.6,0-3.2,0-4.8
		c0-1.1,0.6-1.6,1.7-1.7c1,0,1.9,0,2.9,0c4.1,0,8.2,0,12.3,0c0.4-0.4,0.9-0.3,1.3-0.3c2.7,0,5.4,0,8,0C30.7,50,31.2,50,31.6,50.3z"
		/>
	<path class="st7" d="M44,50.3c-2,0-3.9,0-5.9,0c0-10.8,0-21.7,0-32.5c2,0.8,3.9,1.7,5.8,2.6C44,30.4,44,40.3,44,50.3z"/>
	<path class="st1" d="M70.4,66c0.1,0.2,0.1,0.3,0.2,0.5c0.3,0.2,0.2,0.5,0.3,0.7c0.4,3,2.6,5.1,5.5,5.2c2.8,0.1,5-1.6,5.9-4.4
		c0.1-0.4,0.1-0.9,0.4-1.2c0.5-0.3,1,0,1.5,0.2c1.1,0.4,2.2,0.7,3.1,1.4c0.1,0.1,0.1,0.2,0.1,0.3c-0.5,2.8-2,5.2-3.8,7.3
		c-1.7,2.1-3.7,3.8-5.8,5.4c-1,0.8-1.3,0.8-2.3,0.1c-3.1-2.4-6-5.1-8.1-8.5c-1.1-1.9-1.7-3.9-2.1-6.1C67,66.3,68.7,66,70.4,66z"/>
	<path class="st8" d="M82.7,66.6c-0.3,3.2-2.3,5.5-5.2,5.9c-3.8,0.5-6.9-2.2-6.9-6c0-2.1,0-4.2,0-6.3c0-0.5,0-0.8,0.6-0.5
		c3.6,1.4,7.2,1.4,10.8,0c0.2-0.1,0.4-0.1,0.7-0.2c0,2.2,0,4.4,0,6.6C82.9,66.2,82.9,66.4,82.7,66.6z"/>
	<path class="st9" d="M23.7,91.6c1.3-1.4,2.8-2.5,4.2-3.8c2-1.9,4.5-3.4,6.2-5.7c2.8-3.8,1.2-9.2-2.7-11.1c-0.2-0.1-0.5-0.2-0.6-0.5
		c3.2-1.2,7,0.1,8.9,3.2c1.9,3,1.5,7.1-1,9.4c-3.7,3.4-7.6,6.7-11.5,10c-0.6,0.5-1.2,0.5-1.8,0C24.8,92.6,24.2,92.1,23.7,91.6z"/>
	<path class="st4" d="M65.4,66.8c0.3,0.1,0.4,0.2,0.4,0.5c0.4,3.6,2.3,6.5,4.7,9.1c1.6,1.8,3.5,3.4,5.5,4.9c0.5,0.4,0.8,0.4,1.3,0
		c3.3-2.5,6.3-5.3,8.5-8.9c0.7-1.3,1.1-2.6,1.6-4c1.2,0.1,2,0.9,2.8,1.5c0.1,0.1,0,0.2,0,0.3c-0.7,1.6-1.3,3.2-2.3,4.7
		c-1.9,3-4.5,5.5-7.2,7.8c-0.2,0.2-0.5,0.2-0.7,0.3c-0.3,0.2-0.6,0.3-0.9,0.3c-1.5,0-3.1,0-4.6,0c-0.3,0-0.7,0-0.9-0.3
		c-1.2-0.2-1.8-1.2-2.6-1.9c-3.5-3.1-6.3-6.6-7.7-11.2c-0.2-0.7-0.4-1.5-0.4-2.3C63.6,67.3,64.5,67,65.4,66.8z"/>
	<path class="st4" d="M84.9,58.2c0.5-0.5,1.1-0.9,1.6-1.4c2.1-1.9,3.6-4.3,4.3-7.1c0.4-1.3,0.7-1.5,2-1.6c1.4,0,2.8,0.3,4.2-0.3
		c2.5,3.5,2.2,8.1-0.9,10.8C93,61.3,88.1,61.4,84.9,58.2z"/>
	<path class="st10" d="M90.2,70.3c0-0.1,0-0.1,0-0.2c-0.2-0.9,0.1-1.6,0.5-2.3c8.3,3.9,12.6,10.4,12.9,19.6c0,1,0,2.1,0,3.1
		c-0.2,0.2-0.5,0.3-0.8,0.3c-1.1,0-2.1,0-3.2,0c-0.3,0-0.6-0.1-0.8-0.4c0-3.2,0.1-6.5-1-9.6C96.2,76.5,93.8,73,90.2,70.3z"/>
	<path class="st3" d="M49.8,85.6c0,1.2,0,2.3,0,3.5c0,1.3,0,1.3,1.4,1.3c1.7,0,3.5,0,5.2,0c1.6,0,1.9,0.2,1.9,1.9c0,2.6,0,5.3,0,7.9
		c-2,0-4.1,0-6.1,0c-1.9,0-2.5-0.4-2.5-2.2c-0.1-4.1,0-8.2,0-12.3C49.7,85.8,49.8,85.7,49.8,85.6z"/>
	<path class="st1" d="M18.2,8.4c-2.5,1.2-5,2.4-7.6,3.4c0-3.4,0-6.8,0-10.2c0-1.2,0.1-1.3,1.3-1.3c1.6,0,3.3,0,4.9,0
		c0.9,0,1.3,0.3,1.3,1.2C18.2,3.8,18.2,6.1,18.2,8.4z"/>
	<path class="st7" d="M98.7,90.4c1.6,0,3.2,0,4.8,0c0,2.7,0,5.5,0,8.2c0,1.1-0.6,1.7-1.7,1.7c-1.4,0-2.7,0-4.1,0
		c1-1.6,0.6-3.4,0.7-5.1c0-1.2,0-2.4,0-3.6c0-0.4,0-0.8,0.3-1.1C98.7,90.4,98.7,90.4,98.7,90.4z"/>
	<path class="st11" d="M47.5,58.4c-1.8,0-3.5,0-5.2,0c0.8-2.7,0.8-5.2,0.1-7.9c1.7,0,3.5,0,5.3,0c0.6,0.2,0.8,0.6,0.9,1.1
		c0.2,1.9,0.1,3.7,0,5.6C48.5,57.8,48.1,58.3,47.5,58.4z"/>
	<path class="st3" d="M98.6,90.5c0,2.6,0,5.1,0,7.7c0,0.9-0.2,1.6-1,2.1c-0.9,0-1.8,0-2.7,0c0-2.8,0-5.6,0-8.3
		c0-1.3,0.2-1.5,1.5-1.5C97.2,90.4,97.9,90.5,98.6,90.5z"/>
	<path class="st12" d="M90.6,67.7c0,0.8-0.3,1.6-0.5,2.3c-0.9-0.5-1.9-1.1-2.8-1.6c0,0,0,0,0,0c-0.3-0.6-0.2-1.2,0.3-1.8
		C88.6,66.9,89.6,67.3,90.6,67.7z"/>
	<path class="st13" d="M87.6,66.7c-0.1,0.6-0.2,1.2-0.3,1.8c-1.4-0.8-3-1.3-4.6-1.8c0-0.2,0-0.4,0-0.6C84.4,66,86,66.2,87.6,66.7z"
		/>
	<path class="st3" d="M73.4,83c2.2,0,4.3,0,6.5,0c0.6,0.3,0.8,0.8,0.8,1.5c0,2.6,0,5.2,0,7.7c0,1.1-0.3,1.4-1.5,1.4
		c-1.8,0-3.6,0-5.3,0c-1,0-1.5-0.4-1.5-1.5c0-2.6,0-5.2,0-7.7C72.4,83.7,72.8,83.3,73.4,83z"/>
	<path class="st4" d="M31.6,50.3c-3.6,0-7.1,0-10.7,0c0-5.4,0-10.8,0-16.2c0-1.2,0.3-1.5,1.5-1.5c2.6,0,5.2,0,7.8,0
		c1.2,0,1.5,0.3,1.5,1.5C31.6,39.5,31.6,44.9,31.6,50.3z"/>
</g>
</svg>
