<?xml version="1.0" encoding="utf-8"?>
<!-- Generator: Adobe Illustrator 24.2.3, SVG Export Plug-In . SVG Version: 6.00 Build 0)  -->
<svg version="1.1" id="Capa_1" xmlns="http://www.w3.org/2000/svg" xmlns:xlink="http://www.w3.org/1999/xlink" x="0px" y="0px"
	 viewBox="0 0 92.7 100.6" style="enable-background:new 0 0 92.7 100.6;" xml:space="preserve">
<style type="text/css">
	.st0{fill:#3B3D4C;}
	.st1{fill:#F68D39;}
	.st2{fill:#E17727;}
	.st3{fill:#5C5E70;}
	.st4{fill:#E2F3FB;}
	.st5{fill:#FEC38E;}
	.st6{fill:#34AADF;}
	.st7{fill:#CBCBCB;}
	.st8{fill:#4BC898;}
	.st9{fill:#E5E5E5;}
	.st10{fill:#BCD8E4;}
	.st11{fill:#E4995C;}
	.st12{fill:#1895B6;}
	.st13{fill:#424454;}
	.st14{fill:#3AAE80;}
</style>
<g>
	<path class="st0" d="M87.1,88.5c1.2,0,2.5,0,3.7,0c1,0,1.6,0.5,1.6,1.3c0,0.8-0.6,1.2-1.6,1.2c-2.4,0-4.8,0-7.2,0
		c-0.3,0.1-0.5,0-0.7-0.1c-2-1.2-3.9-1.1-5.8,0.1c-0.1,0.1-0.3,0.1-0.4,0.2c-0.7,0.1-1.4,0.1-2.1,0.1c-1.2-0.1-2,0.3-2.7,1.3
		c-2.8,3.7-6.5,6.1-11,7.3c-0.9,0.2-1.9,0.2-2.8,0.4c-1.6,0-3.1,0-4.7,0c-0.7-0.4-1.5-0.4-2.2-0.6c-7.7-1.8-13.8-8.5-15-16.1
		c-1.2-8.3,2.5-16.3,9.5-20.4c0.1-0.1,0.3-0.1,0.4-0.2c0.3,0.2,0.3,0.6,0.3,0.9c0,1.6,0.1,3.3,0,4.9c-0.1,0.6-0.5,0.9-0.9,1.3
		c-5.3,5.1-5.7,13.7-1.2,19.2c3.9,4.8,9,6.7,14.9,5.3c6.1-1.5,9.9-5.5,11-11.7c1.5-8.2-4.2-15.9-12.5-17c-0.6-0.1-1.2,0-1.8-0.1
		c-0.4,0-0.8,0-1.1-0.3c-0.4-1.5-0.2-3.1-0.1-4.6c0-0.7,0.7-0.7,1.2-0.7c2.7-0.1,5.3,0.5,7.8,1.5c2.5,1.1,4.8,2.6,6.7,4.5
		c2.2,2.5,4,5.3,4.9,8.5c0.1,0.5,0.3,1,0.4,1.6c0.9,3.7,0.4,7.4-0.8,11c-0.3,0.9-0.3,0.9,0.7,0.9c1.7,0,3.5,0,5.2,0
		c0.8,0,1.6,0,2.3,0c1,0,2,0,3,0C86.4,88.2,86.8,88.2,87.1,88.5z"/>
	<path class="st0" d="M22,100.2c-1-0.5-2-0.8-2.7-1.7c-0.8-1-1.3-2-1.2-3.3c-0.2-2.6-0.1-5.3-0.1-7.9c0-6.4,0-12.7,0-19.1
		c0-0.2,0.1-0.4-0.1-0.5c0.3,0.2,0.1,0.6,0.1,0.8c0,6,0,12,0,18c0,0.4,0.2,0.8-0.3,1c-3.2,2.4-6.4,4.8-9.6,7.1c-2.3,1.6-5.4,1-7-1.3
		c-1.6-2.2-1.2-5.3,1-7c2.7-2.1,5.5-4.1,8.3-6.1c0.5-0.3,0.7-0.7,0.9-1.3c1.2-4.3,2.4-8.6,3.6-12.8c0.2-0.6,0.1-1.1-0.3-1.7
		c-1.3-1.6-2-3.5-2.1-5.6c-0.2-0.5,0-0.8,0.6-0.9c0.1,0,0.1,0,0.2,0c3.4,0,2.8-0.3,3.4,2.4c0.5,2.5,1.9,4.5,4,5.9
		c0.9,0.6,1.2,1.3,1.2,2.4c0,8.3,0,16.6,0,24.9c0,2.3,0.5,4.3,2.5,5.6c0.2,0.1,0.5,0.4,0.1,0.7c-0.1,0.1-0.3,0-0.4,0.2
		C23.5,100.2,22.8,100.2,22,100.2z"/>
	<path class="st1" d="M36.5,0.2c0.7,0.4,1.4,0.5,2,1.1c1.5,1.2,2.2,3.4,1.6,5.4c-0.6,2-1.9,3.1-4,3.3c-2.6,0-5.1,0.6-7.7,0.5
		c-2.6-0.1-5.2,0-7.8,0c-0.5,0-0.9,0-1.4-0.1c-0.2-0.1-0.4-0.2-0.3-0.4c0.6-0.9,0.6-1.9,0.9-2.9c1-2.9,2.9-4.9,5.6-6.2
		c1-0.5,2.1-0.5,3.2-0.7C31.3,0.2,33.9,0.2,36.5,0.2z"/>
	<path class="st2" d="M28.7,0.2c-1.4,0.5-2.9,0.7-4.2,1.6c-2.6,1.6-4.1,3.9-4.8,6.9c-0.1,0.6-0.2,1.2-0.8,1.5
		c0.5,2.2,0.5,4.4-0.6,6.5c-0.8,1.3-1.9,2.2-3.3,2.8c-0.4,0.2-0.9,0.3-1.3,0.3c-0.9,0-1.1-0.1-1.1-1c0-2.9-0.1-5.8,0.1-8.7
		c0.2-4.7,3.6-8.6,8.3-9.7c0.2,0,0.4,0,0.5-0.2C23.9,0.2,26.3,0.2,28.7,0.2z"/>
	<path class="st3" d="M76.5,91.1c1.1-0.7,2.3-1.3,3.7-1.2c1.3,0,2.3,0.6,3.4,1.2c1.1,1.3,1.9,2.8,1.6,4.6c-0.4,2.3-1.6,3.7-3.9,4.4
		c-0.1,0-0.3,0-0.3,0.2c-0.7,0-1.4,0-2.1,0c-3.4-0.5-5.7-4.8-3.4-8.3C75.8,91.6,76.1,91.3,76.5,91.1z"/>
	<path class="st4" d="M70.3,66.5c-2.8-2.7-6-4.7-9.8-5.6c-1.6-0.4-3.3-0.6-4.9-0.5c-0.5,0-0.7,0.1-0.7,0.7c0,1.5,0,2.9,0,4.4
		c0.3,0.8,0.8,1.5,1.4,2c1.2,1.1,2.3,2.3,3.5,3.4c1.9,2,1.5,5.3-0.8,6.8c-0.2,0.1-0.3,0.2-0.5,0.2c-0.6-0.2-1-0.6-1.4-1
		c-1.7-1.7-3.3-3.3-5-5c-0.9-0.9-1.5-1.9-1.7-3.1c-0.1-4.1-0.1-8.2,0-12.3c0.1-3.2,1.8-5.7,4.1-7.8c1.7-1.6,3.8-2.7,6.1-3.4
		c0.5,0.1,1.1,0.3,1.6,0.4c0.8,0,1.5,0,2,0.8c-0.2,0.3,0.2,0.3,0.3,0.4c3.9,2.5,6,5.9,6,10.6c0,2.2,0,4.5,0,6.7c0,0.5,0.1,0.9,0.6,1
		C70.6,65.6,70.6,66.1,70.3,66.5z"/>
	<path class="st3" d="M24.6,100c0.1-0.1,0.1-0.3-0.1-0.4c-2.1-1.1-2.8-2.9-2.8-5c0-8.6,0-17.3,0-25.9c0-0.7-0.2-1.2-0.8-1.7
		c-2.5-1.7-4.1-4.1-4.5-7.2c-0.2-1.4-0.2-1.4-1.6-1.4c-0.5,0-1,0-1.5,0c-0.5,0-0.6,0.2-0.6,0.6c-0.1-0.3-0.2-0.5,0-0.8
		c0.5-0.5,1.2-0.3,1.8-0.3c0.6,0,1.2,0,1.8,0c3,0,6-0.1,8.9,0c0.4,0.1,0.7,0.3,1,0.6c1.4,1.6,3.2,1.7,5.2,1.4c0.7-0.1,1.5-0.5,2.2,0
		c-0.5,3-2,5.4-4.5,7.1c-0.6,0.4-0.8,0.8-0.8,1.5c0,8.7,0,17.5,0,26.2C28.3,97.4,27,99.2,24.6,100z"/>
	<path class="st5" d="M18.1,16.6c1.1-2,0.7-4.2,0.8-6.4c5.7-0.1,11.5,0.1,17.2-0.2c-0.9,0.4-1.9,0-2.9,0.2c0.6,0.7,1.1,1.3,1.6,1.9
		c5.3,7,1.8,17.2-6.7,19.5c-0.2,0.1-0.5,0.1-0.8,0.2c-5.7-1.2-9.7-6.7-9.6-12.2C17.9,18.6,17.7,17.6,18.1,16.6z"/>
	<path class="st6" d="M25.4,58.3c-3.1,0-6.1,0-9.2-0.1c-0.3-0.3-0.3-0.8-0.3-1.2c0-4.8,0-9.6,0-14.4c0-4.6,3-8.6,7.3-10.2
		c0.3-0.1,0.7-0.2,1-0.4c0.2-0.1,0.4-0.1,0.6,0.1c1.4,0.4,2.7,0.8,4,1.6c3.2,2.1,4.8,5,5,8.8c0.1,2.3,0,4.7,0,7
		c-0.7,0.7-1.8,0.7-2.3,0c-0.5-0.6-0.9-1.2-1.4-1.8c-0.4-0.6-0.8-0.6-1.3-0.2c-1.6,1.3-3.3,2.5-4.9,3.7c-0.2,0.2-0.5,0.4-0.8,0.4
		c-0.1,0-0.2,0-0.3,0c-0.8-0.8-1.3-1.7-2-2.6c-0.3-0.4-0.5-0.7-1-0.3c-0.5,0.4-0.6,0.7-0.2,1.2c0.7,0.9,1.4,1.8,2,2.7
		c1.1,1.5,2.3,3,3.4,4.5C25.2,57.5,25.5,57.8,25.4,58.3z"/>
	<path class="st7" d="M55.8,38.1c-4.4,2.2-9.6-0.6-9.9-5.5c-0.3-4.3,3.4-8,8.1-7.1c0.8,0.2,1.1,0.1,1.4-0.8c1.7-5.6,7.1-9.2,13-8.7
		c1.4,0.1,2.7,0.5,4,1.1c0,0.5-0.5,0.5-0.8,0.7c-3.3,1.7-6.2,3.9-8.1,7.2c-1.6,2.8-2.2,5.8-1.8,9c0,0.4,0.1,0.7,0,1.1
		c0,0.1-0.1,0.2-0.2,0.2c-1.6,0.2-3-0.6-4.4-1.3c-0.4-0.2-0.7-0.5-1.2-0.6c-0.1,1.2-0.1,2.3,0.1,3.4C55.9,37.2,56.2,37.7,55.8,38.1z
		"/>
	<path class="st5" d="M80.3,34.6c-0.2,6.3-4.3,11-10.5,12.2c-0.9,0.2-1.9,0.4-2.9,0.1c0.4-0.4-0.2-0.4-0.3-0.6
		c-3.5-2.7-5.1-6.2-5.2-10.6c0-0.2,0-0.4,0.1-0.6l0-0.1c1-0.2,2,0,3.1-0.2c5.3-0.9,8.7-3.8,10.3-8.9c0.1-0.4,0.2-0.8,0.4-1.2
		c0.8-0.3,1.1,0.5,1.6,0.9c2,2.2,3.2,4.7,3.5,7.6C80.5,33.8,80.5,34.2,80.3,34.6z"/>
	<path class="st8" d="M70.3,66.5c0.2-0.4-0.4-1.2,0.6-1.3c2.6,0.5,5.2,0.9,7.9,1.4c1.7,0.3,2.9,1.2,3.6,2.8
		c1.9,4.7,3.7,9.5,5.6,14.2c0.7,1.8,0.4,3.4-0.8,4.8c-1.4,0-2.8,0-4.1,0c-0.7-0.3-0.9-0.9-1.2-1.5c-1.2-3.1-2.5-6.2-3.7-9.3
		c-0.5-1.3-1.2-2.3-2.7-2.7c-0.2,0-0.3-0.1-0.4-0.3C74.1,71.7,72.4,68.9,70.3,66.5z"/>
	<path class="st9" d="M75.4,24.8c-1,5.3-4.5,9.1-9.8,10.2c-1.3,0.3-2.7,0.5-4,0.1c-0.3-2.3-0.3-4.6,0.3-6.9c1.2-4.3,4.1-7.3,7.8-9.5
		c0.9-0.6,1.9-1,2.8-1.5c0.8,0.3,1.5,1,2.4,1.2C75.8,20.5,76.3,22.6,75.4,24.8z"/>
	<path class="st5" d="M23,51.6c2-1.5,4.1-3.1,6.1-4.6c0.3-0.3,0.5-0.2,0.8,0.1c0.4,0.5,0.8,1,1.2,1.6c1,1.3,1,1.3,2.7,0.8
		c1.9-0.1,3.7-0.4,5.6-0.8c2.9-0.5,5.3,0.7,6.3,3.2c0,0.1,0,0.2,0,0.3c-0.3,1.7-1.9,3.1-4,3.5c-1.8,0.3-3.5,0.5-5.3,0.8
		c-1.7,0.2-3.5,0.5-5.2,0.8c-2.3,0.3-4.3-0.2-5.8-2.1c-0.7-0.9-1.4-1.9-2.1-2.8C23.1,52.2,22.9,51.9,23,51.6z"/>
	<path class="st10" d="M50.6,69c0.4,1.3,1.2,2.3,2.1,3.2c1.9,1.8,3.8,3.7,5.7,5.6c0.1,0.4-0.2,0.5-0.5,0.7c-1.3,0.3-2.5,0.3-3.7-0.3
		c-2.5-2.2-4.9-4.7-7.2-7.1c-0.5-0.5-0.9-1.2-0.8-2c0-2,0-4,0-6.1c0-0.1,0-0.1,0-0.2c0.2-1.5,0.1-3,0.1-4.5c0-0.8,0.3-1.1,1.1-1.1
		c0.7,0,1.5,0,2.2,0c0.7,0,1,0.3,1,1.1c-0.1,3.4,0,6.8-0.1,10.2C50.4,68.6,50.4,68.8,50.6,69z"/>
	<path class="st11" d="M23,51.6c0.9,1.2,1.8,2.5,2.7,3.6c1.3,1.6,3,2.1,5,1.8c3.3-0.5,6.6-1.1,10-1.5c2.3-0.3,3.9-1.4,5-3.4
		c1,2.8-0.8,6.2-4.5,6.6c-2.5,0.3-5.1,0.6-7.6,1.2c-1.2,0.1-2.4,0.3-3.5,0.4c-1.7,0.2-3.1-0.5-4.2-1.7c-0.1-0.1-0.3-0.2-0.4-0.4
		c-1-1.7-2.3-3.1-3.4-4.6c-0.2-0.3-0.4-0.6-0.6-0.9c0.2-0.7,0.8-1,1.4-1.1C22.9,51.6,23,51.6,23,51.6z"/>
	<path class="st11" d="M24.8,32.1c-0.2,0-0.4,0-0.6,0c-0.4,0.2-0.8,0.3-1.2-0.1c-2.3-0.6-4.4-1.4-6.2-3.1c-2.4-2.2-3.8-4.9-4.2-8.1
		c-0.3-3.3-0.1-6.6-0.2-9.9c0-0.3,0-0.6,0.2-0.9c0,2.8,0,5.5,0,8.3c0,1.2,0.3,1.4,1.4,1.1c1.5-0.4,2.7-1.2,3.6-2.4
		c0.1-0.2,0.2-0.3,0.4-0.4c0.1,2-0.1,4,0.4,5.9c1.2,4.4,3.8,7.3,8,8.9c0.3,0.1,0.7,0.1,1,0.4C26.6,32,25.7,32,24.8,32.1z"/>
	<path class="st9" d="M80.3,34.6c-0.1-3.4-1.3-6.3-3.5-8.8c-0.1-0.1-0.1-0.3-0.1-0.5c0.8-1.6,1.6-3.2,3.2-4.2c0.9-0.6,1.8-0.4,2.8,0
		C86.2,25.1,85.4,31.8,80.3,34.6z"/>
	<path class="st11" d="M61.5,35.2c0.2,1.1,0.2,2.3,0.5,3.4c0.7,3.3,2.5,5.9,5.3,7.8c0.1,0.1,0.2,0.2,0.4,0.3c-0.3,0-0.5,0.1-0.7,0.1
		c-1,0-1.9-0.3-2.9-0.4c-0.6-0.4-1.3-0.4-2-0.8c-1.8-1.2-3.5-2.5-4.7-4.4c-0.6-1-1.1-2.1-1.6-3.2c-0.4-1.7-0.5-3.4-0.3-5.3
		C57.4,34.1,59.3,35,61.5,35.2z"/>
	<path class="st10" d="M50.6,69c-0.3,0-0.4-0.2-0.3-0.5c0.3-3.5,0.1-6.9,0.2-10.4c0-0.5-0.2-0.7-0.7-0.7c-0.9,0-1.8,0-2.7,0
		c-0.6,0-0.7,0.2-0.7,0.8c0,1.2,0,2.4,0,3.6c0,0.3,0.1,0.7-0.2,0.9c0.1-2.7-0.3-5.3,0.3-7.9c1.2-5.3,5.1-8.7,10.4-9.5
		c1.3-0.2,2.4,0,3.7,0.1c0.2,0.5-0.2,0.3-0.4,0.4c-3.9,1.3-6.9,3.6-8.7,7.4c-0.6,1.2-0.9,2.5-0.9,3.8C50.6,61,50.6,65,50.6,69z"/>
	<path class="st7" d="M82.6,21.1c0,0-0.1,0.1-0.1,0.1c-2.1-0.7-3.3,0.4-4.3,1.9c-0.6,0.8-1.1,1.7-1.4,2.6c-0.5-0.3-0.8-0.8-1.3-1
		c0.5-2.2-0.1-4.3-0.6-6.4C77.8,18.1,80.4,18.9,82.6,21.1z"/>
	<path class="st12" d="M23,32c0.4,0,0.8,0,1.2,0.1c0.1,0.2,0,0.3-0.2,0.4c-3.3,1-5.7,3.1-7,6.2c-0.5,1.2-0.8,2.4-0.8,3.7
		c0,5.3,0,10.5,0,15.8c-1.2,0-2.4,0-3.6,0c0-3-0.1-5.9-0.1-8.9c0-2.6-0.1-5.1,0.1-7.7c0.4-5.3,4.8-9.5,10.1-9.6
		C22.8,32,22.9,32,23,32z"/>
	<path class="st13" d="M17.7,87.6c0.3-0.4,0.2-0.8,0.2-1.2c0-5.9,0-11.8,0-17.8c0-0.3-0.1-0.7,0.1-1.2c0,0.3,0,0.5,0,0.7
		c0,8.9,0,17.7,0,26.6c0,0.2,0,0.3,0,0.5c-0.2-2.2,0-4.4-0.1-6.6C18,88.3,18.2,87.8,17.7,87.6z"/>
	<path class="st9" d="M58,78.4c0-0.3,0.3-0.4,0.4-0.6c2.9-1.4,2.9-5,1.3-6.6c-1.4-1.4-2.8-2.8-4.2-4.2c-0.5-0.4-0.7-0.9-0.6-1.5
		c3.7-0.1,7.1,0.8,10.1,3.2c4.7,3.6,6.7,9.8,5.2,15.5c-1.5,5.7-6.4,10.1-12,10.9c-6.8,0.9-13-2.4-15.8-8.3c-2.9-6.1-1.4-13,3.8-17.6
		c0.4,1.2,1.2,2.1,2.1,3c2,1.9,3.9,3.8,5.8,5.7c0.1,0.1,0.1,0.2,0.1,0.3c0.1,0.3-0.2,0.5-0.3,0.8C53,79.9,53,81,53.9,81.9
		c0.8,0.9,2.3,1.1,3.3,0.5c1-0.6,1.4-1.8,1-3.1C58.1,79,57.8,78.7,58,78.4z"/>
	<path class="st14" d="M80.6,88.5c-1.7-3.1-2.7-6.5-4.1-9.8c-0.4-0.9-0.6-1.9-1.2-2.7c-0.1-0.4-0.2-0.8-0.3-1.2
		c1.5,0.1,2.6,0.9,3.1,2.3c1.3,3.3,2.6,6.6,4,9.9c0.2,0.5,0.5,1,0.9,1.4C82.2,88.5,81.4,88.5,80.6,88.5z"/>
	<path class="st0" d="M80,93.8c0.8,0,1.4,0.7,1.3,1.3c-0.1,0.8-0.6,1.2-1.3,1.2c-0.6,0-1.3-0.8-1.2-1.4C78.9,94.2,79.3,93.7,80,93.8
		z"/>
	<path class="st12" d="M22.8,51.6c-0.5,0.4-0.9,0.8-1.4,1.1c-0.7-1-1.5-2-2.2-2.9c-0.4-0.4-0.3-0.8,0.2-1c0.4-0.2,0.7-1.1,1.4-0.2
		C21.4,49.6,22.3,50.5,22.8,51.6z"/>
	<path class="st3" d="M58,78.4c1.6,2.1,0.2,4.6-1.9,4.7c-1.2,0.1-2.3-0.5-2.8-1.5c-0.6-1.1-0.4-2.2,0.4-3.2c0.1-0.1,0.3-0.3,0.4-0.4
		C55.3,78.4,56.7,78.3,58,78.4z"/>
</g>
</svg>
