<?xml version="1.0" encoding="utf-8"?>
<!-- Generator: Adobe Illustrator 24.2.3, SVG Export Plug-In . SVG Version: 6.00 Build 0)  -->
<svg version="1.1" id="Capa_1" xmlns="http://www.w3.org/2000/svg" xmlns:xlink="http://www.w3.org/1999/xlink" x="0px" y="0px"
	 viewBox="0 0 290.6 201.3" style="enable-background:new 0 0 290.6 201.3;" xml:space="preserve">
<style type="text/css">
	.st0{fill:#89AFDD;}
	.st1{fill:#1D1D1B;}
	.st2{fill:#F9C18D;}
	.st3{fill:#F7CC7F;}
	.st4{fill:#F1906A;}
	.st5{fill:#EE745A;}
	.st6{fill:#BA7D64;}
	.st7{fill:#E2975C;}
	.st8{fill:#95CCAF;}
	.st9{fill:#79C199;}
	.st10{fill:none;stroke:#1D1D1B;stroke-width:2;stroke-linecap:round;stroke-linejoin:round;stroke-miterlimit:10;}
	.st11{fill:#FFFFFF;}
	.st12{fill:#3690BB;}
	.st13{fill:#3C8F7C;}
	.st14{fill:#9EBEE5;}
	.st15{clip-path:url(#SVGID_2_);}
	.st16{fill:#133759;}
	.st17{fill:#F19283;}
	.st18{fill:#C14C31;}
	.st19{fill:#F3A290;}
	.st20{fill:none;}
	.st21{clip-path:url(#SVGID_4_);}
	.st22{fill:#BE7154;}
	.st23{fill:#A75E42;}
	.st24{clip-path:url(#SVGID_6_);}
	.st25{fill:#A2583C;}
	.st26{fill:#184655;}
	.st27{clip-path:url(#SVGID_8_);}
	.st28{fill:#476EB4;}
	.st29{fill:#F08B7F;}
	.st30{clip-path:url(#SVGID_10_);}
	.st31{clip-path:url(#SVGID_12_);}
	.st32{fill:#9AD1C5;}
	.st33{fill:#56BAA3;}
	.st34{fill:#F4A392;}
	.st35{clip-path:url(#SVGID_14_);}
	.st36{fill:#8DA5D1;}
	.st37{fill:#0E2E35;}
	.st38{clip-path:url(#SVGID_16_);}
	.st39{fill:#FADFAE;}
	.st40{fill:#95482A;}
	.st41{clip-path:url(#SVGID_18_);}
	.st42{fill:#B85742;}
</style>
<g>
	<g>
		<g>
			<path class="st0" d="M344.2,996.3c-0.6,0-1-0.4-1-1v-56.8c0-0.6,0.4-1,1-1h3.9c0.6,0,1,0.4,1,1v56.8c0,0.6-0.4,1-1,1H344.2z"/>
			<path class="st1" d="M348.1,938.5v56.8h-3.9v-56.8H348.1 M348.1,936.5h-3.9c-1.1,0-2,0.9-2,2v56.8c0,1.1,0.9,2,2,2h3.9
				c1.1,0,2-0.9,2-2v-56.8C350.1,937.4,349.2,936.5,348.1,936.5L348.1,936.5z"/>
		</g>
		<g>
			<g>
				<path class="st2" d="M404.1,1001.6c-0.4,0-0.8-0.3-0.9-0.7c-0.3-0.9-1.6-5.4-1-7.2c0.2-0.4,0.3-0.9,0.4-1.3
					c0.4-2.3-0.1-9-0.3-11.5c0-0.3,0.1-0.6,0.3-0.8c0.2-0.2,0.4-0.2,0.7-0.2c0.1,0,0.1,0,0.2,0l7.1,1.6c0.4,0.1,0.8,0.5,0.8,0.9
					c0.1,3.6,0.7,7.9,1.5,8.7c1,1.1,2,1.9,2.8,2.3l0.4,0.3c0.4,0.2,1.2,0.7,1.4,0.8c4.8,2.1,6.2,2.9,7.8,4c0.7,0.5,1.8,1.3,1.5,2.3
					c-0.1,0.4-0.5,0.9-1.5,0.9L404.1,1001.6z"/>
				<path class="st1" d="M403.2,980.8l7.1,1.6c0,0,0.2,7.8,1.8,9.4c0.9,1,2,1.9,3.1,2.5c0.4,0.2,1.6,0.9,1.9,1.1
					c4.9,2.2,6.1,2.9,7.7,3.9c0.9,0.6,1.7,1.3,0.6,1.3l0,0l-21.1-0.1c0,0-1.6-5-1-6.6c0.2-0.5,0.4-1,0.4-1.4
					C404.1,989.7,403.2,980.8,403.2,980.8 M403.2,978.8c-0.5,0-1,0.2-1.3,0.5c-0.5,0.4-0.7,1.1-0.7,1.7c0.3,3.3,0.7,9.3,0.3,11.2
					c-0.1,0.3-0.3,0.9-0.4,1.1c-0.7,2,0.4,6.2,1,7.8c0.3,0.8,1,1.4,1.9,1.4l21.1,0.1c1.9,0,2.4-1.2,2.5-1.6c0.5-1.7-1.1-2.9-1.9-3.4
					c-1.7-1.2-3.1-1.9-8-4.1c-0.2-0.1-0.9-0.5-1.3-0.7l-0.4-0.3c-0.7-0.4-1.6-1.2-2.6-2.2c-0.5-0.7-1.1-4.5-1.2-8.1
					c0-0.9-0.7-1.7-1.6-1.9l-7.1-1.6C403.5,978.8,403.4,978.8,403.2,978.8L403.2,978.8z"/>
			</g>
			<g>
				<path class="st3" d="M422.6,1002.9c-7.2,0-11.4-0.3-14.8-0.5c-2.1-0.1-3.8-0.3-5.7-0.3c-0.4,0-0.7-0.2-0.9-0.5
					c-0.9-1.3,1-7.9,1-7.9c0.1-0.3,0.3-0.5,0.5-0.6c0.1-0.1,0.3-0.1,0.4-0.1s0.2,0,0.3,0.1c1.2,0.5,3.3,1,5.9,1
					c1.8,0,3.6-0.2,5.5-0.7c0.1,0,0.2,0,0.2,0c0.2,0,0.3,0,0.5,0.1c0.1,0,0.9,0.4,1.7,0.7c7.2,2.8,9.9,4.1,10.6,4.8
					c0.6,0.7,0.7,2.2,0.3,3c-0.2,0.5-0.7,0.8-1.2,0.8C425.5,1002.9,424,1002.9,422.6,1002.9L422.6,1002.9z"/>
				<path class="st1" d="M403.1,994c1.4,0.5,3.6,1.1,6.3,1.1c1.7,0,3.6-0.2,5.8-0.8c0.4,0.2,11.1,4.2,12.1,5.3
					c0.4,0.4,0.4,2.2-0.1,2.2c-1.6,0-3.1,0-4.5,0c-11.7,0-15.7-0.8-20.5-0.8C401.4,1001.1,402.5,995.6,403.1,994 M403.1,992
					c-0.3,0-0.6,0.1-0.8,0.2c-0.5,0.2-0.9,0.6-1,1.1c0,0.1-2.2,7-0.9,8.9c0.4,0.6,1,0.9,1.7,0.9c1.8,0,3.5,0.1,5.6,0.3
					c3.4,0.2,7.7,0.5,14.9,0.5c1.4,0,3,0,4.5,0c0.9,0,1.7-0.6,2.1-1.4c0.4-1,0.5-3-0.5-4.1c-0.7-0.8-2.5-1.8-11-5.1
					c-0.7-0.3-1.5-0.6-1.7-0.7c-0.3-0.1-0.6-0.2-0.9-0.2c-0.2,0-0.3,0-0.5,0.1c-1.8,0.5-3.6,0.7-5.3,0.7c-2.5,0-4.4-0.5-5.6-0.9
					C403.6,992,403.3,992,403.1,992L403.1,992z"/>
			</g>
			<g>
				<path class="st2" d="M436.5,984.7c-0.3,0-0.5-0.1-0.7-0.3c-0.6-0.7-3.8-4.2-4-6.2c-0.1-0.5-0.1-1-0.2-1.3
					c-0.6-2.2-4-8.2-5.3-10.3c-0.2-0.3-0.2-0.6-0.1-0.9c0.1-0.3,0.4-0.5,0.7-0.6l7.1-1.4c0.1,0,0.1,0,0.2,0c0.4,0,0.7,0.2,0.9,0.5
					c1.7,3.2,4.1,7,5.2,7.4c1.4,0.6,2.6,0.9,3.6,1l0.5,0.1c0.5,0.1,1.4,0.2,1.6,0.2c5.3,0,6.9,0.2,8.8,0.5c1.1,0.2,2.2,0.5,2.3,1.5
					c0,0.4-0.1,1-1,1.4l-19.3,8.3C436.8,984.7,436.7,984.7,436.5,984.7z"/>
				<path class="st1" d="M434.3,964.7c0,0,3.6,7,5.7,7.9c1.3,0.5,2.6,0.9,3.9,1.1c0.5,0,1.8,0.2,2.2,0.2c5.4,0,6.8,0.2,8.7,0.5
					c1.1,0.2,2.1,0.5,1.1,1l-19.3,8.3c0,0-3.6-3.9-3.8-5.6c-0.1-0.6-0.1-1.1-0.2-1.5c-0.7-2.9-5.4-10.6-5.4-10.6L434.3,964.7
					 M434.3,962.7c-0.1,0-0.3,0-0.4,0l-7.1,1.4c-0.6,0.1-1.2,0.6-1.4,1.1c-0.3,0.6-0.2,1.3,0.1,1.8c1.7,2.9,4.7,8.2,5.2,10.1
					c0.1,0.3,0.1,0.9,0.2,1.2c0.2,2.1,3.1,5.4,4.3,6.7c0.4,0.4,0.9,0.6,1.5,0.6c0.3,0,0.5-0.1,0.8-0.2l19.3-8.3
					c1.7-0.7,1.7-2.1,1.6-2.4c-0.2-1.8-2.2-2.2-3.1-2.3c-2-0.4-3.6-0.5-9-0.6c-0.2,0-1.1-0.1-1.5-0.1l-0.5-0.1
					c-0.9-0.1-2-0.4-3.3-0.9c-0.8-0.4-3-3.7-4.7-6.9C435.7,963.1,435,962.7,434.3,962.7L434.3,962.7z"/>
			</g>
			<g>
				<path class="st3" d="M434.9,986c-2,0-3.1-7.7-3.1-7.8c0-0.3,0.1-0.5,0.2-0.8c0.2-0.2,0.4-0.3,0.7-0.3c2.5-0.1,6.4-1,10.5-4.3
					c0.2-0.1,0.4-0.2,0.6-0.2h0.1c0.3,0,0.9,0,1.8-0.1c1.9-0.1,4.8-0.2,7.2-0.2c3.3,0,4.1,0.2,4.5,0.4c0.8,0.4,1.6,1.8,1.6,2.6
					c0,0.6-0.3,1-0.7,1.2c-9,4.1-14.1,5.9-17.8,7.2c-2,0.7-3.6,1.3-5.3,2C435.2,986,435,986,434.9,986L434.9,986z"/>
				<path class="st1" d="M453,973.5c2,0,3.7,0.1,4.1,0.3c0.5,0.2,1.3,1.8,0.8,2c-13.7,6.2-18.2,7.1-23,9.2l0,0
					c-0.6,0-1.9-5.2-2.1-6.9c2.5-0.1,6.6-1,11.1-4.5h0.1C444.8,973.7,449.5,973.5,453,973.5 M453,971.5c-2.4,0-5.3,0.1-7.2,0.2
					c-0.9,0-1.5,0.1-1.8,0.1h0.1c-0.1,0-0.1,0-0.2,0c-0.4,0-0.9,0.2-1.2,0.4c-4,3.1-7.6,3.9-10,4.1c-0.5,0-1.1,0.3-1.4,0.7
					c-0.4,0.4-0.5,1-0.5,1.5c0.1,1,0.5,2.8,1,4.4c0.7,2.5,1.4,4.3,3.1,4.3c0.3,0,0.6-0.1,0.8-0.2c1.6-0.7,3.2-1.3,5.2-2
					c3.7-1.3,8.9-3.2,17.9-7.3c0.8-0.4,1.3-1.2,1.3-2.1c0-1.2-1-3-2.2-3.5C457.4,971.7,456.6,971.5,453,971.5L453,971.5z"/>
			</g>
			<g>
				<path class="st4" d="M403.2,987.8c-0.4,0-0.8-0.2-0.9-0.6c-0.7-1.5-15.8-36.4-11.3-57.4c0,0-48.3,0.7-48.4,0.7s-0.2,0-0.3-0.1
					c-0.4-0.1-9.5-3.6-13.3-12.7c-2.6-6.3-2-13.7,1.8-21.9c0.2-0.4,0.5-0.6,0.9-0.6h0.1l29.7,3.9c0.5,0.1,0.9,0.5,0.9,1v3.7l44,8.9
					c0.3,0.1,0.6,0.3,0.7,0.7l11.1,31.9c0.1,0.4,0,0.9-0.3,1.1c-0.2,0.1-0.4,0.2-0.6,0.2s-0.4-0.1-0.5-0.2l-4.6-3l1.4,43.3
					c0,0.3-0.1,0.5-0.3,0.7c-0.2,0.2-0.4,0.3-0.7,0.3C412.6,987.7,403.2,987.8,403.2,987.8z"/>
				<path class="st1" d="M331.7,896.2l29.7,3.9v4.6l44.8,9l11.1,31.9l-6.2-4l1.4,45.2l-9.4,0.1c0,0-16.3-37.3-11-58l-49.6,0.7
					C342.6,929.5,320.1,921.2,331.7,896.2 M331.7,894.2c-0.8,0-1.5,0.4-1.8,1.2c-3.9,8.5-4.6,16.2-1.9,22.7
					c3.9,9.5,13.5,13.2,13.9,13.3c0.2,0.1,0.5,0.1,0.7,0.1l0,0l47.1-0.7c-1.5,8.8-0.2,20.6,4,35.3c3.4,11.9,7.4,21.1,7.6,21.5
					c0.3,0.7,1,1.2,1.8,1.2l0,0l9.4-0.1c0.5,0,1.1-0.2,1.4-0.6c0.4-0.4,0.6-0.9,0.6-1.5l-1.3-41.4l3,1.9c0.3,0.2,0.7,0.3,1.1,0.3
					s0.9-0.1,1.2-0.4c0.7-0.5,0.9-1.4,0.7-2.2L408.1,913c-0.2-0.7-0.8-1.2-1.5-1.3l-43.2-8.7v-2.9c0-1-0.7-1.9-1.7-2l-29.7-3.9
					C331.9,894.2,331.8,894.2,331.7,894.2L331.7,894.2z"/>
			</g>
			<g>
				<path class="st5" d="M426.5,973.1c-0.3,0-0.7-0.2-0.9-0.5c-0.8-1.3-19.5-32.4-20.7-34.8c-5.7-12.2-10.5-20.7-12.2-21.7
					c-2.5-1.5-23.7-8.1-31.6-10.5c-0.5-0.1-0.8-0.6-0.7-1.1c0.1-0.5,0.5-0.8,1-0.8l0,0c7.8,0,47,0.4,50.4,2.9s22.6,51.5,26.4,61.3
					c0.1,0.3,0.1,0.5,0,0.8c-0.1,0.2-0.3,0.4-0.6,0.5l-10.8,3.9C426.7,973,426.6,973.1,426.5,973.1z"/>
				<path class="st1" d="M361.4,904.6c0,0,46.5,0.3,49.8,2.7s26.1,60.8,26.1,60.8l-10.8,3.9c0,0-19.5-32.3-20.6-34.7
					s-9.5-20.3-12.6-22.1C390,913.4,361.4,904.6,361.4,904.6 M361.4,902.6c-1,0-1.8,0.7-2,1.7c-0.1,1,0.4,1.9,1.4,2.2
					c11,3.4,29.2,9.1,31.4,10.4c1.3,0.8,5.6,7.8,11.8,21.3c1.2,2.5,18.7,31.6,20.7,34.9c0.4,0.6,1,1,1.7,1c0.2,0,0.5,0,0.7-0.1
					l10.8-3.9c0.5-0.2,0.9-0.6,1.1-1.1s0.2-1.1,0-1.6c-0.1-0.1-5.8-14.8-11.8-29.5c-12.4-30.3-14.1-31.5-14.9-32.2
					c-0.9-0.7-2.6-1.9-27.3-2.7C373.2,902.7,361.5,902.6,361.4,902.6L361.4,902.6L361.4,902.6z"/>
			</g>
		</g>
		<g>
			<path class="st0" d="M342.9,999.4c-1.9,0-3.5-1.6-3.5-3.5s1.6-3.5,3.5-3.5h4.7c1.9,0,3.5,1.6,3.5,3.5s-1.6,3.5-3.5,3.5H342.9z"/>
			<path class="st1" d="M347.7,993.3c1.4,0,2.5,1.1,2.5,2.5s-1.1,2.5-2.5,2.5H343c-1.4,0-2.5-1.1-2.5-2.5s1.1-2.5,2.5-2.5H347.7
				 M347.7,991.3H343c-2.5,0-4.5,2-4.5,4.5s2,4.5,4.5,4.5h4.7c2.5,0,4.5-2,4.5-4.5C352.2,993.4,350.2,991.3,347.7,991.3L347.7,991.3
				z"/>
		</g>
		<g>
			<path class="st0" d="M322.9,1001.7c-0.9,0-1.6-0.7-1.6-1.6c0-2.3,1.9-4.2,4.2-4.2h38.6c2.3,0,4.2,1.9,4.2,4.2
				c0,0.9-0.7,1.6-1.6,1.6H322.9z"/>
			<path class="st1" d="M364.2,996.9c1.8,0,3.2,1.4,3.2,3.2c0,0.3-0.3,0.6-0.6,0.6h-43.9c-0.3,0-0.6-0.3-0.6-0.6
				c0-1.8,1.4-3.2,3.2-3.2H364.2 M364.2,994.9h-38.6c-2.9,0-5.2,2.3-5.2,5.2c0,1.4,1.1,2.6,2.6,2.6h43.9c1.4,0,2.6-1.1,2.6-2.6
				C369.4,997.2,367,994.9,364.2,994.9L364.2,994.9z"/>
		</g>
		<g>
			<path class="st6" d="M336.6,873.8c-5.4,0-11.4-2.4-15.9-6.3c-5.5-4.8-9.1-12.6-9.2-19.9c-0.1-5.6,1.9-10.4,5.7-13.9
				c1.6-1.4,3.3-2.6,5-3.8c1.1-0.8,2.3-1.6,3.4-2.5c3.2-2.5,5.4-6.6,7.7-10.9c4-7.3,8.2-14.9,17.5-14.9c5.2,0,10.1,2.9,12.1,6.9
				c2.2,4.5,3.1,9.5,2.9,15.2c-0.3,7.4-2.6,14.5-4.5,19.9c-0.5,1.3-0.9,2.5-1.3,3.8c-1.7,4.8-3.4,9.7-5.7,14.2
				c-2.4,4.5-5.7,8-9.3,10C342.3,873.2,339.5,873.8,336.6,873.8L336.6,873.8z"/>
			<path class="st1" d="M350.7,802.7L350.7,802.7c4.4,0,9.2,2.3,11.2,6.4c2.3,4.7,3,9.7,2.8,14.8c-0.3,6.7-2.2,13.3-4.4,19.6
				c-2.1,5.9-4,12.3-7,17.9c-2.1,3.9-5.1,7.5-8.9,9.6c-2.4,1.3-5.1,1.9-7.7,1.9c-5.5,0-11.2-2.5-15.3-6.1c-8.7-7.6-13-23.6-3.5-32.3
				c2.6-2.3,5.6-4.1,8.3-6.3C335,821.1,336.8,802.7,350.7,802.7 M350.7,800.7c-9.9,0-14.4,8.2-18.4,15.4c-2.3,4.2-4.5,8.2-7.5,10.6
				c-1.1,0.9-2.2,1.6-3.4,2.5c-1.7,1.2-3.5,2.4-5.1,3.9c-4,3.7-6.1,8.7-6,14.6c0.1,7.6,3.8,15.7,9.6,20.6c4.7,4.1,10.9,6.6,16.6,6.6
				c3.2,0,6.1-0.7,8.7-2.2c3.8-2.1,7.2-5.7,9.7-10.4c2.4-4.5,4.1-9.5,5.8-14.3c0.4-1.3,0.9-2.6,1.3-3.8c2-5.4,4.2-12.7,4.5-20.2
				c0.2-5.8-0.8-11.1-3-15.7C361.2,803,355.4,800.7,350.7,800.7L350.7,800.7L350.7,800.7z"/>
		</g>
		<g>
			<path class="st7" d="M411.6,883l-9.5-0.8l-27.8-0.1c-1.4,0-2.7-0.6-3.6-1.6l-20.1-22.2c-0.4-0.4-0.3-1,0-1.4
				c1.3-1.2,2.3-2.8,3.3-4.5c1.1-1.7,2.1-3.4,3.6-4.8c0.2-0.2,0.4-0.3,0.7-0.3h0.1c0.3,0,0.6,0.2,0.7,0.4
				c7.3,10.3,13.3,18.3,14.4,19.8l29.8,8.3l8.3-0.9h0.1c0.2,0,0.5,0.1,0.7,0.3s0.3,0.5,0.3,0.7v6.1c0,0.3-0.1,0.5-0.3,0.7
				C412.2,882.9,411.9,883,411.6,883C411.7,883,411.6,883,411.6,883z"/>
			<path class="st1" d="M358.2,848.3c8.2,11.5,14.6,20.1,14.6,20.1l30.4,8.5l8.5-1v6.1l-9.5-0.8l-27.9-0.1c-1.1,0-2.1-0.5-2.8-1.3
				l-20.1-22.2C354,855,355.5,850.9,358.2,848.3 M358.2,846.3c-0.5,0-1,0.2-1.4,0.6c-1.5,1.5-2.6,3.3-3.7,5c-1,1.6-2,3.2-3.2,4.4
				c-0.8,0.8-0.8,2-0.1,2.8l20.1,22.2c1.1,1.2,2.7,1.9,4.3,1.9l27.8,0.1l9.5,0.8c0.1,0,0.1,0,0.2,0c0.5,0,1-0.2,1.4-0.5
				c0.4-0.4,0.6-0.9,0.6-1.5V876c0-0.6-0.2-1.1-0.7-1.5c-0.4-0.3-0.8-0.5-1.3-0.5c-0.1,0-0.1,0-0.2,0l-8.1,0.9l-29.3-8.2
				c-1.5-2.1-7.2-9.8-14.2-19.5c-0.3-0.5-0.9-0.8-1.5-0.8C358.3,846.3,358.3,846.3,358.2,846.3L358.2,846.3z"/>
		</g>
		<g>
			<path class="st8" d="M359.5,871.4c-0.3,0-0.5-0.1-0.7-0.3c-0.4-0.4-10.5-10.8-13.3-15.5c-0.8-1.4-1.2-2.5-0.7-3.3
				c0.5-0.9,1.6-0.9,2-0.9s0.8,0,1.4,0.1c0.6,0,1.3,0.1,2,0.1c0.9,0,1.6-0.1,2.3-0.3c0.3-0.4,0.6-1.9,0.8-2.9c0.5-2.6,1.1-5.2,3-5.2
				c0.6,0,1.2,0.3,1.9,1c5.4,5.4,12,14.7,12.3,15.1c0.3,0.4,0.2,0.9-0.1,1.3l-10.1,10.6C360,871.3,359.7,871.4,359.5,871.4
				L359.5,871.4z"/>
			<path class="st1" d="M356.2,844.2c0.3,0,0.7,0.2,1.2,0.7c5.4,5.4,12.2,15,12.2,15l-10.1,10.6c0,0-10.4-10.7-13.1-15.3
				c-1.3-2.3-0.9-2.7,0.4-2.7c0.8,0,2,0.2,3.4,0.2c0.9,0,1.8-0.1,2.7-0.3C354.3,851.8,354.2,844.2,356.2,844.2 M356.2,842.2
				L356.2,842.2c-2.7,0-3.4,3.2-4,6c-0.1,0.7-0.3,1.7-0.5,2.2c-0.5,0.1-1,0.1-1.6,0.1c-0.7,0-1.3-0.1-1.9-0.1c-0.5,0-1-0.1-1.4-0.1
				c-1.4,0-2.3,0.5-2.8,1.4c-0.8,1.4-0.1,2.9,0.7,4.3c2.8,4.8,13,15.3,13.4,15.7s0.9,0.6,1.4,0.6l0,0c0.5,0,1.1-0.2,1.4-0.6
				l10.1-10.6c0.7-0.7,0.7-1.8,0.2-2.5c-0.3-0.4-7-9.7-12.4-15.2C358,842.6,357.1,842.2,356.2,842.2L356.2,842.2z"/>
		</g>
		<g>
			<path class="st9" d="M346.4,905.1c-8.6,0-17.5-1.5-17.5-1.6c-0.3,0-0.5-0.2-0.7-0.4s-0.2-0.5-0.2-0.8c0-0.1,2.9-14.8,2.9-19.9
				c0-1.3-0.4-4.5-0.8-8.5c-1.8-16.3-3-30.1,0.2-32.8c1.9-1.6,4.9-2.4,8.9-2.4c3,0,5.5,0.5,5.6,0.5c3.6,1,12.1,3.3,13.4,5.1
				c1.4,1.9,5.5,17.5,5.7,21.4c0.2,3.8-1,32.7-1.1,33.9c0,0.2-0.1,0.3-0.1,0.5C360.9,903.4,355.4,905.1,346.4,905.1L346.4,905.1z"/>
			<path class="st1" d="M339.3,839.7c2.9,0,5.4,0.5,5.4,0.5s11.6,3,12.7,4.7c1.2,1.7,5.4,17.1,5.6,20.9c0.2,3.8-1.1,33.8-1.1,33.8
				c-2,3.5-8.7,4.5-15.5,4.5c-8.6,0-17.4-1.5-17.4-1.5s2.9-14.8,2.9-20.1s-5.2-37-0.9-40.5C333.1,840.1,336.5,839.7,339.3,839.7
				 M339.3,837.7c-4.2,0-7.4,0.9-9.5,2.7c-3.4,2.8-2.8,13.5-0.6,33.7c0.4,3.8,0.8,7.1,0.8,8.4c0,5-2.9,19.6-2.9,19.7
				c-0.1,0.5,0,1.1,0.3,1.5s0.8,0.7,1.3,0.8c0.4,0.1,9.1,1.6,17.7,1.6c9.5,0,15.1-1.8,17.2-5.5c0.2-0.3,0.2-0.6,0.3-0.9
				c0.1-1.2,1.3-30.2,1.1-34c-0.2-3.7-4.3-19.7-5.9-21.9c-1.1-1.5-5.7-3.3-13.9-5.5h-0.1C344.9,838.2,342.4,837.7,339.3,837.7
				L339.3,837.7z"/>
		</g>
		<g>
			<path class="st2" d="M350.6,849c-3.8,0-7.5-3.2-9.2-6.2c-0.7-1.2-1.8-3.4-0.9-4.9c1-1.9,2.6-9,3.1-11.7l0.1-0.7
				c0.1-0.5,0.5-0.8,1-0.8l8.5-0.2c0.3,0,0.6,0.1,0.8,0.4c0.2,0.2,0.3,0.5,0.2,0.8l-2.8,14.2c0.1,0.3,0.3,1.1,0.5,1.8
				c1,3.2,1.6,5.3,0.9,6.5c-0.2,0.4-0.6,0.6-1,0.7C351.3,849,351,849,350.6,849L350.6,849z"/>
			<path class="st1" d="M353.1,825.5c0,0-0.5,2.5-1.1,5.6c-0.2,1.1-0.4,2.2-0.7,3.4c-0.4,2-0.8,4-1.1,5.4c-0.1,0.7,3,7.8,1.3,8.1
				c-0.3,0.1-0.6,0.1-1,0.1c-5.4,0-10.5-7.3-9.3-9.6c1.1-2.1,2.7-9.7,3.2-11.9c0.1-0.5,0.1-0.8,0.1-0.8L353.1,825.5 M353.1,823.5
				L353.1,823.5l-8.6,0.2c-1,0-1.8,0.7-1.9,1.7c0,0,0,0.3-0.1,0.7c-0.6,3-2.1,9.8-3,11.4c-0.8,1.5-0.5,3.6,0.9,5.9
				c2,3.3,5.9,6.7,10.1,6.7c0.4,0,0.9,0,1.3-0.1c0.7-0.1,1.3-0.5,1.7-1.2c0.9-1.5,0.3-3.8-0.8-7.3c-0.2-0.5-0.4-1.2-0.5-1.5
				c0.3-1.4,0.6-3.2,1-5.1l0.7-3.4l1.1-5.6c0.1-0.6,0-1.2-0.4-1.7C354.3,823.8,353.7,823.5,353.1,823.5L353.1,823.5z"/>
		</g>
		<path class="st7" d="M343.8,827.1c0.1-0.6,0.1-0.9,0.1-0.9l9.2-0.5c0,0-2,9.3-2.2,10.6c-1.4-0.2-2.8-1-4.2-2.4
			c-1.6-1.5-2.6-3.3-3.2-5.3C343.6,828.1,343.7,827.5,343.8,827.1z"/>
		<g>
			<path class="st2" d="M358.7,823.5c-0.4,0-0.7-0.1-1-0.3c-1.3-0.7-1.5-2.8-0.5-4.8c0.8-1.5,2-2.5,3.2-2.5c0.4,0,0.7,0.1,1,0.3
				c1.3,0.7,1.5,2.8,0.5,4.8C361.1,822.5,359.9,823.5,358.7,823.5z"/>
			<path class="st1" d="M360.4,817c0.2,0,0.3,0,0.5,0.1c0.8,0.5,0.8,2,0.1,3.4c-0.6,1.2-1.5,1.9-2.3,1.9c-0.2,0-0.3,0-0.5-0.1
				c-0.8-0.5-0.8-2-0.1-3.4C358.7,817.7,359.6,817,360.4,817 M360.4,815L360.4,815c-1.6,0-3.1,1.1-4.1,3c-1.3,2.5-0.9,5.1,0.9,6.1
				c0.5,0.3,1,0.4,1.5,0.4c1.6,0,3.1-1.2,4.1-3c1.3-2.5,0.9-5.1-0.9-6.1C361.5,815.1,360.9,815,360.4,815L360.4,815z"/>
		</g>
		<g>
			<path class="st2" d="M339.9,822.2c-1.5,0-2.9-1.5-3.2-3.5c-0.4-2.3,0.5-4.3,2.2-4.6c0.2,0,0.3,0,0.5,0c1.5,0,2.9,1.5,3.2,3.5
				c0.4,2.3-0.5,4.3-2.2,4.6C340.2,822.2,340.1,822.2,339.9,822.2z"/>
			<path class="st1" d="M339.3,815c1,0,2,1.1,2.3,2.7c0.3,1.7-0.3,3.2-1.4,3.5c-0.1,0-0.2,0-0.3,0c-1,0-2-1.1-2.3-2.7
				c-0.3-1.7,0.3-3.2,1.4-3.5C339.1,815,339.2,815,339.3,815 M339.3,813c-0.2,0-0.4,0-0.7,0.1c-2.2,0.4-3.5,3-3,5.8
				c0.5,2.5,2.2,4.3,4.2,4.3c0.2,0,0.4,0,0.7-0.1c2.2-0.4,3.5-3,3-5.8C343.1,814.8,341.3,813,339.3,813L339.3,813z"/>
		</g>
		<g>
			<path class="st2" d="M349.8,831c-1.9,0-3.8-0.8-5.6-2.3c-3.8-3.3-4.3-7.8-4.1-11c0.2-3.9,1.7-7.4,3-9.1c2.2-2.9,5.5-3.2,6.8-3.2
				c0.3,0,0.5,0,0.6,0s0.2,0,0.4,0c3,0,5.2,0.9,6.7,2.6c2.6,3,2.4,8,1.7,12.8C358.4,825.8,354.7,831,349.8,831L349.8,831z"/>
			<path class="st1" d="M349.8,806.4c0.3,0,0.5,0,0.5,0c0.1,0,0.3,0,0.4,0c8.7,0,8.3,7.8,7.4,14.3c-0.7,4.8-4.1,9.4-8.4,9.4
				c-1.6,0-3.3-0.6-4.9-2.1c-6.2-5.5-3.5-15.5-1-18.7C345.8,806.7,348.6,806.4,349.8,806.4 M349.8,804.4L349.8,804.4
				c-1.4,0-5.1,0.3-7.6,3.6c-3.3,4.2-5.7,15.3,1.3,21.5c2,1.7,4.1,2.6,6.3,2.6c5.5,0,9.6-5.6,10.4-11.1c0.7-5.1,1-10.3-1.9-13.6
				c-1.7-1.9-4.2-2.9-7.5-2.9c-0.1,0-0.2,0-0.3,0C350.3,804.4,350.1,804.4,349.8,804.4L349.8,804.4z"/>
		</g>
		<path class="st6" d="M352,804.3c0,0-6.5,11.6-11.1,12.1s-5.3,6.7-5.3,6.7s-3.2-9.1,6.3-16.9C346,802.8,352,804.3,352,804.3z"/>
		<path class="st10" d="M352.2,804.4c0,0-6.4,11.3-10.9,11.9c-4.6,0.5-5.2,6.5-5.2,6.5"/>
		<g>
			<path class="st2" d="M394.8,882l-9.5-0.8l-27.8-0.1c-1.4,0-2.7-0.6-3.6-1.6l-20.1-22.2c-0.4-0.4-0.3-1,0-1.4
				c1.3-1.2,2.3-2.8,3.3-4.5c1.1-1.7,2.1-3.4,3.6-4.8c0.2-0.2,0.4-0.3,0.7-0.3l0,0c0.3,0,0.5,0.1,0.7,0.3c8.3,9.5,17,20.6,18.5,22.5
				l25.8,5.7l8.3-0.9h0.1c0.2,0,0.5,0.1,0.7,0.3s0.3,0.5,0.3,0.7v6.1c0,0.3-0.1,0.5-0.3,0.7C395.4,881.9,395.1,882,394.8,882
				C394.9,882,394.8,882,394.8,882z"/>
			<path class="st1" d="M341.4,847.2c9.1,10.5,18.7,22.8,18.7,22.8l26.3,5.8l8.5-1v6.1l-9.5-0.8l-27.9-0.1c-1.1,0-2.1-0.5-2.8-1.3
				l-20.1-22.2C337.2,854,338.7,849.9,341.4,847.2 M341.4,845.2c-0.5,0-1,0.2-1.4,0.6c-1.5,1.5-2.6,3.3-3.7,5c-1,1.6-2,3.2-3.2,4.4
				c-0.8,0.8-0.8,2-0.1,2.8l20.1,22.2c1.1,1.2,2.7,1.9,4.3,1.9l27.8,0.1l9.5,0.8c0.1,0,0.1,0,0.2,0c0.5,0,1-0.2,1.4-0.5
				c0.4-0.4,0.6-0.9,0.6-1.5v-6.1c0-0.6-0.2-1.1-0.7-1.5c-0.4-0.3-0.8-0.5-1.3-0.5c-0.1,0-0.1,0-0.2,0l-8.2,0.9l-25.3-5.6
				c-2-2.5-10.3-13.1-18.3-22.3C342.5,845.5,342,845.3,341.4,845.2L341.4,845.2L341.4,845.2z"/>
		</g>
		<g>
			<path class="st8" d="M342.7,870.4c-0.3,0-0.5-0.1-0.7-0.3c-0.4-0.4-10.5-10.8-13.3-15.5c-1.6-2.9-1.8-6.9-0.4-10.3
				c1.1-2.5,2.8-4.2,4.9-4.8c0.2-0.1,0.5-0.1,0.7-0.1c5.3,0,17.3,15.7,19.7,18.9c0.3,0.4,0.3,0.9-0.1,1.3l-10.1,10.6
				C343.2,870.3,342.9,870.4,342.7,870.4L342.7,870.4z"/>
			<path class="st1" d="M333.9,840.3c5,0,18.9,18.5,18.9,18.5l-10.1,10.6c0,0-10.4-10.7-13.1-15.3s-0.7-12.4,3.9-13.6
				C333.6,840.4,333.8,840.3,333.9,840.3 M333.9,838.3L333.9,838.3c-0.3,0-0.7,0-1,0.1c-2.4,0.6-4.4,2.6-5.6,5.4
				c-1.5,3.7-1.4,8.1,0.4,11.2c2.8,4.8,13,15.3,13.4,15.7s0.9,0.6,1.4,0.6l0,0c0.5,0,1.1-0.2,1.4-0.6l10.1-10.6
				c0.7-0.7,0.7-1.8,0.2-2.6c-0.1-0.2-3.6-4.7-7.7-9.4C339,839.5,335.8,838.3,333.9,838.3L333.9,838.3z"/>
		</g>
		<g>
			<g>
				<path class="st0" d="M357.1,883.6c-1.2,0-2.2-1-2.2-2.2s1-2.2,2.2-2.2h23.3l13.1-32c0.6-1.4,2-2.4,3.5-2.4h43.4
					c1.3,0,2.5,0.7,3.2,1.8s0.8,2.5,0.3,3.6l-13.5,30c-0.9,2.1-3,3.4-5.3,3.4L357.1,883.6L357.1,883.6z"/>
				<path class="st1" d="M440.5,845.9c2.1,0,3.4,2.1,2.6,4l-13.5,30c-0.8,1.7-2.5,2.8-4.3,2.8h-68.1c-0.7,0-1.2-0.5-1.2-1.2
					s0.5-1.2,1.2-1.2h23.9l13.4-32.6c0.4-1.1,1.5-1.8,2.6-1.8H440.5 M440.5,843.9h-43.4c-2,0-3.7,1.2-4.5,3l-12.9,31.4h-22.6
					c-1.8,0-3.2,1.4-3.2,3.2s1.4,3.2,3.2,3.2h68.1c2.7,0,5.1-1.6,6.2-4l13.5-30c0.7-1.5,0.5-3.2-0.4-4.6
					C443.6,844.7,442.1,843.9,440.5,843.9L440.5,843.9z"/>
			</g>
			<g>
				<path class="st11" d="M414.7,868.1c-0.2,0-0.4,0-0.6-0.1c-0.9-0.2-1.7-0.7-2.2-1.6c-0.5-0.8-0.6-1.8-0.4-2.7
					c0.4-1.8,1.8-3,3.4-3c0.2,0,0.4,0,0.6,0.1c0.9,0.2,1.7,0.7,2.2,1.6c0.5,0.8,0.6,1.8,0.4,2.7
					C417.7,866.8,416.3,868.1,414.7,868.1z"/>
				<path class="st1" d="M414.9,861.7c0.1,0,0.3,0,0.4,0c1.3,0.3,2.1,1.7,1.8,3.1c-0.3,1.3-1.3,2.2-2.4,2.2c-0.1,0-0.3,0-0.4,0
					c-1.3-0.3-2.1-1.7-1.8-3.1C412.7,862.6,413.8,861.7,414.9,861.7 M414.9,859.7L414.9,859.7c-2.1,0-4,1.6-4.4,3.8
					c-0.2,1.2,0,2.4,0.5,3.4c0.6,1.1,1.7,1.8,2.8,2.1c0.3,0.1,0.5,0.1,0.8,0.1c2.1,0,4-1.6,4.4-3.8c0.2-1.2,0-2.4-0.5-3.4
					c-0.6-1.1-1.7-1.8-2.8-2.1C415.4,859.7,415.2,859.7,414.9,859.7L414.9,859.7z"/>
			</g>
		</g>
		<g>
			<path class="st12" d="M371.1,933c-0.5,0-0.9-0.3-1-0.8l-2.7-11.1c-1.8-7.3-8.2-12.6-15.7-12.9l-33.7-1.4c-0.4,0-0.8-0.3-0.9-0.7
				l-1-3.4c-0.1-0.3,0-0.6,0.2-0.9c0.2-0.2,0.5-0.4,0.8-0.4l34.9,1.4c9.9,0.4,18.4,7.4,20.7,17l2.8,11.8c0.1,0.3,0,0.6-0.2,0.8
				s-0.5,0.4-0.8,0.4C373.7,932.9,372.5,932.9,371.1,933C371.2,933,371.1,933,371.1,933z"/>
			<path class="st1" d="M317.1,902.4l34.8,1.4c9.5,0.4,17.6,7.1,19.8,16.3l2.8,11.8c-1,0-2.1,0.1-3.5,0.1l-2.7-11.1
				c-1.9-7.7-8.7-13.4-16.7-13.7l-33.6-1.4L317.1,902.4 M317.1,900.4c-0.6,0-1.2,0.3-1.6,0.8s-0.5,1.2-0.3,1.8l1,3.4
				c0.2,0.8,1,1.4,1.8,1.4l33.6,1.4c7.1,0.3,13.1,5.3,14.8,12.2l2.7,11.1c0.2,0.9,1,1.5,1.9,1.5l0,0c1.4,0,2.6-0.1,3.5-0.1
				c0.6,0,1.2-0.3,1.5-0.8c0.4-0.5,0.5-1.1,0.3-1.7l-2.8-11.8c-2.4-10.1-11.3-17.4-21.7-17.8L317.1,900.4
				C317.2,900.4,317.2,900.4,317.1,900.4L317.1,900.4z"/>
		</g>
		<g>
			<path class="st3" d="M327.9,941.1c-12.1,0-12.5-0.4-13-0.8c-0.4-0.4-1.4-1.3-21.4-70.1c-1.2-4.2,1.2-8.6,5.4-9.8
				c0.7-0.2,1.5-0.3,2.2-0.3c3.5,0,6.6,2.3,7.6,5.6l18,59.5c3.8,0.1,21.6,0.3,34.9,0.3l0,0c10.9,0,14.3-0.2,15.2-0.3
				c0.3-0.1,0.7-0.1,1-0.1c1.9,0,3.6,1,4.8,2.7c1.4,2.1,1.7,5.1,0.8,7.2c-1.9,4.2-7.5,5-12.1,5.3
				C367.7,940.4,343.2,941.1,327.9,941.1z"/>
			<path class="st1" d="M301.1,861c3,0,5.7,1.9,6.6,4.9l18.2,60.2c0,0,20.5,0.4,35.7,0.4c7.6,0,13.8-0.1,15.4-0.4
				c0.3,0,0.6-0.1,0.8-0.1c4.2,0,6,5.5,4.6,8.5c-1.4,3.2-5.4,4.4-11.2,4.7c-4,0.2-28.3,0.9-43.4,0.9c-6.9,0-11.8-0.1-12.3-0.5
				c-1.1-1.1-15.8-51.3-21.2-69.7c-1.1-3.7,1-7.5,4.7-8.6C299.8,861.1,300.5,861,301.1,861 M301.1,859L301.1,859
				c-0.9,0-1.7,0.1-2.5,0.4c-4.7,1.4-7.4,6.3-6.1,11.1c20.1,69.1,21.1,70,21.7,70.6c0.7,0.7,1.2,1.1,13.6,1.1
				c15.4,0,39.8-0.7,43.5-0.9c4.9-0.2,10.8-1.1,12.9-5.8c1.1-2.4,0.7-5.7-0.8-8.1c-1.3-2.1-3.3-3.2-5.6-3.2c-0.4,0-0.8,0-1.2,0.1
				c-0.7,0.1-3.7,0.3-15.1,0.3c-12.6,0-29.2-0.2-34.2-0.3l-17.8-58.8C308.5,861.5,305.1,859,301.1,859L301.1,859z"/>
		</g>
		<g>
			<g>
				<path class="st12" d="M394.9,1002.7c-0.5,0-0.9-0.4-1-0.9L382.7,890c0-0.3,0.1-0.6,0.3-0.8c0.2-0.2,0.5-0.3,0.7-0.3h5.2
					c0.5,0,0.9,0.4,1,0.9l11.2,111.7c0,0.3-0.1,0.6-0.3,0.8c-0.2,0.2-0.5,0.3-0.7,0.3L394.9,1002.7L394.9,1002.7z"/>
				<path class="st1" d="M388.9,889.9l11.2,111.7h-5.2l-11.2-111.7H388.9 M388.9,887.9h-5.2c-0.6,0-1.1,0.2-1.5,0.7
					c-0.4,0.4-0.6,1-0.5,1.5l11.2,111.7c0.1,1,1,1.8,2,1.8h5.2c0.6,0,1.1-0.2,1.5-0.7c0.4-0.4,0.6-1,0.5-1.5l-11.2-111.7
					C390.8,888.7,389.9,887.9,388.9,887.9L388.9,887.9z"/>
			</g>
			<g>
				<path class="st12" d="M345.7,1002.7c-0.3,0-0.6-0.1-0.7-0.3c-0.2-0.2-0.3-0.5-0.3-0.8l11.2-111.7c0.1-0.5,0.5-0.9,1-0.9h5.2
					c0.3,0,0.6,0.1,0.7,0.3c0.2,0.2,0.3,0.5,0.3,0.8l-11.2,111.7c-0.1,0.5-0.5,0.9-1,0.9H345.7z"/>
				<path class="st1" d="M362,889.9l-11.2,111.7h-5.2l11.2-111.7H362 M362,887.9h-5.2c-1,0-1.9,0.8-2,1.8l-11.2,111.7
					c-0.1,0.6,0.1,1.1,0.5,1.5s0.9,0.7,1.5,0.7h5.2c1,0,1.9-0.8,2-1.8L364,890.1c0.1-0.6-0.1-1.1-0.5-1.5
					C363.1,888.2,362.6,887.9,362,887.9L362,887.9z"/>
			</g>
			<g>
				<path class="st12" d="M515.7,1002.7c-0.5,0-0.9-0.4-1-0.9L503.6,890c0-0.3,0.1-0.6,0.3-0.8c0.2-0.2,0.5-0.3,0.7-0.3h5.2
					c0.5,0,0.9,0.4,1,0.9l11.2,111.7c0,0.3-0.1,0.6-0.3,0.8s-0.5,0.3-0.7,0.3L515.7,1002.7L515.7,1002.7z"/>
				<path class="st1" d="M509.8,889.9l11.2,111.7h-5.2l-11.2-111.7H509.8 M509.8,887.9h-5.2c-0.6,0-1.1,0.2-1.5,0.7
					c-0.4,0.4-0.6,1-0.5,1.5l11.2,111.7c0.1,1,1,1.8,2,1.8h5.2c0.6,0,1.1-0.2,1.5-0.7c0.4-0.4,0.6-1,0.5-1.5l-11.2-111.7
					C511.7,888.7,510.8,887.9,509.8,887.9L509.8,887.9z"/>
			</g>
			<g>
				<path class="st12" d="M466.5,1002.7c-0.3,0-0.6-0.1-0.7-0.3c-0.2-0.2-0.3-0.5-0.3-0.8l11.2-111.7c0.1-0.5,0.5-0.9,1-0.9h5.2
					c0.3,0,0.6,0.1,0.7,0.3c0.2,0.2,0.3,0.5,0.3,0.8l-11.2,111.7c-0.1,0.5-0.5,0.9-1,0.9H466.5z"/>
				<path class="st1" d="M482.9,889.9l-11.2,111.7h-5.2l11.2-111.7H482.9 M482.9,887.9h-5.2c-1,0-1.9,0.8-2,1.8l-11.2,111.7
					c-0.1,0.6,0.1,1.1,0.5,1.5s0.9,0.7,1.5,0.7h5.2c1,0,1.9-0.8,2-1.8l11.2-111.7c0.1-0.6-0.1-1.1-0.5-1.5S483.5,887.9,482.9,887.9
					L482.9,887.9z"/>
			</g>
			<g>
				<path class="st12" d="M352.3,890.9c-2.6,0-4.6-2.1-4.6-4.6s2.1-4.6,4.6-4.6h165c2.6,0,4.6,2.1,4.6,4.6s-2.1,4.6-4.6,4.6H352.3z"
					/>
				<path class="st1" d="M517.3,882.6c2,0,3.6,1.6,3.6,3.6s-1.6,3.6-3.6,3.6h-165c-2,0-3.6-1.6-3.6-3.6s1.6-3.6,3.6-3.6H517.3
					 M517.3,880.6h-165c-3.1,0-5.6,2.5-5.6,5.6s2.5,5.6,5.6,5.6h165c3.1,0,5.6-2.5,5.6-5.6S520.4,880.6,517.3,880.6L517.3,880.6z"/>
			</g>
		</g>
	</g>
	<g>
		<path class="st13" d="M295.2,1003.7c-1.1,0-2-0.9-2-2s0.9-2,2-2h235c1.1,0,2,0.9,2,2s-0.9,2-2,2H295.2z"/>
		<path class="st1" d="M530.2,1000.6c0.6,0,1,0.5,1,1c0,0.6-0.5,1-1,1h-235c-0.6,0-1-0.5-1-1c0-0.6,0.5-1,1-1H530.2 M530.2,998.6
			h-235c-1.7,0-3,1.4-3,3c0,1.7,1.4,3,3,3h235c1.7,0,3-1.4,3-3S531.9,998.6,530.2,998.6L530.2,998.6z"/>
	</g>
</g>
<g>
	<path class="st14" d="M121.5,93.4l7.6-2.1l0.2-0.5l16.5-37.4l64.9,35l-14.3,40.9l-15.3-6v-5.6l-4.5,3.8l-59.3-25.3l-0.8,1.9
		l58.4,24.9l-34.3,28.9l-61.9-20.8l37.3-23.4l-1.1-1.8L76,130.3l-40-13.5l83.1-22.7l1.5,1.4L122,94L121.5,93.4z M178.9,122.2v0.2
		l-0.2-0.1L178.9,122.2z M176.9,123.9l2,0.8V163l4.7,2.5l-0.3,0.9l-40.6-13.6L176.9,123.9z M181,161.8v-36.2l14.6,5.7l-11.3,32.2
		L181,161.8z M73.7,131.7l-6.2,3.9L31.7,118l0.7-0.2L73.7,131.7z M69.7,136.7l6.6-4.1l62.3,21l-12.7,10.7L69.7,136.7z M271.6,38.1
		l-0.2,0.2L225.5,85l-2.5-0.3l6.4-52.9L272,38L271.6,38.1z M28,118.5l37.5,18.4L28,160.5V118.5z M228.1,85.3L272.7,40l3.3-0.9
		l3.2-0.9l-3-1.3l-1.3-0.6L229,29.6v0.1h-0.3l-71-8.1l-0.3,0.7l-12.5,28.4l-36.3-19.5l45.9-11.4l-0.5-2l-51.1,12.7l41.2,22.2
		l-16.4,37.1l-7.9,2.2l-67-61.4l-1.4,1.5l65.9,60.3l-84.8,23.2l-1.1-0.4l-0.2,0.7l-3.1,0.9v-2.9l35.8-27.8l-0.2-0.7l-0.9-2.9
		l46.7,9.4l0.4-2.1l-47.8-9.6L48.5,34.4l-2,0.6l13.2,44.9l-0.5-0.1l-0.4,2.1l1.6,0.3l1,3.3L25.9,113v4.5h-0.1l0.1,0.1v46.8
		l45.5,16.8l0.7-2L28,162.9v-1.5l0.7,1.2l39-24.6l58.5,28.7l0.5-0.4l14.2-12l41.7,14l-1.4,3.9l2,0.7l1.4-4l0.6,0.2l0.7-2l-0.6-0.2
		l0.2-0.5l47.9,25l1-1.9l-48.1-25.2l11.4-32.4l44.2,17.4l-5.8,41.3l2.1,0.3l5.8-41.5l1.5,1.1l23.8-32.3l0.4-4.5l-38.3-22.8l-1.1,1.8
		l38.4,22.8L244,149.2l0.2-1.1l-0.8-0.3l-45.1-17.7l14.2-40.6l11.3,6.1l1-1.8l-11.6-6.2l2.8-7.9l-2-0.7l-2.6,7.6l-64.8-34.9
		l12.3-27.8l68.5,7.8l-6.6,54.6l1.4,0.2v0.3l1.6,0.2l-2,2l1.5,1.5l3.1-3.2"/>
	<g>
		<g>
			<path class="st11" d="M155.8,46.1c-12.1,0-21.9-9.8-21.9-21.9s9.8-21.9,21.9-21.9c12.1,0,21.9,9.8,21.9,21.9
				C177.6,36.3,167.8,46.1,155.8,46.1z"/>
			<path class="st14" d="M155.8,3.4c11.5,0,20.9,9.3,20.9,20.9c0,11.5-9.3,20.9-20.9,20.9c-11.5,0-20.9-9.3-20.9-20.9
				C134.9,12.8,144.3,3.4,155.8,3.4 M155.8,1.4c-12.6,0-22.9,10.3-22.9,22.9s10.3,22.9,22.9,22.9c12.6,0,22.9-10.3,22.9-22.9
				C178.6,11.7,168.4,1.4,155.8,1.4L155.8,1.4z"/>
		</g>
	</g>
	<g>
		<g>
			<path class="st11" d="M73.5,199.1c-12.2,0-22.1-9.9-22.1-22.1s9.9-22.1,22.1-22.1s22.1,9.9,22.1,22.1S85.7,199.1,73.5,199.1z"/>
			<path class="st14" d="M73.5,155.8c11.7,0,21.1,9.5,21.1,21.1c0,11.7-9.5,21.1-21.1,21.1c-11.7,0-21.1-9.5-21.1-21.1
				S61.9,155.8,73.5,155.8 M73.5,153.8c-12.7,0-23.1,10.4-23.1,23.1c0,12.7,10.4,23.1,23.1,23.1s23.1-10.4,23.1-23.1
				S86.3,153.8,73.5,153.8L73.5,153.8z"/>
		</g>
	</g>
	<g>
		<g>
			<path class="st11" d="M274.5,51.8c-8,0-14.6-6.5-14.6-14.6s6.5-14.6,14.6-14.6s14.6,6.5,14.6,14.6S282.5,51.8,274.5,51.8z"/>
			<path class="st14" d="M274.5,23.7c7.5,0,13.6,6.1,13.6,13.6s-6.1,13.6-13.6,13.6s-13.6-6.1-13.6-13.6S267,23.7,274.5,23.7
				 M274.5,21.7c-8.6,0-15.6,7-15.6,15.6s7,15.6,15.6,15.6s15.6-7,15.6-15.6S283.1,21.7,274.5,21.7L274.5,21.7z"/>
		</g>
	</g>
	<g>
		<g>
			<path class="st11" d="M54.8,56.8c-10.2,0-18.5-8.3-18.5-18.5s8.3-18.5,18.5-18.5s18.5,8.3,18.5,18.5S65,56.8,54.8,56.8z"/>
			<path class="st14" d="M54.8,20.8c9.7,0,17.5,7.8,17.5,17.5s-7.8,17.5-17.5,17.5S37.3,48,37.3,38.3C37.3,28.7,45.1,20.8,54.8,20.8
				 M54.8,18.8c-10.8,0-19.5,8.7-19.5,19.5S44,57.8,54.8,57.8s19.5-8.7,19.5-19.5S65.5,18.8,54.8,18.8L54.8,18.8z"/>
		</g>
	</g>
	<g>
		<g>
			<circle class="st11" cx="225.1" cy="88" r="26.7"/>
			<path class="st14" d="M225.1,62.3c14.2,0,25.7,11.5,25.7,25.7s-11.5,25.7-25.7,25.7s-25.7-11.5-25.7-25.7S210.9,62.3,225.1,62.3
				 M225.1,60.3c-15.3,0-27.7,12.4-27.7,27.7s12.4,27.7,27.7,27.7s27.7-12.4,27.7-27.7S240.4,60.3,225.1,60.3L225.1,60.3z"/>
		</g>
	</g>
	<g>
		<g>
			<circle class="st11" cx="26.9" cy="114.9" r="24.9"/>
			<path class="st14" d="M26.9,91c13.2,0,23.9,10.7,23.9,23.9s-10.7,23.9-23.9,23.9S3,128.2,3,114.9C3,101.7,13.7,91,26.9,91
				 M26.9,89C12.6,89,1,100.6,1,114.9s11.6,25.9,25.9,25.9s25.9-11.6,25.9-25.9C52.9,100.6,41.2,89,26.9,89L26.9,89z"/>
		</g>
	</g>
	<g>
		<g>
			
				<ellipse transform="matrix(0.1602 -0.9871 0.9871 0.1602 58.0871 367.4732)" class="st11" cx="245" cy="149.6" rx="12.7" ry="12.7"/>
			<path class="st14" d="M245,137.9c6.4,0,11.7,5.2,11.7,11.7c0,6.4-5.2,11.7-11.7,11.7c-6.4,0-11.7-5.2-11.7-11.7
				C233.3,143.2,238.6,137.9,245,137.9 M245,135.9c-7.5,0-13.7,6.1-13.7,13.7c0,7.5,6.1,13.7,13.7,13.7c7.5,0,13.7-6.1,13.7-13.7
				C258.7,142.1,252.6,135.9,245,135.9L245,135.9z"/>
		</g>
	</g>
	<g>
		<g>
			<circle class="st11" cx="120.8" cy="94.3" r="28"/>
			<path class="st14" d="M120.8,67.3c14.9,0,27,12.1,27,27s-12.1,27-27,27s-27-12.1-27-27S105.9,67.3,120.8,67.3 M120.8,65.3
				c-16,0-29,13-29,29s13,29,29,29s29-13,29-29S136.8,65.3,120.8,65.3L120.8,65.3z"/>
		</g>
	</g>
	<g>
		<g>
			<path class="st11" d="M182.1,179.8c-8.6,0-15.6-7-15.6-15.6s7-15.6,15.6-15.6s15.6,7,15.6,15.6
				C197.7,172.8,190.7,179.8,182.1,179.8z"/>
			<path class="st14" d="M182.1,149.6c8.1,0,14.6,6.5,14.6,14.6s-6.5,14.6-14.6,14.6s-14.6-6.5-14.6-14.6S174.1,149.6,182.1,149.6
				 M182.1,147.6c-9.2,0-16.6,7.5-16.6,16.6c0,9.2,7.5,16.6,16.6,16.6c9.2,0,16.6-7.5,16.6-16.6
				C198.7,155.1,191.3,147.6,182.1,147.6L182.1,147.6z"/>
		</g>
	</g>
	<g>
		<path class="st11" d="M229.5,38.3c-4.2,0-7.6-3.4-7.6-7.6s3.4-7.6,7.6-7.6s7.6,3.4,7.6,7.6S233.6,38.3,229.5,38.3z"/>
		<g>
			<path class="st14" d="M229.5,24.1c3.6,0,6.6,3,6.6,6.6s-3,6.6-6.6,6.6s-6.6-3-6.6-6.6S225.8,24.1,229.5,24.1 M229.5,22.1
				c-4.7,0-8.6,3.9-8.6,8.6s3.9,8.6,8.6,8.6s8.6-3.9,8.6-8.6S234.2,22.1,229.5,22.1L229.5,22.1z"/>
		</g>
	</g>
	<g>
		<circle class="st11" cx="105.6" cy="30.7" r="7.4"/>
		<g>
			<path class="st14" d="M105.6,24.3c3.5,0,6.4,2.9,6.4,6.4s-2.9,6.4-6.4,6.4s-6.4-2.9-6.4-6.4S102.1,24.3,105.6,24.3 M105.6,22.3
				c-4.6,0-8.4,3.8-8.4,8.4s3.8,8.4,8.4,8.4s8.4-3.8,8.4-8.4S110.2,22.3,105.6,22.3L105.6,22.3z"/>
		</g>
	</g>
	<g>
		<path class="st11" d="M180.6,131.5c-4.8,0-8.8-3.9-8.8-8.8s3.9-8.8,8.8-8.8s8.8,3.9,8.8,8.8S185.5,131.5,180.6,131.5z"/>
		<g>
			<path class="st14" d="M180.6,114.9c4.3,0,7.8,3.5,7.8,7.8s-3.5,7.8-7.8,7.8s-7.8-3.5-7.8-7.8
				C172.8,118.4,176.3,114.9,180.6,114.9 M180.6,112.9c-5.4,0-9.8,4.4-9.8,9.8c0,5.4,4.4,9.8,9.8,9.8c5.4,0,9.8-4.4,9.8-9.8
				C190.4,117.3,186,112.9,180.6,112.9L180.6,112.9z"/>
		</g>
	</g>
	<g>
		<path class="st11" d="M237.2,199.1c-4.8,0-8.8-3.9-8.8-8.8s3.9-8.8,8.8-8.8s8.8,3.9,8.8,8.8S242.1,199.1,237.2,199.1z"/>
		<g>
			<path class="st14" d="M237.2,182.5c4.3,0,7.8,3.5,7.8,7.8s-3.5,7.8-7.8,7.8s-7.8-3.5-7.8-7.8C229.5,186,232.9,182.5,237.2,182.5
				 M237.2,180.5c-5.4,0-9.8,4.4-9.8,9.8c0,5.4,4.4,9.8,9.8,9.8c5.4,0,9.8-4.4,9.8-9.8S242.6,180.5,237.2,180.5L237.2,180.5z"/>
		</g>
	</g>
	<g>
		<path class="st11" d="M269.4,121c-3.3,0-6-2.7-6-6s2.7-6,6-6s6,2.7,6,6C275.5,118.3,272.8,121,269.4,121z"/>
		<g>
			<path class="st14" d="M269.4,109.9c2.8,0,5,2.3,5,5c0,2.8-2.3,5-5,5c-2.8,0-5-2.3-5-5C264.4,112.1,266.7,109.9,269.4,109.9
				 M269.4,107.9c-3.9,0-7,3.2-7,7c0,3.9,3.2,7,7,7c3.9,0,7-3.2,7-7C276.5,111.1,273.3,107.9,269.4,107.9L269.4,107.9z"/>
		</g>
	</g>
	<g>
		<path class="st11" d="M126,171.7c-3.4,0-6.2-2.8-6.2-6.2s2.8-6.2,6.2-6.2s6.2,2.8,6.2,6.2S129.5,171.7,126,171.7z"/>
		<g>
			<path class="st14" d="M126,160.3c2.9,0,5.2,2.3,5.2,5.2s-2.3,5.2-5.2,5.2c-2.9,0-5.2-2.3-5.2-5.2S123.2,160.3,126,160.3
				 M126,158.3c-4,0-7.2,3.2-7.2,7.2s3.2,7.2,7.2,7.2s7.2-3.2,7.2-7.2C133.3,161.5,130,158.3,126,158.3L126,158.3z"/>
		</g>
	</g>
	<g>
		<path class="st11" d="M26.9,172.4c-4.8,0-8.8-3.9-8.8-8.8s3.9-8.8,8.8-8.8c4.8,0,8.8,3.9,8.8,8.8S31.8,172.4,26.9,172.4z"/>
		<g>
			<path class="st14" d="M26.9,155.8c4.3,0,7.8,3.5,7.8,7.8s-3.5,7.8-7.8,7.8s-7.8-3.5-7.8-7.8C19.2,159.3,22.6,155.8,26.9,155.8
				 M26.9,153.8c-5.4,0-9.8,4.4-9.8,9.8c0,5.4,4.4,9.8,9.8,9.8s9.8-4.4,9.8-9.8C36.7,158.2,32.3,153.8,26.9,153.8L26.9,153.8z"/>
		</g>
	</g>
	<g>
		<path class="st11" d="M62.6,89.7c-4.8,0-8.8-3.9-8.8-8.8c0-4.8,3.9-8.8,8.8-8.8c4.8,0,8.8,3.9,8.8,8.8
			C71.3,85.7,67.4,89.7,62.6,89.7z"/>
		<g>
			<path class="st14" d="M62.6,73.1c4.3,0,7.8,3.5,7.8,7.8s-3.5,7.8-7.8,7.8s-7.8-3.5-7.8-7.8C54.8,76.6,58.3,73.1,62.6,73.1
				 M62.6,71.1c-5.4,0-9.8,4.4-9.8,9.8s4.4,9.8,9.8,9.8s9.8-4.4,9.8-9.8C72.3,75.5,68,71.1,62.6,71.1L62.6,71.1z"/>
		</g>
	</g>
	<g>
		<g>
			<defs>
				<circle id="SVGID_1_" cx="227" cy="86.1" r="23.8"/>
			</defs>
			<clipPath id="SVGID_2_">
				<use xlink:href="#SVGID_1_"  style="overflow:visible;"/>
			</clipPath>
			<g class="st15">
				<path class="st16" d="M218.7,71.4c6.5-3.4,14.1-0.4,14.6,8.7c0.6,9.1-5.8,12.3-12,11.7C215.3,91.2,209.2,75.2,218.7,71.4z"/>
				<path class="st16" d="M222.7,95.6c0,3.6,2.9,6.5,6.5,6.5s6.5-2.9,6.5-6.5s-2.9-6.5-6.5-6.5S222.7,91.9,222.7,95.6z"/>
				<path class="st17" d="M215.2,99.3l-22.1-0.7c0,0-17.2-5.4-17.8-5.6c-0.6-0.2-3.2-7-3.9-6.5s1.5,3.4,0.6,4
					c-0.9,0.6-9.4-2.2-9.3-1.6c0,1.3,5.1,1.9,5,2.5c-0.1,0.6-5.2-1.1-5.7-0.2c-0.5,0.9,5,1.2,5.2,1.7c0.2,0.5-5.2,0.5-4.8,1.5
					c0.2,0.6,4.8-0.1,4.6,0.6c-0.1,0.6-3.5,1.8-3.2,2.4c0.3,0.6,2.8-1.3,4.6-1c1.9,0.3,3.3-0.6,6.1,0.7c2.8,1.3,12.2,7,18.5,7.7
					c6.3,0.6,20.3,2.1,20.3,2.1L215.2,99.3z"/>
				<path class="st18" d="M219.5,98.3c12.1,0.6,1.5,10.7,1.5,10.7l-17.9-2.5c-0.6-3.6,0.4-7.9,0.5-8.8
					C207.2,97.4,216.5,98.1,219.5,98.3z"/>
				<path class="st5" d="M228.8,96.3c0,0,5.2-0.1,8,3c2.8,3.1-4.4,26.6-4.8,30.4c-0.5,3.9,2.6,14.1,2.6,14.1s-16.4,3.3-21.1,0.2
					c0,0-0.5-27.7,0-30.4c0.5-2.8,4.7-13.9,5.7-15C220.1,97.4,228.8,96.3,228.8,96.3z"/>
				<path class="st19" d="M226.5,86.9c0,0,0,0.2,0.1,0.6c0.3,1.7,1.5,7.3,2.3,8.8c1,1.9-3.3,7.8-7.5,7c-1.2-0.2,1-5.5,0.9-6
					c-0.2-1-0.5-2.5-0.8-4c-0.2-0.8-0.4-1.7-0.5-2.5c-0.5-2.2-0.8-4.1-0.8-4.1L226.5,86.9z"/>
				<path class="st5" d="M226.6,87.5c-0.1-0.4-0.1-0.6-0.1-0.6l-6.3-0.2c0,0,0.4,1.9,0.8,4.1c0.2,0.8,0.3,1.7,0.5,2.5
					c0.9-0.2,1.9-0.6,3-1.5c1.1-0.9,1.9-2.1,2.2-3.3C226.7,88.1,226.6,87.8,226.6,87.5z"/>
				<path class="st19" d="M215.2,83.1c0.6,1.1,1.5,1.7,2,1.3c0.6-0.4,0.6-1.5,0.1-2.5c-0.6-1.1-1.5-1.7-2-1.3
					C214.7,80.9,214.7,82,215.2,83.1z"/>
				<path class="st19" d="M228,81c-0.2,1.3,0.3,2.4,1,2.6c0.8,0.2,1.7-0.7,1.9-1.9c0.2-1.3-0.3-2.4-1-2.6
					C229,78.9,228.2,79.8,228,81z"/>
				<path class="st19" d="M222.3,72.7c0,0,3-0.4,4.8,2c1.9,2.4,3.8,9.8-0.7,13.8c-4.6,4-9.2-0.6-9.8-5.4
					C215.9,78.3,215.6,72.5,222.3,72.7z"/>
				<path class="st16" d="M220.9,71.7c0,0,4.4,7.5,7.7,7.8c3.3,0.2,3.6,4.4,3.6,4.4s-0.7-9.5-4-11.1C225,71,220.9,71.7,220.9,71.7z"
					/>
				<path class="st20" d="M221.2,71.4c0,0,4.4,7.7,7.4,8.1c3.1,0.4,3.5,4.4,3.5,4.4"/>
				<path class="st18" d="M221.9,120.2c0,0,12.7-6.5,15.6-10c2.8-3.4,2.2-10.1-1.4-11.8c-3.6-1.6-18.3,13.2-18.3,13.2L221.9,120.2z"
					/>
			</g>
		</g>
	</g>
	<g>
		<g>
			<defs>
				<circle id="SVGID_3_" cx="274.5" cy="36.7" r="12.8"/>
			</defs>
			<clipPath id="SVGID_4_">
				<use xlink:href="#SVGID_3_"  style="overflow:visible;"/>
			</clipPath>
			<g class="st21">
				<path class="st16" d="M278.9,28.8c-3.5-1.9-7.6-0.2-7.9,4.7s3.2,6.6,6.5,6.3S284.1,30.9,278.9,28.8z"/>
				<path class="st16" d="M273.1,36.8c0,0.9-0.7,1.7-1.7,1.7c-0.9,0-1.7-0.7-1.7-1.7c0-0.9,0.7-1.7,1.7-1.7
					C272.4,35.2,273.1,35.9,273.1,36.8z"/>
				<path class="st16" d="M274.8,38.4c0,0.9-0.7,1.7-1.7,1.7c-0.9,0-1.7-0.7-1.7-1.7c0-0.9,0.7-1.7,1.7-1.7
					C274.1,36.7,274.8,37.5,274.8,38.4z"/>
				<path class="st16" d="M277,39.6c0,0.9-0.7,1.7-1.7,1.7c-0.9,0-1.7-0.7-1.7-1.7c0-0.9,0.7-1.7,1.7-1.7
					C276.3,37.9,277,38.7,277,39.6z"/>
				<path class="st16" d="M272.4,34.1c0,0.9-0.7,1.7-1.7,1.7s-1.7-0.7-1.7-1.7c0-0.9,0.7-1.7,1.7-1.7S272.4,33.2,272.4,34.1z"/>
				<path class="st16" d="M273,31.2c0,0.9-0.7,1.7-1.7,1.7c-0.9,0-1.7-0.7-1.7-1.7c0-0.9,0.7-1.7,1.7-1.7
					C272.2,29.5,273,30.3,273,31.2z"/>
				<path class="st16" d="M274.9,29.4c0,0.9-0.7,1.7-1.7,1.7c-0.9,0-1.7-0.7-1.7-1.7c0-0.9,0.7-1.7,1.7-1.7
					C274.2,27.7,274.9,28.5,274.9,29.4z"/>
				<path class="st16" d="M277.5,28.6c0,0.9-0.7,1.7-1.7,1.7c-0.9,0-1.7-0.7-1.7-1.7c0-0.9,0.7-1.7,1.7-1.7
					C276.7,27,277.5,27.7,277.5,28.6z"/>
				<path class="st16" d="M280.1,28.8c0,0.9-0.7,1.7-1.7,1.7c-0.9,0-1.7-0.7-1.7-1.7c0-0.9,0.7-1.7,1.7-1.7
					C279.4,27.2,280.1,27.9,280.1,28.8z"/>
				<path class="st16" d="M282.1,30.9c0,0.9-0.7,1.7-1.7,1.7c-0.9,0-1.7-0.7-1.7-1.7c0-0.9,0.7-1.7,1.7-1.7
					C281.4,29.2,282.1,30,282.1,30.9z"/>
				<path class="st16" d="M282.1,36.2c0,0.9-0.7,1.7-1.7,1.7s-1.7-0.7-1.7-1.7c0-0.9,0.7-1.7,1.7-1.7S282.1,35.3,282.1,36.2z"/>
				<path class="st16" d="M280.4,38.7c0,0.9-0.7,1.7-1.7,1.7s-1.7-0.7-1.7-1.7c0-0.9,0.7-1.7,1.7-1.7S280.4,37.8,280.4,38.7z"/>
				<path class="st16" d="M282.7,33.4c0,0.9-0.7,1.7-1.7,1.7c-0.9,0-1.7-0.7-1.7-1.7c0-0.9,0.7-1.7,1.7-1.7
					C282,31.8,282.7,32.5,282.7,33.4z"/>
				<path class="st16" d="M278.1,39.4c0,0.9-0.7,1.7-1.7,1.7c-0.9,0-1.7-0.7-1.7-1.7c0-0.9,0.7-1.7,1.7-1.7
					C277.3,37.7,278.1,38.4,278.1,39.4z"/>
				<path class="st17" d="M280.8,43.8l11.9-0.4c0,0,9.3-2.9,9.6-3c0.3-0.1,1.7-3.8,2.1-3.5s-0.8,1.9-0.3,2.1c0.5,0.3,5-1.2,5-0.8
					c0,0.7-2.7,1-2.7,1.3c0.1,0.3,2.8-0.6,3.1-0.1c0.3,0.5-2.7,0.6-2.8,0.9c-0.1,0.3,2.8,0.3,2.6,0.8c-0.1,0.3-2.6-0.1-2.5,0.3
					c0.1,0.4,1.9,0.9,1.7,1.3c-0.2,0.3-1.5-0.7-2.5-0.6c-1,0.1-1.8-0.3-3.3,0.4s-6.6,3.8-10,4.2s-11,1.2-11,1.2L280.8,43.8z"/>
				<path class="st18" d="M278.6,43.3c-6.5,0.3-0.8,5.8-0.8,5.8l9.7-1.4c0.3-1.9-0.2-4.2-0.2-4.7C285.2,42.8,280.2,43.2,278.6,43.3z
					"/>
				<path class="st5" d="M273.5,42.3c0,0-2.8-0.1-4.3,1.6c-1.5,1.6,2.3,14.3,2.6,16.4c0.3,2.1-1.4,7.6-1.4,7.6s8.9,1.8,11.4,0.1
					c0,0,0.3-14.9,0-16.4s-2.5-7.5-3.1-8.1C278.2,42.8,273.5,42.3,273.5,42.3z"/>
				<path class="st22" d="M274.8,37.2c0,0,0,0.1-0.1,0.3c-0.2,0.9-0.8,3.9-1.3,4.8c-0.5,1,1.8,4.2,4.1,3.8c0.7-0.1-0.6-2.9-0.5-3.2
					c0.1-0.6,0.3-1.4,0.4-2.2c0.1-0.5,0.2-0.9,0.3-1.3c0.2-1.2,0.4-2.2,0.4-2.2L274.8,37.2z"/>
				<path class="st23" d="M274.7,37.5c0-0.2,0.1-0.3,0.1-0.3l3.4-0.1c0,0-0.2,1-0.4,2.2c-0.1,0.4-0.2,0.9-0.3,1.3
					c-0.5-0.1-1.1-0.3-1.6-0.8c-0.6-0.5-1-1.1-1.2-1.8C274.6,37.8,274.7,37.6,274.7,37.5z"/>
				<path class="st22" d="M277,29.5c0,0-1.6-0.2-2.6,1.1c-1,1.3-2.1,5.3,0.4,7.5c2.5,2.2,4.9-0.3,5.3-2.9
					C280.5,32.6,280.6,29.4,277,29.5z"/>
				<path class="st22" d="M280.9,35.1c-0.3,0.6-0.8,0.9-1.1,0.7c-0.3-0.2-0.3-0.8,0-1.4c0.3-0.6,0.8-0.9,1.1-0.7
					C281.1,34,281.2,34.6,280.9,35.1z"/>
				<path class="st16" d="M277.2,29.1c0,0-2.1,3.8-3.6,4c-1.5,0.2-1.7,2.2-1.7,2.2s0.5-4.7,2-5.6S277.2,29.1,277.2,29.1z"/>
				<path class="st22" d="M274,34c0.1,0.7-0.1,1.3-0.6,1.4c-0.4,0.1-0.9-0.4-1-1.1c-0.1-0.7,0.1-1.3,0.6-1.4
					C273.4,32.9,273.8,33.3,274,34z"/>
				<path class="st18" d="M277.3,55.1c0,0-6.9-3.5-8.4-5.4s-1.2-5.5,0.8-6.3c1.9-0.9,9.9,7.1,9.9,7.1L277.3,55.1z"/>
			</g>
		</g>
	</g>
	<g>
		<g>
			<defs>
				<circle id="SVGID_5_" cx="26.5" cy="114.2" r="22.4"/>
			</defs>
			<clipPath id="SVGID_6_">
				<use xlink:href="#SVGID_5_"  style="overflow:visible;"/>
			</clipPath>
			<g class="st24">
				<path class="st3" d="M-12.8,128.8c0,0,7.9-2.1,8-1.5c2,14,2.9,19,3.2,19.1c1,0.5,13.5-11.6,15.7-12.4c1.1-0.4,2.3-0.4,3.4-0.4
					c2.7,0,3.3,0,3.3,0c0.1,0,0.1,0,0.1,0l0.1,2.6c-3,2.8-5.9,57.5-6.5,57.5c-0.7,0-13.1-0.1-12.5-1.1c0,0,3-16.8,5.4-27.9
					c0.8-3.7,3-11.5,3-11.5c-3,1.6-14.9,7.8-16.8,7.1C-12.5,158-12.8,128.8-12.8,128.8z"/>
				<path class="st3" d="M10.6,162c1.4-6.7,4.8-17.7,5.9-20.2c2.3-5.7,4.3-8.1,4.3-8.1l9.3,0.3c0,0,0.2,0.1,0.3,0.1
					c0.8,0.1,0.8,27.1,0.4,37.2c-0.4,10.1-2.6,23.2-2.6,23.2l-2.6-0.3c0,1.4-0.1,2.3-0.1,2.3c-13.4,2.4-20.9-4.2-20.9-4.2
					S8.8,170.7,10.6,162z"/>
				<path class="st3" d="M30,133.9c0,0,9.2-0.7,11.5-1.8c1.4-0.7,13-10.5,13-10.5l-0.8-25.4l8.3-0.8c0,0,5,28,3.6,31.1
					c-1.5,3.2-18.4,16.7-21.7,22.5c-1.9,3.3-0.1,48.4-0.7,48.8c-4.4,2.4-22.9,4.6-22.6,3.2C28.5,161.8,30,133.9,30,133.9z"/>
				<path class="st22" d="M29.5,125.8L30,134c0,0-5.7,10.5-8.8,9.1c-2.6-1.1-0.5-9-0.5-9s0.4-1.8,1-3.9c0.4-1.5,0.7-3,0.7-4.2
					C22.1,123.2,29.5,125.8,29.5,125.8z"/>
				<path class="st25" d="M22.3,125.9c-0.1-2.8,7.3-0.2,7.3-0.2v0.8c-0.2,0.4-0.5,0.7-0.8,1c-1.9,1.6-4.8,2.4-7.1,2.2
					C22.1,128.4,22.3,127,22.3,125.9z"/>
				<g>
					<path class="st26" d="M21.9,107.3c0,0-2.9,4.7-3.1,8.6c-0.1,3.9,0.8,6.5,0.8,6.5l9.5-12L21.9,107.3z"/>
					<path class="st25" d="M17.8,115.1c-0.1,1.4,0.5,2.5,1.2,2.6s1.5-1,1.6-2.4s-0.5-2.5-1.2-2.6C18.6,112.7,17.9,113.8,17.8,115.1z
						"/>
					<path class="st22" d="M32.3,112.2c0.2-0.1,0.5,11.2-2.7,14c-3.2,2.7-8.9,3.1-10.6,0.5c-1.9-2.9-0.5-14.8,4.3-17.5
						C28.1,106.6,32.3,112.2,32.3,112.2z"/>
					<path class="st26" d="M33,105.2c2.6,2.1,3.8,3.7,5.6,7.5c2.2,4.7-1.8,9.8-5.2,11.8c-3.4,2.1-3.6,4.4-3.6,4.4l-0.2-1.5
						c-0.1-0.5-0.1-1,0-1.4s0.3-0.8,0.5-1.2c0.3-0.6,1.2-2.8,1.5-3.4c0.9-1.5,1.1-1.9,0.6-3.3c-0.4-1.1,0-3.5-0.7-5.3l-4.7-0.9
						c0,0-2.9-0.6-4.4-2.3C18,105.2,26.2,99.5,33,105.2z"/>
					<path class="st22" d="M31.1,119.6c-0.5,1.3-0.4,2.5,0.3,2.8s1.8-0.4,2.3-1.7c0.5-1.3,0.4-2.5-0.3-2.8
						C32.6,117.6,31.6,118.4,31.1,119.6z"/>
				</g>
			</g>
		</g>
	</g>
	<g>
		<g>
			<defs>
				<circle id="SVGID_7_" cx="155.8" cy="24.4" r="18.5"/>
			</defs>
			<clipPath id="SVGID_8_">
				<use xlink:href="#SVGID_7_"  style="overflow:visible;"/>
			</clipPath>
			<g class="st27">
				<path class="st16" d="M188.2,36.4c0,0-6.5-1.7-6.6-1.2C180,46.7,179.2,50.9,179,51c-0.8,0.4-11.1-9.5-13-10.2
					c-0.9-0.3-1.9-0.3-2.8-0.3c-2.2,0-2.7,0-2.7,0c-0.1,0-0.1,0-0.1,0v2.1c2.5,2.3,4.9,47.4,5.4,47.4s10.8-0.1,10.3-0.9
					c0,0-2.5-13.9-4.4-23.1c-0.7-3.1-2.5-9.5-2.5-9.5c2.5,1.3,12.3,6.5,13.9,5.9C188,60.5,188.2,36.4,188.2,36.4z"/>
				<path class="st28" d="M168.9,63.8c-1.1-5.5-4-14.6-4.8-16.6c-1.9-4.7-3.6-6.7-3.6-6.7l-7.6,0.2c0,0-0.2,0-0.2,0.1
					c-0.6,0.1-0.6,22.4-0.3,30.7s2.2,19.2,2.2,19.2l2.2-0.2c0,1.1,0.1,1.9,0.1,1.9c11.1,2,17.2-3.5,17.2-3.5S170.4,71,168.9,63.8z"
					/>
				<path class="st16" d="M152.9,40.7c0,0-7.6-0.6-9.5-1.5c-1.2-0.6-10.7-8.7-10.7-8.7l0.7-21l-6.8-0.7c0,0-4.2,23.1-3,25.7
					c1.2,2.7,15.2,13.8,17.9,18.6c1.6,2.7,0.1,40,0.6,40.3c3.6,2,18.9,3.8,18.7,2.6C154.1,63.7,152.9,40.7,152.9,40.7z"/>
				<path class="st19" d="M153.3,34l-0.4,6.7c0,0,4.7,8.6,7.3,7.5c2.2-0.9,0.4-7.5,0.4-7.5s-0.3-1.5-0.8-3.2
					c-0.3-1.2-0.6-2.5-0.5-3.4C159.4,31.8,153.3,34,153.3,34z"/>
				<path class="st5" d="M159.3,34.1c0.1-2.3-6-0.1-6-0.1v0.7c0.2,0.3,0.4,0.6,0.7,0.8c1.6,1.4,3.9,2,5.8,1.8
					C159.4,36.1,159.2,35,159.3,34.1z"/>
				<g>
					<path class="st5" d="M159.6,18.7c0,0,2.4,3.9,2.5,7.1s-0.6,5.4-0.6,5.4l-7.8-9.9L159.6,18.7z"/>
					<path class="st29" d="M162.9,25.2c0.1,1.1-0.4,2.1-1,2.1c-0.7,0-1.2-0.8-1.3-1.9s0.4-2.1,1-2.1C162.3,23.2,162.9,24,162.9,25.2
						z"/>
					<path class="st19" d="M151,22.8c-0.2,0-0.4,9.3,2.2,11.5c2.6,2.3,7.3,2.6,8.8,0.4c1.6-2.4,0.4-12.2-3.6-14.4S151,22.8,151,22.8
						z"/>
					<path class="st5" d="M150.4,17c-2.1,1.8-3.1,3-4.6,6.2c-1.8,3.9,1.5,8.1,4.3,9.8c2.8,1.7,3,3.7,3,3.7l0.1-1.2
						c0.1-0.4,0.1-0.8,0-1.1c-0.1-0.4-0.2-0.7-0.4-1c-0.2-0.5-1-2.3-1.3-2.8c-0.8-1.3-0.9-1.5-0.5-2.7c0.3-0.9,0-2.9,0.5-4.4
						l3.9-0.7c0,0,2.4-0.5,3.7-1.9C162.8,16.9,156,12.3,150.4,17z"/>
					<path class="st19" d="M152,28.9c0.4,1,0.3,2.1-0.3,2.3c-0.6,0.3-1.4-0.4-1.9-1.4c-0.4-1-0.3-2.1,0.3-2.3
						C150.7,27.2,151.6,27.8,152,28.9z"/>
				</g>
			</g>
		</g>
	</g>
	<g>
		<g>
			<defs>
				<circle id="SVGID_9_" cx="245" cy="149.6" r="10.9"/>
			</defs>
			<clipPath id="SVGID_10_">
				<use xlink:href="#SVGID_9_"  style="overflow:visible;"/>
			</clipPath>
			<g class="st30">
				<path class="st3" d="M226,156.7c0,0,3.8-1,3.9-0.7c1,6.8,1.4,9.2,1.6,9.3c0.5,0.2,6.5-5.6,7.6-6c0.5-0.2,1.1-0.2,1.7-0.2
					c1.3,0,1.6,0,1.6,0l0,0v1.2c-1.4,1.4-2.9,27.9-3.2,27.8c-0.3,0-6.3,0-6-0.5c0,0,1.5-8.2,2.6-13.5c0.4-1.8,1.5-5.6,1.5-5.6
					c-1.5,0.8-7.2,3.8-8.1,3.4C226.1,170.8,226,156.7,226,156.7z"/>
				<path class="st28" d="M237.3,172.8c0.7-3.2,2.3-8.6,2.8-9.8c1.1-2.8,2.1-3.9,2.1-3.9l4.5,0.1h0.1c0.4,0.1,0.4,13.1,0.2,18
					s-1.3,11.2-1.3,11.2l-1.3-0.1c0,0.7,0,1.1,0,1.1c-6.5,1.1-10.1-2.1-10.1-2.1S236.5,177,237.3,172.8z"/>
				<path class="st3" d="M246.7,159.2c0,0,4.4-0.3,5.6-0.9c0.7-0.3,6.3-5.1,6.3-5.1l-0.4-12.3l4-0.4c0,0,2.4,13.6,1.8,15.1
					c-0.7,1.6-8.9,8.1-10.5,10.9c-0.9,1.6,0,23.5-0.3,23.7c-2.1,1.2-11.1,2.2-11,1.5C246,172.7,246.7,159.2,246.7,159.2z"/>
				<path class="st19" d="M246.5,155.2l0.2,4c0,0-2.8,5.1-4.3,4.4c-1.3-0.6-0.3-4.4-0.3-4.4s0.2-0.9,0.5-1.9c0.2-0.7,0.3-1.5,0.3-2
					C242.9,153.9,246.5,155.2,246.5,155.2z"/>
				<path class="st5" d="M243,155.3c-0.1-1.4,3.5-0.1,3.5-0.1v0.4c-0.1,0.2-0.2,0.3-0.4,0.5c-0.9,0.8-2.3,1.2-3.4,1.1
					C242.9,156.5,243,155.8,243,155.3z"/>
				<g>
					<path class="st16" d="M242.8,146.3c0,0-1.4,2.3-1.5,4.1c-0.1,1.9,0.4,3.1,0.4,3.1l4.6-5.8L242.8,146.3z"/>
					<path class="st29" d="M240.8,150.1c0,0.7,0.2,1.2,0.6,1.2c0.4,0,0.7-0.5,0.8-1.1c0-0.7-0.2-1.2-0.6-1.2
						C241.2,148.9,240.9,149.4,240.8,150.1z"/>
					<path class="st19" d="M247.8,148.7c0.1,0,0.2,5.4-1.3,6.8c-1.5,1.3-4.3,1.5-5.1,0.2c-0.9-1.4-0.2-7.2,2.1-8.5
						S247.8,148.7,247.8,148.7z"/>
					<path class="st16" d="M248.2,145.3c1.2,1,1.8,1.8,2.7,3.6c1.1,2.3-0.9,4.7-2.5,5.7s-1.8,2.2-1.8,2.2l-0.1-0.7
						c0-0.3,0-0.5,0-0.7s0.1-0.4,0.2-0.6c0.1-0.3,0.6-1.4,0.7-1.6c0.5-0.7,0.5-0.9,0.3-1.6c-0.2-0.5,0-1.7-0.3-2.6l-2.3-0.4
						c0,0-1.4-0.3-2.1-1.1C240.9,145.2,244.9,142.5,248.2,145.3z"/>
					<path class="st19" d="M247.2,152.2c-0.3,0.6-0.2,1.2,0.2,1.4s0.9-0.2,1.1-0.8c0.3-0.6,0.2-1.2-0.2-1.4
						C248,151.3,247.5,151.6,247.2,152.2z"/>
				</g>
			</g>
		</g>
	</g>
	<g>
		<g>
			<defs>
				<circle id="SVGID_11_" cx="54.8" cy="38.7" r="15.7"/>
			</defs>
			<clipPath id="SVGID_12_">
				<use xlink:href="#SVGID_11_"  style="overflow:visible;"/>
			</clipPath>
			<g class="st31">
				<path class="st32" d="M58.7,57.4c0,0-3.5-4.7-4.8-7c-1.3-2.2,0.9-0.8,3.1-1.4c0.8-0.2,0.1-4.8,1.7-3.2c2.6,2.6,5.2,8.3,5.2,8.3
					L58.7,57.4z"/>
				<path class="st33" d="M58.3,45.5c-2.3-0.7-6.6-1.1-6.6-1.1S49,44,48.2,44.2c-1.3,0.3-3.7,0.4-3.9,6c-0.2,4-0.6,13.9-1.1,20.5
					l16.4,1C58.8,61.5,60.5,46.2,58.3,45.5z"/>
				<path class="st34" d="M53.9,39.7l-2.6,4.7c0,0,1.9,3.5,3.8,3.5c1.5,0.1,1.3-2.2,1.3-2.2s0.2-2.9,1-4.3
					C58.2,40.2,53.9,39.7,53.9,39.7z"/>
				<path class="st5" d="M54.2,41.6c0.6,0.6,1.5,1.4,2.6,1.9c0.2-0.7,0.4-1.5,0.7-2c0.3-0.6-0.4-1-1.2-1.3c-1.2-0.3-2.2-0.5-2.2-0.5
					l-0.5,0.9C53.6,40.9,54,41.4,54.2,41.6z"/>
				<g>
					<path class="st19" d="M55.3,31.7c-0.1-0.1-2.6,5.8-1.5,8c1.1,2.1,4,3.5,5.5,2.5c1.6-1.1,3.4-7.7,1.4-10.2
						C58.7,29.6,55.3,31.7,55.3,31.7z"/>
					<path class="st26" d="M60.6,28.5c-2-0.1-3.5,0.7-4.1,1c-0.9-0.1-2.2,0-3.9,1.7c-2.2,2-1.8,5.1-0.5,6.9c1.4,1.8,0.9,3.3,0.9,3.3
						l0.5-0.7c0.4-0.5,0.6-1.2,0.7-1.8c0.1-0.4,0.1-0.8,0-1.2c-0.2-1,1.3-1.2,1.9-1.9c0.4-0.5,0.8-1.8,1.5-2.6l0.7-0.6
						c0,0,1.5-0.6,2.6,0C62.1,33.2,63.2,28.7,60.6,28.5z"/>
					<path class="st19" d="M55.7,36.9c-0.2,0.8-0.7,1.3-1.1,1.2c-0.4-0.1-0.6-0.8-0.4-1.6c0.2-0.8,0.7-1.3,1.1-1.2
						C55.7,35.4,55.9,36.1,55.7,36.9z"/>
				</g>
				<path class="st32" d="M50,58.2c0,0-4.3-5.5-5.3-7.6s0.1-5.5,2.2-5.9c2.1-0.4,8.1,9.4,8.1,9.4L50,58.2z"/>
			</g>
		</g>
	</g>
	<g>
		<g>
			<defs>
				<circle id="SVGID_13_" cx="120.8" cy="94.3" r="25.1"/>
			</defs>
			<clipPath id="SVGID_14_">
				<use xlink:href="#SVGID_13_"  style="overflow:visible;"/>
			</clipPath>
			<g class="st35">
				<path class="st36" d="M135.8,104.5c0.5,0,1.7,0.4,3.6,3.9c2.4,4.4,5.8,17.9,5.8,17.9l-10.3,3.8l-1.3-2.8l-2.2-21.6
					C131.4,105.7,135.7,104.5,135.8,104.5z"/>
				<path class="st28" d="M122.3,102.6c2.9,0,10.2,0.9,13.6,1.9c0,0,2.5,21.3-2.2,37.5c-1.1,3.6,0.9,15,0.9,15l-30.4-0.4
					c0,0,3.6-27.5,2.2-32c-1.4-4.4-1.4-19.9-1.4-19.9s0.2,0,6.8-1.2C114.8,102.9,119.1,102.5,122.3,102.6z"/>
				<path class="st34" d="M104.6,107c2.8-1.1,4.2,24.6,4.6,35.1c5,0.5,13.8,0,16-0.2c1-0.1,3.4-0.9,4.4-1.1c1-0.1,2-0.2,2.5-0.1
					c0.2,0,5.4,2.2,5.9,2.7c0.6,0.6,2.1,2.1,1.8,2.7c-0.3,0.6-2.9-1.8-2.9-1.8l-1.3-0.7c1.6,1.6,4.7,3.6,4.2,4.4
					c-0.4,0.7-3.2-1.4-5.2-2.8c1.7,1.5,3.8,4.3,3.3,4.7c-0.4,0.4-2.8-2.8-5.4-3.7c-0.9-0.3-1.9,0.6-2.6,0.7
					c-0.5,0.1-1.4,0.3-1.9,0.1l-2.8-0.8c-0.9,0.1-1,0.6-1.9,0.8c-1.1,0.2-2.9,0.5-4.3,0.8c-8.1,2-10.8,2.9-13.3,2.9
					C98.3,150.8,97.9,109.5,104.6,107z"/>
				<path class="st36" d="M99.2,131.1c-0.5-10.8-0.5-24.1,5.6-26.4c2.4-0.9,6.6,4.5,5.8,26.6C107.4,131.5,102.6,131.8,99.2,131.1z"
					/>
				<g>
					<path class="st37" d="M129.1,76.5c-0.9-0.3-1.7-0.6-2.5-1c-0.9-0.4-2.1-1-2.9-1.1c-1.6-0.2-4.4-0.1-5.9,1.6
						c-1.9,2.1-5.3,0.4-4.6,11.1c0.8,12.2,7.5,10.8,7.7,10.6c0.2-0.2,6-7.8,6-7.8s2.1,4.5,2.1,4.3C129,94.2,139.5,80.1,129.1,76.5z"
						/>
					<path class="st34" d="M123.9,98.7l0.6,4.4c0,0,1.3,6.3-0.4,7.5c-1.7,1.2-7.2-7.7-7.2-7.7l0.6-11L123.9,98.7z"/>
					<path class="st5" d="M117.4,95.4c1.4,3.8,4.7,6.1,7.1,7l-0.5-3.7l-6.4-6.9L117.4,95.4z"/>
					<path class="st34" d="M123.6,79.8c3.6-0.6,6.8,2.3,6.7,5.9c0,1.6-0.2,3.5-0.5,5.6c-0.8,5-4.2,9.5-6.5,9.1s-8-4.7-7-11.9
						C117,84,119.8,80.4,123.6,79.8z"/>
					<path class="st34" d="M117.9,89.3c-0.2,1.1-1.1,1.9-2,1.7c-0.9-0.2-1.5-1.2-1.3-2.3c0.2-1.1,1.1-1.9,2-1.7
						C117.5,87.2,118.1,88.2,117.9,89.3z"/>
					<path class="st37" d="M116.6,87c0,0,2.7,0.7,3.8-1.1c1-1.8,4.7-5.6,9.3-4c4.6,1.6-4.1-3.8-4.4-3.8c-0.4,0-4.8,0-4.8,0
						s-3.4,2.8-3.5,3.1c-0.1,0.3-1.1,3.7-1.1,3.7L116.6,87z"/>
				</g>
			</g>
		</g>
	</g>
	<g>
		<g>
			<defs>
				<circle id="SVGID_15_" cx="181.6" cy="163.9" r="13.1"/>
			</defs>
			<clipPath id="SVGID_16_">
				<use xlink:href="#SVGID_15_"  style="overflow:visible;"/>
			</clipPath>
			<g class="st38">
				<path class="st39" d="M189.4,169.2c0.2,0,0.9,0.2,1.9,2c1.2,2.3,3,9.3,3,9.3l-5.3,2l-0.7-1.5l-1.1-11.2
					C187.1,169.8,189.3,169.2,189.4,169.2z"/>
				<path class="st3" d="M182.3,168.2c1.5,0,5.3,0.4,7.1,1c0,0,1.3,11.1-1.2,19.5c-0.5,1.9,0.5,7.8,0.5,7.8l-15.8-0.2
					c0,0,1.9-14.3,1.2-16.6s-0.7-10.4-0.7-10.4s0.1,0,3.6-0.6C178.4,168.4,180.7,168.2,182.3,168.2z"/>
				<path class="st34" d="M173.1,170.5c1.5-0.6,2.2,12.8,2.4,18.3c2.6,0.3,7.2,0,8.3-0.1c0.5,0,1.8-0.5,2.3-0.6s1-0.1,1.3-0.1
					c0.1,0,2.8,1.1,3.1,1.4c0.3,0.3,1.1,1.1,0.9,1.4c-0.1,0.3-1.5-0.9-1.5-0.9l-0.7-0.4c0.8,0.8,2.4,1.9,2.2,2.3
					c-0.2,0.4-1.7-0.7-2.7-1.5c0.9,0.8,2,2.2,1.7,2.4c-0.2,0.2-1.5-1.4-2.8-1.9c-0.5-0.2-1,0.3-1.4,0.4c-0.3,0-0.7,0.1-1,0.1
					l-1.4-0.4c-0.5,0-0.5,0.3-1,0.4c-0.6,0.1-1.5,0.3-2.2,0.4c-4.2,1-5.6,1.5-6.9,1.5C169.8,193.2,169.6,171.8,173.1,170.5z"/>
				<path class="st39" d="M170.3,183c-0.3-5.6-0.2-12.5,2.9-13.7c1.2-0.5,3.4,2.3,3,13.8C174.6,183.2,172.1,183.4,170.3,183z"/>
				<g>
					<path class="st37" d="M185.8,154.7c-0.4-0.2-0.9-0.3-1.3-0.5c-0.5-0.2-1.1-0.5-1.5-0.6c-0.8-0.1-2.3,0-3.1,0.8
						c-1,1.1-2.7,0.2-2.4,5.8c0.4,6.3,3.9,5.6,4,5.5s3.1-4.1,3.1-4.1l1.1,2.3C185.8,163.8,191.3,156.5,185.8,154.7z"/>
					<path class="st22" d="M183.2,166.2l0.3,2.3c0,0,0.7,3.3-0.2,3.9c-0.9,0.6-3.7-4-3.7-4l0.3-5.7L183.2,166.2z"/>
					<path class="st40" d="M179.8,164.5c0.7,2,2.4,3.2,3.7,3.6l-0.3-1.9l-3.3-3.6L179.8,164.5z"/>
					<path class="st22" d="M183,156.4c1.9-0.3,3.5,1.2,3.5,3.1c0,0.8-0.1,1.8-0.3,2.9c-0.4,2.6-2.2,4.9-3.4,4.7s-4.1-2.5-3.6-6.2
						C179.6,158.5,181,156.7,183,156.4z"/>
					<path class="st22" d="M180,161.3c-0.1,0.6-0.6,1-1,0.9c-0.5-0.1-0.8-0.6-0.7-1.2c0.1-0.6,0.6-1,1-0.9
						C179.8,160.2,180.1,160.7,180,161.3z"/>
					<path class="st37" d="M179.4,160.1c0,0,1.4,0.4,2-0.6c0.5-0.9,2.4-2.9,4.8-2.1c2.4,0.8-2.1-2-2.3-2s-2.5,0-2.5,0
						s-1.8,1.5-1.8,1.6c-0.1,0.2-0.6,1.9-0.6,1.9L179.4,160.1z"/>
				</g>
			</g>
		</g>
	</g>
	<g>
		<g>
			<defs>
				<path id="SVGID_17_" d="M91.4,177c0,9.9-8,17.9-17.9,17.9s-17.9-8-17.9-17.9s8-17.9,17.9-17.9C83.4,159,91.4,167.1,91.4,177z"/>
			</defs>
			<clipPath id="SVGID_18_">
				<use xlink:href="#SVGID_17_"  style="overflow:visible;"/>
			</clipPath>
			<g class="st41">
				<path class="st3" d="M82.1,174.4c0.1-2.5-0.3-5-1.4-7.3c-1-2-3.3-3.1-5.5-3.1c-6.9,0-7.8,9.1-12.2,12.6
					c-1.3,1.1-2.8,1.9-4.1,3.1c-4.7,4.3-2.6,12.2,1.7,15.9c3,2.6,7.7,4.1,11.4,2c1.9-1.1,3.4-2.8,4.4-4.8c1.5-2.7,2.4-5.9,3.5-8.8
					C81,181,81.9,177.7,82.1,174.4z"/>
				<path class="st5" d="M79.5,197.4c0,0-5.1-5.3-6.5-7.6c-1.3-2.3,0.9-0.8,3.2-1.4c0.9-0.2,0.6-5.3,2.3-3.6c2.7,2.7,6,7.4,6,7.4
					L79.5,197.4z"/>
				<path class="st42" d="M72.2,182.5c0,0-4.6-0.9-6.7,0.8c-2.1,1.8,0.5,17.4,0.4,20c0,2.6-1.4,9.4-1.4,9.4s14,3,16.2-0.9
					c0,0,0.6-14.8,0.5-16.7s-2.2-9.5-2.7-10.3C77.9,184,72.2,182.5,72.2,182.5z"/>
				<path class="st19" d="M72.2,175.3c0,0,0,0.1-0.1,0.4c-0.2,1.1-1,4.9-1.6,5.9c-0.7,1.2,2.3,5.2,5.1,4.7c0.8-0.1-0.7-3.6-0.6-4
					c0.1-0.7,0.3-1.7,0.5-2.7c0.1-0.6,0.2-1.1,0.3-1.7c0.3-1.5,0.5-2.8,0.5-2.8L72.2,175.3z"/>
				<path class="st5" d="M72.1,175.7c0-0.2,0.1-0.4,0.1-0.4l4.2-0.1c0,0-0.2,1.2-0.5,2.8c-0.1,0.5-0.2,1.1-0.3,1.7
					c-0.6-0.1-1.3-0.4-2-1s-1.2-1.4-1.5-2.3C72,176.1,72.1,175.9,72.1,175.7z"/>
				<path class="st19" d="M75,165.8c0,0-2-0.2-3.2,1.4c-1.2,1.6-2.6,6.6,0.5,9.3s6.1-0.4,6.6-3.6C79.3,169.6,79.5,165.7,75,165.8z"
					/>
				<path class="st3" d="M78.1,165c0,0-3.9,5.5-7.5,4.8l-0.1-2.4l0.3-0.9l1.9-1.2l3-0.7L78.1,165z"/>
				<path class="st19" d="M79.8,172.8c-0.4,0.7-1,1.1-1.4,0.9c-0.4-0.2-0.4-1,0-1.7s1-1.1,1.4-0.9C80.1,171.3,80.1,172.1,79.8,172.8
					z"/>
				<path class="st19" d="M71.2,171.4c0.2,0.8-0.2,1.6-0.7,1.7c-0.5,0.1-1.1-0.5-1.2-1.3c-0.2-0.8,0.2-1.6,0.7-1.7
					S71,170.5,71.2,171.4z"/>
				<path class="st5" d="M67.2,197.2c0,0-3-6.7-3.5-9.3s1.8-5.9,4.1-5.7c2.3,0.2,5.9,11.8,5.9,11.8L67.2,197.2z"/>
			</g>
		</g>
	</g>
</g>
</svg>
