<?xml version="1.0" encoding="utf-8"?>
<!-- Generator: Adobe Illustrator 24.2.3, SVG Export Plug-In . SVG Version: 6.00 Build 0)  -->
<svg version="1.1" id="Capa_1" xmlns="http://www.w3.org/2000/svg" xmlns:xlink="http://www.w3.org/1999/xlink" x="0px" y="0px"
	 viewBox="0 0 91 100.6" style="enable-background:new 0 0 91 100.6;" xml:space="preserve">
<style type="text/css">
	.st0{fill:#43CA8D;}
	.st1{fill:#00B966;}
	.st2{fill:#DEEAF9;}
	.st3{fill:#B0DAFB;}
	.st4{fill:#FE4756;}
	.st5{fill:#FE656F;}
	.st6{fill:#544E55;}
	.st7{fill:#7B6C79;}
	.st8{fill:#695D67;}
	.st9{fill:#AA6B51;}
	.st10{fill:#955A44;}
	.st11{fill:#BB7B62;}
	.st12{fill:#60B7FD;}
	.st13{fill:#8AC9FE;}
	.st14{fill:#23A7FD;}
	.st15{fill:#0193F9;}
	.st16{fill:#5FB7FD;}
</style>
<g>
	<path class="st0" d="M8.8,92.7c0.6-0.3,1.2,0,1.8-0.2c0.2-0.2,0.4-0.3,0.7-0.3c2.4,0,4.9-0.2,7.3,0.2c2.5,0,4.9,0,7.4,0
		c5.2,0,10.5,0,15.7,0c0.1,0,0.3,0,0.4,0c0.5-0.1,1,0,1.5,0c10.7,0,21.3,0,32,0c2.1,0,4.2,0.1,6.3,0.3c0.9,0.3,1.2,0.9,1.2,1.8
		c0,1.3-0.1,2.6,0,3.9c0,0.9-0.2,1.6-1,2c-21.4,0-42.8,0-64.2,0c-0.9-0.2-1.2-0.8-1.2-1.6c0-1.5,0-2.9,0-4.4c0-0.5,0.2-0.9,0.5-1.3
		c-2.3,0-4.6,0-6.9,0C9.7,93,9.2,93.1,8.8,92.7z"/>
	<path class="st1" d="M8.8,92.7c2.9,0,5.7,0,8.9,0c-1,0.8-0.9,1.6-0.9,2.5c0,1,0.1,2.1,0,3.1c-0.1,0.9,0.2,1.6,1,2.1
		c-3.1,0-6.2,0-9.4,0c-0.7-0.6-0.8-1.3-0.8-2.2c0.1-1.3,0-2.6,0-3.9C7.6,93.4,7.9,92.8,8.8,92.7z"/>
	<path class="st2" d="M81.8,92.6c-5.3,0-10.6,0-15.9,0c-7.6,0-15.1,0-22.7,0c-0.4,0-0.8,0-1.3,0c-0.4-0.5-0.2-1-0.2-1.5
		c0-10.2,0-20.5,0-30.7c0-3.1-0.1-6.2,0-9.4c0-1.8-0.4-2.1-2.1-2.1c-6.3,0-12.6,0-18.9,0c-0.3,0-0.7,0-1,0.1
		c-0.3,0.1-0.5,0.2-0.8,0.1c-0.7-1.2,0.1-2.1,0.5-3c0.2-0.3,0.5-0.6,0.8-0.9c4.1-4.2,8.4-8.2,12.5-12.3c2.5-2.4,4.8-4.9,7.4-7.2
		c2.4-2.2,4.7-4.6,7.1-6.9c1-0.9,2-1.8,2.9-2.7c0.2-0.2,0.4-0.4,0.7-0.4c0.3,0,0.5,0.2,0.7,0.4c1.1,1.2,2.5,2.2,3.6,3.4
		c3.8,3.9,7.8,7.7,11.8,11.5c2.3,2.3,4.6,4.6,7,6.8c1.9,1.7,3.7,3.6,5.6,5.4c0.3,0.3,0.7,0.5,0.7,1c0,15,0,30.1,0,45.1
		c0,0.3,0,0.6,0,0.9c0,0.7-0.1,1.3,0.1,1.9C80.4,92.9,81.3,92.2,81.8,92.6z"/>
	<path class="st3" d="M50.8,15.8c-2.6,2.3-5,4.7-7.5,7.1c-3.1,3-6.1,6.1-9.3,9c-2.4,2.2-4.6,4.6-7,6.8c-2.4,2.2-4.6,4.6-7,6.8
		c-1,1-1.4,2.1-1.4,3.5c0.3,0.6,0.1,1.3,0.1,1.9c0,1.7,0,3.4,0,5.1c0.1,0.9,0,1.8,0,2.6c0,10.7,0,21.4,0,32.2c0,0.6,0.1,1.2-0.3,1.8
		c-2.7-0.2-5.3,0-8-0.1c0-16.1,0-32.1,0-48.2c-0.1-0.4,0.2-0.6,0.4-0.8c3.7-3.5,7.2-7.1,10.9-10.6c0.1-0.1,0.2-0.2,0.4-0.3
		c4.1-4.3,8.5-8.3,12.7-12.5c3.1-3,6.1-6.2,9.4-9.1c0.3-0.2,0.5-0.5,0.9-0.5c0.4,0,0.8,0.2,1.1,0.5c1.4,1.3,2.7,2.7,4.1,4.1
		C50.7,15.3,50.9,15.5,50.8,15.8z"/>
	<path class="st4" d="M45.3,10.7c-0.4,0.1-0.6,0.3-0.9,0.6C33.3,22.1,22.2,32.9,11.1,43.7c-0.2,0.2-0.3,0.4-0.5,0.6
		c-1,1-2.1,1.9-3,2.9c-2.1,2.2-4.9,1.7-6.3,0.2c-1.5-1.5-1.7-4.2,0.5-6.3C14,29.2,26.2,17.3,38.4,5.4c1.3-1.2,2.5-2.5,3.8-3.7
		c2-1.9,4.3-1.9,6.2,0c1.5,1.4,2.9,2.9,4.4,4.3c-0.2,0.3-0.5,0.3-0.8,0.2c-1.4-0.1-2.5,0.6-3.4,1.5c-0.7,0.7-1.5,1.5-2.2,2.2
		C46,10.2,45.7,10.5,45.3,10.7z"/>
	<path class="st5" d="M45.3,10.7c1.1-1.1,2.2-2.3,3.3-3.4c1.1-1.1,2.6-1.4,4.1-1.3c3.3,3.2,6.5,6.3,9.8,9.5c1.3,1.3,2.7,2.5,4,3.8
		c0.3,0,0.5,0.2,0.6,0.4c3.2,3.3,6.7,6.3,9.9,9.7c0.3,0.3,0.4,0.6,0.6,0.8c3.8,3.7,7.7,7.5,11.5,11.2c2.2,2.2,1.6,5.7-1.2,6.9
		c-1.6,0.7-3.2,0.4-4.5-0.8c-1.2-1.1-2.3-2.2-3.5-3.3c-3.3-3.3-6.6-6.5-9.9-9.8c-6.3-6.1-12.6-12.2-18.9-18.3
		c-0.1-0.1-0.3-0.2-0.4-0.4c-1.6-1.6-3.2-3.1-4.7-4.7C45.9,10.8,45.6,10.7,45.3,10.7z"/>
	<path class="st6" d="M77.7,30.2C74,26.6,70.2,23,66.6,19.3c0-3.7,0-7.4,0-11.1C66.8,8,67,7.9,67.2,7.9c1.6,0,3.3-0.1,4.9,0.1
		c0.5,0.4,0.4,0.9,0.4,1.4c0,2.9,0,5.8,0,8.8c0,1.2,0.3,2.1,1.2,2.9c1.1,1,2.1,2.1,3.1,3.1c0.4,0.3,0.7,0.7,0.9,1.2
		C77.7,27,77.7,28.6,77.7,30.2z"/>
	<path class="st7" d="M69.9,0.4c3.2,0,6.3,0,9.5,0c1,0,1.6,0.5,1.6,1.5c0,1.5,0,3.1,0,4.6c0,1-0.6,1.5-1.5,1.5c-0.6,0-1.1,0-1.7,0
		c-0.4,0.3-0.9,0.2-1.3,0.3c-2.1,0.1-4.2-0.2-6.3-0.2c-0.8,0-1.4-0.5-1.5-1.4c-0.2-1.7-0.1-3.4,0-5.1C68.8,0.9,69.2,0.5,69.9,0.4z"
		/>
	<path class="st8" d="M77.7,25.3c-1.7-1.6-3.3-3.3-5-4.9c-0.4-0.4-0.5-1-0.5-1.6c0-3.5,0-7.1,0-10.6c1.8-0.2,3.6-0.2,5.5,0
		C77.7,13.9,77.7,19.6,77.7,25.3z"/>
	<path class="st8" d="M77.7,8.2c-1.8,0-3.6,0-5.5,0c-1.9,0-3.8,0-5.6,0c-0.5,0-1,0-1.5-0.1c-1.1-0.1-1.7-0.6-1.7-1.7
		c0-1.5,0-2.9,0-4.4c0-1.2,0.6-1.7,1.8-1.7c1.6,0,3.2,0,4.8,0c-0.7,0.4-1,1.1-1,2c0.1,1.3,0,2.6,0,3.9c0,1.2,0.6,1.7,1.8,1.7
		c2.4,0,4.7,0,7.1,0C77.8,8,77.7,8.1,77.7,8.2z"/>
	<path class="st9" d="M41.8,92.6c-0.8,0.2-1.6,0.1-2.4,0.1c-4.4,0-8.9,0-13.3-0.1c-0.2-0.4-0.2-0.8-0.2-1.1c0-11.3,0-22.5,0-33.8
		c0-0.6-0.1-1.2,0.3-1.7c0.4-0.3,0.9-0.3,1.4-0.3c4.3,0,8.6,0,12.9,0c1.4,0,1.5,0.1,1.5,1.5c0,11.5,0,22.9,0,34.4
		C41.9,91.9,42,92.3,41.8,92.6z"/>
	<path class="st10" d="M26.2,56c0,11.8,0,23.6,0,35.5c0,0.4,0.1,0.8-0.2,1.1c-2.5,0.1-5,0.1-7.4,0c0-11.8,0-23.6,0-35.5
		c0-0.4,0-0.8,0-1.2c0.2-0.2,0.5-0.3,0.8-0.3c2,0,4.1,0,6.1,0c0.2,0,0.4,0.1,0.6,0.2C26.1,55.9,26.1,55.9,26.2,56z"/>
	<path class="st11" d="M41.8,92.6c0-11.9,0-23.7,0-35.6c0-0.8-0.2-1-1-1c-4.9,0-9.8,0-14.6,0c0,0,0,0,0,0c-0.2-0.3-0.3-0.6-0.3-0.9
		c0-1.7,0-3.4,0-5.2c0-0.3,0.1-0.6,0.3-0.9c-2,0.1-4,0.1-6,0c-0.3,0-0.6-0.1-0.8-0.3c0.3-0.3,0.7-0.2,1-0.2c6.6,0,13.2,0,19.8,0
		c1.4,0,1.8,0.4,1.8,1.9c0,14,0,28.1,0,42.1C42,92.6,41.9,92.6,41.8,92.6L41.8,92.6z"/>
	<path class="st12" d="M72,56c0,4.3,0,8.6,0,12.9c-0.2,0.5-0.7,0.5-1.1,0.5c-2.7,0-5.4,0-8.1,0c-1,0-1.3-0.3-1.3-1.3
		c0-3.7,0-7.5,0-11.2c0-0.3,0-0.6,0.2-0.9c0.4-0.3,0.8-0.3,1.2-0.3c2.6,0,5.2,0,7.8,0C71.2,55.7,71.7,55.6,72,56z"/>
	<path class="st12" d="M72,72c0,3.9,0,7.7,0,11.6c0,1.1-0.4,1.5-1.5,1.5c-2.9,0-5.8,0-8.7,0c-0.3-0.3-0.3-0.8-0.3-1.2
		c0-3.5,0-7.1,0-10.6c0-1.3,0.2-1.5,1.5-1.5c2.6,0,5.1,0,7.7,0C71.3,71.7,71.7,71.7,72,72z"/>
	<path class="st13" d="M72,72c-3.1,0-6.2,0-9.3,0c-0.7,0-0.9,0.2-0.9,0.9c0,4.1,0,8.1,0,12.2c-1,0-2.1,0-3.1,0
		c-0.4-0.4-0.3-1-0.3-1.5c0-3.2,0-6.4,0-9.6c0-1.6-0.1-1.7-1.5-1.7c-0.2,0-0.4,0-0.6-0.1c-0.1-0.1-0.2-0.1-0.3-0.2
		c-0.2-1-0.4-2,0.1-2.9c0.3-0.2,0.7-0.3,1.1-0.2c0.9,0.1,1.1-0.3,1.1-1.2c0-3.4,0-6.8,0-10.1c0-0.5-0.1-1,0.3-1.5
		c1.1-0.4,2.1-0.5,3.2,0.1c0,4,0,8,0,12.1c0,0.7,0.1,1,0.9,1c2.8-0.1,5.5,0,8.3,0c0.3,0,0.6,0,0.9-0.2C72,69.9,72,71,72,72z"/>
	<path class="st14" d="M61.9,56c-1,0-2.1,0-3.1,0c-0.9,0.4-1.7,0.4-2.6,0C56,55.8,56,55.6,56,55.3c-0.1-1.8-0.1-3.6,0-5.3
		c0-0.4,0.2-0.8,0.5-1.1c0-0.1,0,0-0.1,0c-2.3,0.2-4.7,0.5-7-0.1c0.2-0.2,0.5-0.2,0.7-0.2c6.8,0,13.6,0,20.4,0
		c1.2,0,1.6,0.4,1.6,1.6c0,1.9,0,3.8,0,5.7C68.6,56,65.3,56,61.9,56z"/>
	<path class="st14" d="M57,85c-2.3,0-4.7,0-7,0c-0.6,0-1-0.1-1.2-0.8c-0.2-1.7,0-3.4-0.1-5c0-2.2,0-4.4,0-6.6c0-0.5,0.1-0.9,0.7-0.9
		c2.1-0.1,4.2-0.1,6.3,0c0.2,0,0.4,0.1,0.5,0.3l0,0c0.4,0.4,0.3,0.9,0.3,1.4c0,2.7,0,5.4,0,8.1C56.5,82.7,56.5,83.9,57,85z"/>
	<path class="st9" d="M19.3,48.8c2.4,0,4.7,0,7,0c-0.3,2.5-0.1,4.9-0.2,7.2c-2.5,0-5.1,0-7.6,0c0-2,0-4,0-6.1c0-0.3,0.1-0.6,0.2-0.9
		C19,48.9,19.1,48.8,19.3,48.8z"/>
	<path class="st15" d="M49.4,48.8c2.4,0,4.8,0,7.4,0c-0.6,0.6-0.5,1.2-0.5,1.8c0,1.8,0,3.6,0,5.5c0,0-0.1,0.1-0.1,0.1
		c-0.6,0.3-1.2,0.2-1.8,0.2c-1.8-0.1-3.6,0.2-5.3-0.1c-0.1-0.1-0.2-0.2-0.2-0.3c0-2.2-0.1-4.3,0.1-6.5C48.9,49,49.1,48.8,49.4,48.8z
		"/>
	<path class="st12" d="M57,85c-0.6-0.4-0.8-1-0.8-1.7c0-3.8,0-7.6,0-11.4c2.5,0,2.6,0,2.5,2.5c0,3.5,0,7,0,10.5
		C58.2,85,57.6,85,57,85z"/>
	<path class="st16" d="M56.2,72c-2.1,0-4.2,0.1-6.3,0c-0.9,0-1.1,0.3-1.1,1.2c0,3.7,0,7.5,0,11.2c-0.2-0.2-0.2-0.4-0.2-0.6
		c0-9.2,0-18.5,0-27.7c0.1-0.1,0.1-0.1,0.2,0l0,0c0.4,0.4,0.3,1,0.3,1.5c0,3,0,6,0,9c0,2.2-0.1,2,2,2c1.3,0,2.5,0,3.8,0
		c0.4,0,0.8,0,1.2,0.2c0.1,0.1,0.2,0.2,0.1,0.3C56.2,70.1,56.2,71,56.2,72z"/>
	<path class="st14" d="M48.8,56c-0.1,0-0.1,0-0.2,0c0-1.9,0-3.9,0-5.8c0-0.3-0.1-0.6,0.2-0.8C48.8,51.6,48.8,53.8,48.8,56z"/>
	<path class="st2" d="M33.8,75.2c-1.7,0-3.1-1.3-3.1-3c0-1.6,1.3-3,3-3c1.7,0,3,1.3,3,3C36.8,73.9,35.5,75.2,33.8,75.2z"/>
	<path class="st12" d="M56.2,69.1c0-0.1,0-0.1,0-0.2c-0.3-0.4-0.3-0.8-0.3-1.3c0-3.4,0-6.9,0-10.3c0-0.5,0-0.9,0.3-1.3c0,0,0,0,0,0
		c0.8,0,1.7,0,2.5,0c0,4,0,8,0,12c0,0.9-0.2,1.2-1.1,1.1C57.2,69,56.7,69.1,56.2,69.1z"/>
	<path class="st14" d="M56.2,56c0,4.3,0,8.6,0,12.9c-2.2,0-4.3,0-6.5,0c-0.7,0-0.9-0.2-0.9-0.9c0-4,0-8,0-12
		C51.3,56,53.8,56,56.2,56z"/>
</g>
</svg>
