<?xml version="1.0" encoding="utf-8"?>
<!-- Generator: Adobe Illustrator 24.2.3, SVG Export Plug-In . SVG Version: 6.00 Build 0)  -->
<svg version="1.1" id="Capa_1" xmlns="http://www.w3.org/2000/svg" xmlns:xlink="http://www.w3.org/1999/xlink" x="0px" y="0px"
	 viewBox="0 0 83.1 100.6" style="enable-background:new 0 0 83.1 100.6;" xml:space="preserve">
<style type="text/css">
	.st0{fill:#000100;}
	.st1{fill:#F5A21A;}
	.st2{fill:#E84958;}
	.st3{fill:#EB6471;}
	.st4{fill:#F6EB67;}
	.st5{fill:#FAD108;}
</style>
<g>
	<path class="st0" d="M11.3,71.7c-0.9-0.9-1-1.2-0.4-2.3c1.2-2,2.3-4.1,3.5-6.1c0.3-0.6,0.2-0.9-0.2-1.3c-5.3-5.9-8.5-12.7-9.3-20.5
		c-1.1-10.1,1.5-19.3,7.8-27.3c1.4-1.8,3-3.5,4.8-5c0.9-0.8,1.4-0.8,2.4-0.1c0.7,0.4,0.6,1,0.4,1.6c-0.2,0.5-0.6,0.8-0.9,1.1
		c-3.1,2.8-5.7,6-7.6,9.7C9.7,25.4,8.4,29.6,8,34c-0.6,6.1,0.5,12,3,17.6c1.4,3.1,3.3,5.9,5.7,8.5c2.9,3.1,6.3,5.7,10.2,7.6
		c5.3,2.6,10.8,3.8,16.7,3.3c12.1-1,21.2-6.8,27.4-17.2c2.4-4.2,3.7-8.7,4.2-13.5c0.6-6.4-0.6-12.4-3.4-18.1c-2.3-4.8-5.7-8.8-10-12
		c-4.8-3.7-10.3-5.8-16.3-6.5C38.9,2.8,32.6,4,26.7,6.8c-0.6,0.3-1.1,0.6-1.7,0.8c-0.9,0.4-1.5,0.1-2-0.8c-0.2-1.3-0.1-1.6,1.1-2.3
		C45.4-6.9,72.2,5.3,77.4,28.9c2.7,12.4-0.2,23.5-8.6,33.1c-0.4,0.5-0.5,0.8-0.2,1.4c4.6,7.9,9.1,15.7,13.6,23.6
		c0.3,0.4,0.6,0.9,0.4,1.4c-0.2,1-1,1.4-2.2,1.1c-3.3-0.7-6.7-1.5-10-2.2c-1.9-0.4-1.9-0.4-2.5,1.4c-1,3.2-2,6.3-3,9.5
		c-0.3,0.9-0.7,1.7-1.7,1.9c-0.1,0-0.3,0-0.4,0c-0.5-0.2-0.9-0.4-1.2-0.9c-0.7-1.3-1.5-2.6-2.2-3.9c-0.5-1.1-0.4-1.6,0.5-2.4
		c1.4-0.7,2.1,0.3,2.9,1.4c0.4-0.8,0.5-1.6,0.7-2.4c0.7-2.2,1.4-4.5,2.1-6.7c0.4-1.3,1-1.7,2.3-1.6c3.2,0.7,6.3,1.4,9.6,2.1
		c-0.3-0.9-0.9-1.6-1.3-2.4c-3.2-5.6-6.4-11.2-9.7-16.8c-0.9-1.6-0.7-1.4-2-0.4c-3.8,3-8,5.3-12.7,6.7c-1.4,0.4-1.4,0.4-0.6,1.7
		c2.4,4.1,4.8,8.3,7.1,12.4c0.8,1.5,0.7,2-0.4,2.9c-1.3,0.2-1.7,0.1-2.4-1.1c-2.7-4.5-5.2-9.1-7.8-13.6c-0.5-0.9-1-1.2-2.1-1.1
		c-3.1,0.4-6.3,0.4-9.4-0.1c-0.6-0.1-0.9,0.2-1.2,0.7c-2.2,3.9-4.4,7.7-6.7,11.6c-2.4,4.2-4.8,8.4-7.3,12.6c-0.3,0.6-0.7,1-1.4,1.2
		c-0.3,0-0.7,0-1,0c-0.6-0.4-0.8-0.9-1-1.6c-1.1-3.6-2.3-7.2-3.4-10.8c-0.2-0.5-0.3-0.7-0.9-0.6c-3.8,0.9-7.6,1.7-11.4,2.5
		c-0.7,0.2-1.3,0.1-1.7-0.5c-0.4-0.6-0.4-1.2,0-1.8c2.2-3.8,4.4-7.6,6.6-11.5c0.5-0.9,1.2-1.2,2.1-0.8c1,0.4,1.2,1.1,0.8,2.1
		c-0.8,1.8-1.9,3.4-2.9,5.1c-0.6,1.1-1.3,2.2-1.9,3.4c0.9,0,1.6-0.2,2.3-0.4c2.3-0.6,4.6-1.1,6.9-1.5c1-0.2,2-0.2,2.5,0.9
		c1.1,3.1,2,6.4,3.1,9.7c0.6-0.7,0.9-1.4,1.3-2.1c3.2-5.6,6.4-11.2,9.6-16.8c0.3-0.5,0.5-1,0.8-1.4c0.4-0.5,0.2-0.8-0.4-1
		c-1.5-0.5-3-1-4.5-1.6c-3.3-1.4-6.3-3.3-9-5.5c-0.9-0.8-1-0.7-1.5,0.3c-1,1.7-1.9,3.3-2.9,5C12.9,72.2,12.1,72.3,11.3,71.7z"/>
	<path class="st1" d="M23,6.8c0.9,0.9,1.3,1,2.5,0.3c17.7-9.3,39.3-1.7,47.2,16.6c8.6,20-3.8,43-25.2,46.9
		c-18.5,3.3-36.3-8.9-39.4-27.5C6,30.7,9.9,20.1,19.2,11.5c1.1-1,1.2-1.3,0.7-2.5C20.9,8.3,22,7.6,23,6.8z"/>
	<path class="st2" d="M7.4,85.5c-0.8,0.2-1.7,0.4-2.7,0.7c0.7-1.2,1.2-2.1,1.8-3.1c1.1-1.9,2.2-3.8,3.3-5.7c0.6-1.1,0.5-1.6-0.4-2.4
		c0.7-1.1,1.3-2.2,2-3.4c1.2,0.3,1.6,0.2,2.2-0.9c1.2-2,2.3-4,3.5-6c3.3,2.9,6.8,5.2,10.8,6.7c1.4,0.5,2.7,1,4.1,1.4
		c0.5,0.2,0.7,0.3,0.4,0.8c-0.4,0.6-0.7,1.2-1.1,1.8c-0.8,0.2-1.5-0.2-2.2-0.4c-3.9-1.2-7.6-3-11-5.4c-1-0.7-1.1-0.7-1.7,0.4
		c-2.8,4.8-5.5,9.7-8.4,14.5C7.8,85,7.6,85.3,7.4,85.5z"/>
	<path class="st3" d="M67,66.4c3.2,5.6,6.4,11.2,9.6,16.8c-0.2,0.7-0.7,0.3-1,0.3c-1.5-0.3-3.1-0.7-4.6-1c-1.4-0.3-2-0.7-2.6,1.1
		c0,0.1-0.1,0.1-0.2,0.2c-1.4,0-1.7,0.2-2.1,1.6c-0.7,2.3-1.5,4.5-2.2,6.8c-0.6,0.2-0.7-0.3-0.9-0.7c-2.4-4.1-4.7-8.2-7.1-12.3
		c-0.7-1.2-1.5-2.4-2.1-3.7c-0.5-1-0.4-1.2,0.6-1.6c4.4-1.6,8.3-4,11.8-7.1C66.5,66.6,66.7,66.3,67,66.4z"/>
	<path class="st3" d="M7.4,85.5c0.6-1.7,1.7-3.1,2.6-4.7c2.1-3.8,4.3-7.5,6.5-11.3c0.4-0.7,0.6-0.8,1.3-0.3c4.1,3,8.6,5,13.5,6.3
		c-2.2,3.8-4.4,7.7-6.5,11.5c-1,1.8-2.1,3.5-3.1,5.3c-0.5-0.1-0.5-0.6-0.6-0.9c-0.6-1.7-1-3.4-1.6-5.1c-0.4-1.3-0.4-1.3-1.8-1.2
		c-0.3,0-0.5,0-0.7-0.2c-0.6-1.1-1-1.2-2.3-0.9C12.1,84.5,9.7,85,7.4,85.5z"/>
	<path class="st2" d="M67,66.4c-3.8,3.4-8,6.1-12.8,7.8c-0.6,0.2-0.6,0.5-0.3,1c1.4,2.4,2.8,4.8,4.2,7.3c1.6,2.9,3.3,5.7,4.9,8.6
		c0.2,0.4,0.4,0.9,0.9,1.1c-0.3,0.9-0.5,1.7-0.9,2.8c-0.7-1.1-1.2-2.6-2.8-1.9c-0.6-1.1-1.3-2.2-1.9-3.3c0.9-0.9,1-1.3,0.3-2.5
		c-2.5-4.4-5.1-8.8-7.6-13.2c-0.2-0.3-0.3-0.6-0.5-1c2.4-0.6,4.6-1.4,6.8-2.5c2.9-1.4,5.6-3.1,8-5.2c0.7-0.6,1.1-0.6,1.4,0.2
		C66.8,65.9,66.9,66.2,67,66.4z"/>
	<path class="st2" d="M16.8,84.9c0.1,0,0.2,0,0.3,0c2-0.2,2-0.2,2.6,1.8c0.6,1.9,1.2,3.7,1.9,5.6c-0.5,0.8-0.9,1.7-1.6,2.8
		C18.9,91.5,17.8,88.2,16.8,84.9z"/>
	<path class="st2" d="M68.3,83.8c0.1-0.4,0.2-0.8,0.3-1.2c0.2-0.6,0.6-0.8,1.3-0.7c2.1,0.5,4.1,0.9,6.2,1.4c0.2,0.1,0.4,0.1,0.6-0.1
		c0.5,0.9,1.1,1.8,1.8,3C74.9,85.3,71.6,84.5,68.3,83.8z"/>
	<path class="st0" d="M64.7,47.5c1,0.9,1.1,1.3,0.4,2.4c-5.4,9.4-13.5,14.3-24.3,14.1c-13-0.2-23.7-9.7-25.8-22.5
		c-2.4-14.3,7.5-28.4,21.8-30.8C51.7,8.2,65.6,18,68,32.9c0.5,3.1,0.5,6.2-0.1,9.2c-0.3,1.3-0.6,1.6-1.9,1.6c-1-0.2-1.4-0.8-1.2-1.9
		c0.2-1.3,0.3-2.6,0.4-4c0.2-6.8-2.1-12.5-6.8-17.4c-4-4.1-8.9-6.4-14.5-6.9c-7.1-0.6-13.4,1.5-18.6,6.5c-4.1,3.9-6.5,8.8-7.1,14.4
		c-0.8,7.6,1.5,14.3,7,19.7c3.9,3.8,8.5,6,13.8,6.6c6.7,0.7,12.8-1.1,18-5.6c2.2-1.8,3.9-4,5.2-6.5c0.2-0.4,0.5-0.8,0.8-1.1
		C63.5,47.2,64.1,47,64.7,47.5z"/>
	<path class="st4" d="M64.7,47.5c-1.1-0.3-1.7,0.3-2.2,1.2c-4,7-9.9,11.1-17.9,12.3C32.7,62.7,21,54.6,18.3,42.9
		c-3.1-13.3,4.9-26,18.1-29.1c12.8-3,26.1,5.7,28.6,18.7c0.6,3.1,0.6,6.1,0,9.2c-0.2,0.9,0,1.7,1,2.1C65.8,45.1,65.3,46.3,64.7,47.5
		z"/>
	<path class="st5" d="M20.9,46.1c-1.2-3.1-1.9-6.3-1.8-9.6c0.2-5.1,1.9-9.7,5.2-13.7c3.3-4,7.6-6.5,12.7-7.7c4.5-1,9-0.5,13.2,1.3
		c5,2.1,8.7,5.6,11.2,10.3c2.1,4,3,8.3,2.4,12.8c-0.2,1.9-0.6,3.8-1.3,5.7c-0.1,0.3-0.3,0.6-0.5,0.8c-0.3,0.7-0.8,1.4-1.4,2
		c-4.1,4.5-9.1,7.3-15.1,8.2c-7.4,1.1-14-0.7-19.9-5.3C23.7,49.7,22.2,48,20.9,46.1z"/>
	<path class="st1" d="M20.9,46.1c0.5,0,0.6,0.5,0.9,0.8c3.9,4.8,8.8,7.7,14.8,9c3.5,0.7,6.9,0.7,10.4-0.1c5.3-1.2,9.8-3.9,13.5-7.9
		c0.5-0.6,1-1.2,1.6-1.8c-0.4,1.7-1.4,3-2.3,4.3c-3.4,4.6-7.8,7.6-13.4,8.8c-7.1,1.5-13.6-0.1-19.2-4.8
		C24.3,52.1,22.3,49.3,20.9,46.1z"/>
	<path class="st0" d="M57.9,32.2c0,0.6-0.4,1-0.7,1.3c-2,2-4,4-6.1,5.9c-0.4,0.4-0.5,0.7-0.4,1.3c0.5,2.8,1,5.7,1.5,8.5
		c0.1,0.7,0,1.2-0.5,1.6c-0.6,0.4-1.1,0.4-1.7,0c-2.5-1.3-5.1-2.7-7.6-4c-0.6-0.3-1-0.3-1.5,0c-2.4,1.3-4.9,2.6-7.3,3.9
		c-0.7,0.4-1.3,0.6-2,0.1c-0.6-0.5-0.6-1.1-0.5-1.8c0.5-2.8,0.9-5.6,1.5-8.4c0.1-0.6-0.1-0.9-0.5-1.3c-2-1.9-4-3.9-6-5.8
		c-0.5-0.5-0.9-1-0.7-1.8c0.3-0.8,0.9-1,1.7-1.1c2.8-0.4,5.7-0.8,8.5-1.2c0.5-0.1,0.7-0.4,0.9-0.8c1.2-2.5,2.5-5.1,3.7-7.6
		c0.3-0.6,0.7-1.2,1.5-1.2c0.8,0,1.2,0.5,1.5,1.2c1.2,2.5,2.5,5.1,3.7,7.6c0.3,0.5,0.6,0.7,1.2,0.8c2.8,0.4,5.7,0.8,8.5,1.2
		C57.3,30.8,57.9,31.5,57.9,32.2z"/>
	<path class="st1" d="M48.8,47.1c-2.1-1.1-4.1-2.1-6-3.2c-0.9-0.5-1.7-0.5-2.5,0c-1.9,1.1-3.9,2.1-6,3.2c0.4-2.2,0.7-4.3,1.1-6.4
		c0.2-1.2,0-2-0.9-2.9c-1.5-1.5-2.9-3.1-4.3-4.6c1-0.2,2.3-0.4,3.6-0.6c1-0.1,1.9-0.3,2.9-0.4c0.8-0.1,1.3-0.5,1.6-1.2
		c1-2.1,2-4.1,3.1-6.3c1,2.1,2,4,2.9,6c0.5,1,1.1,1.5,2.2,1.6c2.2,0.2,4.3,0.6,6.2,0.9c-1.4,1.5-2.8,3.1-4.3,4.6
		c-0.9,0.8-1.1,1.7-0.9,2.9C48.1,42.7,48.4,44.8,48.8,47.1z"/>
</g>
</svg>
