<?xml version="1.0" encoding="utf-8"?>
<!-- Generator: Adobe Illustrator 24.2.3, SVG Export Plug-In . SVG Version: 6.00 Build 0)  -->
<svg version="1.1" id="Capa_1" xmlns="http://www.w3.org/2000/svg" xmlns:xlink="http://www.w3.org/1999/xlink" x="0px" y="0px"
	 viewBox="0 0 100.6 100.6" style="enable-background:new 0 0 100.6 100.6;" xml:space="preserve">
<style type="text/css">
	.st0{fill:#000100;}
	.st1{fill:#FFFFFF;}
	.st2{fill:#FBC87C;}
	.st3{fill:#EF818C;}
	.st4{fill:#CFEAF6;}
	.st5{fill:#010101;}
</style>
<g>
	<path class="st0" d="M74.9,100.2c-16.5,0-32.9,0-49.4,0c-4.6-0.9-7.1-4-7.1-8.7c0-3.6,0-7.3,0-10.9c0-1.2,0-1.1-1.2-1.2
		c-1.3-0.1-2.2,0.3-3.1,1.3c-1.2,1.3-2.5,2.5-3.7,3.7c-0.8,0.8-1.7,1.1-2.7,0.7c-1.1-0.4-1.3-1.4-1.3-2.4c0-0.7,0-1.4,0-2
		c0.1-0.8-0.2-1.2-1.1-1.4c-1.9-0.3-3.3-1.3-4.3-3c-0.4-0.6-0.3-1.2-0.6-1.8c0-6,0-12,0-18c0.8-3.4,2.9-5,6.4-5c3.2,0,6.5,0,9.7,0
		c1.9,0,1.9,0,1.9-1.9c0-13.6,0-27.1,0-40.7c0-1.6,0.3-3.2,1.1-4.6c1.4-2.4,3.4-3.9,6.2-4.1c16.4,0,32.8,0,49.2,0
		C79.7,1,82.2,4.1,82.2,9c0,3.3,0,6.7,0,10c0,1.2,0.1,1.2,1.2,1.2c3.6,0,7.2,0,10.8,0c2.3,0,4.2,1,5.4,3c0.4,0.7,0.4,1.4,0.6,2.1
		c0,5.9,0,11.8,0,17.8c-0.5,2.8-2.3,4.4-5,4.9c-0.8,0.2-1,0.5-1,1.3c0,0.8,0,1.6,0,2.4c-0.1,0.9-0.4,1.7-1.4,2.1
		c-0.9,0.3-1.8,0.2-2.5-0.5c-1.5-1.4-2.9-2.9-4.3-4.3c-1-1.1-2.2-0.8-3.4-0.8c-0.4,0-0.4,0.3-0.5,0.6c0,0.4,0,0.7,0,1.1
		c0,13.9,0,27.9,0,41.8c0,3.3-1.4,5.9-4.3,7.6C77,99.9,76,100,74.9,100.2z"/>
	<path class="st1" d="M57.1,14.6c0.3,1.5,0.9,1.9,2.4,1.9c5.9,0,11.7,0,17.6,0c0.8,0,1,0.2,0.9,1c-0.1,0.7-0.1,1.4,0,2.1
		c0.1,0.7-0.2,0.8-0.9,0.8c-7.4,0-14.8,0-22.3,0c-4.1,0-6.6,2.4-6.6,6.5c0,4.8,0,9.6,0,14.4c0,3.9,2.5,6.4,6.3,6.4
		c7.5,0,15,0,22.5,0c0.7,0,0.9,0.2,0.9,0.9c0,11.4,0,22.8,0,34.2c0,0.7-0.2,0.9-0.9,0.9c-17.9,0-35.8,0-53.7,0c-0.7,0-1-0.2-0.9-0.9
		c0.1-1,0.1-2,0-2.9c-0.1-0.7,0.2-0.9,0.9-0.9c7.5,0,14.9,0,22.4,0c1.5,0,2.8-0.3,4-1.2c1.6-1.2,2.4-2.8,2.4-4.8
		c0-5.1,0-10.2,0-15.3c0-3.5-2.6-6-6.1-6c-7.5,0-15.1,0-22.6,0c-0.7,0-1-0.1-1-0.9c0-11.1,0-22.2,0-33.3c0-0.7,0.1-1,0.9-1
		c5.9,0,11.7,0,17.6,0c1.5,0,2.1-0.5,2.4-1.9c0.3-0.3,0.7-0.3,1.1-0.3c1.2,0,2.4-0.1,3.5,0.1c0.4,0.1,0.5,0.6,0.7,0.9
		c0.3,0.6,0.8,1,1.5,1c0.7,0,1.2-0.4,1.5-0.9c0.2-0.3,0.2-0.8,0.7-0.9c1.3-0.2,2.6-0.1,3.9-0.1C56.7,14.4,56.9,14.4,57.1,14.6z"/>
	<path class="st2" d="M10.5,78.4c0-0.6,0-0.9,0-1.2c-0.1-1.2-0.8-1.9-2-2c-0.6,0-1.2,0-1.9,0c-1.7,0-2.4-0.7-2.4-2.5
		c0-4.9,0-9.8,0-14.6c0-1.7,0.7-2.4,2.4-2.4c10.3,0,20.6,0,30.9,0c2.8,0,5.5,0,8.3,0c1.7,0,2.4,0.7,2.4,2.4c0,4.9,0,9.8,0,14.6
		c0,1.7-0.8,2.4-2.4,2.4c-10.1,0-20.3,0-30.4,0c-1.3,0-2.3,0.3-3.1,1.3C11.9,77,11.2,77.6,10.5,78.4z"/>
	<path class="st3" d="M89.9,46.9c-0.7-0.7-1.4-1.4-2-2.1c-0.6-0.7-1.3-0.9-2.2-0.9c-10.2,0-20.4,0-30.6,0c-2.1,0-2.7-0.6-2.7-2.7
		c0-4.7,0-9.5,0-14.2c0-1.8,0.7-2.6,2.5-2.6c13,0,26,0,39,0c1.9,0,2.6,0.7,2.6,2.5c0,4.8,0,9.7,0,14.5c0,1.8-0.7,2.5-2.5,2.5
		c-0.5,0-0.9,0-1.4,0c-1.7,0-2.4,0.7-2.4,2.4c0,0.2,0,0.4,0,0.6C90.1,46.9,90,46.9,89.9,46.9z"/>
	<path class="st4" d="M57.1,14.6c-1.6,0-3.2,0-4.8,0c-0.3-0.2-0.3-0.5-0.5-0.7c-0.3-0.6-0.9-1-1.6-1c-0.7,0-1.2,0.3-1.5,1
		c-0.1,0.3-0.2,0.6-0.5,0.7c-1.6,0-3.2,0-4.8,0c-0.3-1.5-0.9-2-2.4-2c-5.9,0-11.7,0-17.6,0c-0.7,0-1-0.2-1-0.9c0.1-0.9,0-1.9,0-2.8
		c0-3.1,1.7-4.8,4.8-4.8c9.8,0,19.6,0,29.5,0c5.5,0,11,0,16.5,0c3,0,4.7,1.8,4.7,4.7c0,1,0,2,0,3c0,0.7-0.2,0.8-0.9,0.8
		c-5.9,0-11.8,0-17.7,0C58,12.7,57.4,13.2,57.1,14.6z"/>
	<path class="st4" d="M50.4,87.7c8.9,0,17.8,0,26.7,0c0.7,0,1,0.1,1,0.9c-0.1,1.1,0,2.3,0,3.4c-0.1,2.4-1.9,4.3-4.3,4.3
		c-15.6,0-31.2,0-46.8,0c-2.5,0-4.3-1.9-4.3-4.3c0-1.1,0-2.3,0-3.4c0-0.7,0.2-0.8,0.9-0.8C32.4,87.7,41.4,87.7,50.4,87.7z"/>
	<path class="st5" d="M48.3,14.6c0.3-1.3,0.9-1.9,1.9-1.9c1.1,0,1.7,0.6,2,1.9c-0.3,1.3-1,2-2,1.9C49.3,16.6,48.6,15.9,48.3,14.6z"
		/>
	<path class="st5" d="M36.2,63.5c1.1,0,2,0.9,2,2c0,1-0.9,1.9-1.9,1.9c-1.1,0-2-0.9-2-2C34.3,64.3,35.2,63.5,36.2,63.5z"/>
	<path class="st5" d="M18.3,65.4c0,1-0.9,1.9-1.9,2c-1.1,0-2-0.8-2-1.9c0-1.1,0.8-1.9,1.9-2C17.3,63.4,18.3,64.3,18.3,65.4z"/>
	<path class="st5" d="M26.2,67.3c-1.1,0-1.9-1-1.9-2c0-1,0.9-1.9,2-1.9c1,0,1.9,0.9,1.9,1.9C28.2,66.5,27.3,67.4,26.2,67.3z"/>
	<path class="st0" d="M74.4,28.3c5.1,0,10.1,0,15.2,0c1.7,0,2.7,1.5,2,2.9c-0.4,0.8-1.2,1-2.1,1c-5.1,0-10.1,0-15.2,0
		c-5.1,0-10.2,0-15.3,0c-1.6,0-2.5-1.2-2.1-2.5c0.3-0.9,1-1.4,2.2-1.4C64.2,28.3,69.3,28.3,74.4,28.3z"/>
	<path class="st0" d="M84.3,40c-1.8,0-3.5,0-5.3,0c-1.3,0-2.2-0.8-2.2-2c0-1.2,0.9-1.9,2.2-1.9c3.5,0,7,0,10.5,0
		c1.3,0,2.2,0.8,2.3,1.9c0,1.2-0.9,2-2.3,2C87.8,40,86.1,40,84.3,40z"/>
	<path class="st0" d="M64,40c-1.7,0-3.3,0-5,0c-1.3,0-2.2-0.9-2.2-2c0-1.1,0.9-1.9,2.2-1.9c3.3,0,6.7,0,10,0c1.3,0,2.2,0.9,2.2,2
		c0,1.1-0.9,1.9-2.2,1.9C67.3,40,65.6,40,64,40z"/>
	<path class="st5" d="M48.3,91.9c0-1.1,0.9-1.9,1.9-1.9c1.1,0,2,0.9,2,2c0,1-0.9,1.9-2,1.9C49.2,93.9,48.3,93,48.3,91.9z"/>
</g>
</svg>
