<?xml version="1.0" encoding="utf-8"?>
<!-- Generator: Adobe Illustrator 24.2.3, SVG Export Plug-In . SVG Version: 6.00 Build 0)  -->
<svg version="1.1" id="Capa_1" xmlns="http://www.w3.org/2000/svg" xmlns:xlink="http://www.w3.org/1999/xlink" x="0px" y="0px"
	 viewBox="0 0 91 100.6" style="enable-background:new 0 0 91 100.6;" xml:space="preserve">
<style type="text/css">
	.st0{fill:#000100;}
	.st1{fill:#6A5D67;}
	.st2{fill:#DEEAF8;}
	.st3{fill:#B1D9F4;}
	.st4{fill:#AA6B52;}
	.st5{fill:#E84A5A;}
	.st6{fill:#57B688;}
	.st7{fill:#EB6571;}
	.st8{fill:#955B44;}
	.st9{fill:#BB7C62;}
	.st10{fill:#544E55;}
	.st11{fill:#7A6C78;}
	.st12{fill:#32AB66;}
	.st13{fill:#A96A51;}
	.st14{fill:#685D67;}
	.st15{fill:#6EB1E2;}
	.st16{fill:#4A9ED7;}
	.st17{fill:#499FD8;}
	.st18{fill:#3F86C6;}
	.st19{fill:#DCE8F7;}
</style>
<g>
	<path class="st0" d="M9.4,100.2c-1.6-0.8-2.3-2-2.2-3.8c0.1-1.2,0-2.4,0-3.6c0-1.4,0.8-2.5,2.2-2.8c0.6-0.1,0.7-0.4,0.7-0.9
		c0-3.2,0-6.4,0-9.6c0-10.2,0-20.4,0-30.5c0-0.3,0-0.6,0-0.9c-0.4-0.1-0.5,0.2-0.7,0.4c-2.4,2.3-5.8,2.3-7.9,0.1
		c-2.2-2.3-2.1-5.7,0.3-8c5.4-5.3,10.8-10.5,16.2-15.8c7.7-7.5,15.3-14.9,23-22.4c2.7-2.7,5.8-2.7,8.5,0c4.9,4.8,9.8,9.6,14.8,14.3
		c0.3-0.1,0.2-0.3,0.2-0.5c0-1.6,0-3.2,0-4.8c0-0.4-0.1-0.7-0.6-0.8c-1.6-0.3-2.5-1.2-2.5-2.8c-0.1-1.5-0.1-3.1,0-4.6
		c0.1-1.7,1.3-2.9,3-2.9c4.7,0,9.3,0,14,0c1.8,0,3,1.2,3,3c0,1.4,0,2.9,0,4.3c0,1.7-0.9,2.7-2.6,3c-0.5,0.1-0.6,0.3-0.5,0.7
		c0,0.9,0,1.8,0,2.6c0,0.8-0.3,1.4-1.1,1.6c-1.2,0.3-1.6,0.1-2-1.2c0-0.9,0-1.8,0-2.6c0-0.6-0.2-0.8-0.8-0.8c-1.9,0-3.8,0-5.7,0
		c-0.7,0-0.9,0.3-0.9,1c0,2.3,0,4.5,0,6.8c0,0.6,0.4,1.1,0.8,1.5c2.2,2.2,4.3,4.4,6.6,6.4c0.1-1.9,0-3.9,0-5.8
		c0.4-1.2,0.8-1.5,2-1.2c0.9,0.2,1.1,1,1.1,1.8c0,2.6,0,5.2,0,7.8c0,0.7,0.2,1.2,0.7,1.7c3.4,3.2,6.7,6.4,10,9.7
		c2.5,2.5,2.2,6.4-0.5,8.4c-2.1,1.5-4.9,1.4-6.8-0.3c-0.3-0.3-0.6-0.6-0.9-0.8c-0.3,0.3-0.2,0.6-0.2,0.9c0,13.4,0,26.7,0,40.1
		c0,0.7,0.1,1,0.8,1.2c1.2,0.3,2,1.4,2,2.7c0,1.6,0,3.1,0,4.7c0,1.4-1,2.2-2.1,2.8C57.3,100.2,33.4,100.2,9.4,100.2z"/>
	<path class="st1" d="M77.2,19.5c-0.9-0.1-1.6,0.2-1.8,1.2c-0.1,1,0,2-0.1,3c0,0.2,0.1,0.6-0.2,0.7c-0.2,0.1-0.4-0.1-0.6-0.2
		c-0.9-0.9-1.9-1.8-2.7-2.8c-0.4-0.5-0.6-1.1-0.6-1.7c0-2.6,0-5.3,0-7.9c0-1,0.1-1.1,1.1-1.1c0.7,0,1.4,0,2,0c0.7-0.1,1,0.1,0.9,0.9
		c0,0.9-0.1,1.8,0,2.7c0.2,1,0.9,1.3,1.8,1.2c-0.3,0.2-0.4,0.4-0.4,0.7c0,0.9,0,1.8,0,2.7C76.8,19.2,76.9,19.4,77.2,19.5z"/>
	<path class="st2" d="M28.8,48.5c-0.2-1-0.8-1.4-1.8-1.4c-2.3,0-4.7,0-7,0c-0.4-0.6,0.1-1.1,0.4-1.4c1.4-1.5,2.8-2.9,4.3-4.2
		c0.2-0.2,0.5-0.4,0.7-0.6c4-4.2,8.3-8.1,12.4-12.2c3.6-3.5,7.1-7.2,10.9-10.6c0.2-0.2,0.4-0.5,0.8-0.4c3,2.9,6,5.8,9,8.7
		c6.1,6,12.3,11.9,18.4,17.9c0.5,0.4,0.7,0.9,0.7,1.5c0,14.4,0,28.7,0,43.1c0,0.8-0.2,1-1,1c-10.7,0-21.3,0-32,0
		c-0.9,0-1.1-0.2-1.1-1.1c0-12.7,0-25.4,0-38.1c0-2.6-0.8-3.5-3.5-3.5c-1.8,0-3.6,0-5.4,0c-1.3,0-1.6,0.3-2,1.5
		C31.3,49.1,30.1,49.2,28.8,48.5z"/>
	<path class="st3" d="M49.6,17.6c-1.3,1.1-2.5,2.4-3.8,3.6c-3.8,3.6-7.6,7.4-11.3,11.1c-3,3-6,6-9.1,8.8c-1.5,1.4-3,2.9-4.5,4.3
		c-0.5,0.4-0.9,0.9-0.9,1.6c-1.5,0.5-2,1.6-2,3.1c0,12.8,0,25.6,0,38.4c0,0.9-0.2,1.2-1.1,1.1c-1-0.1-2.1,0-3.1,0
		c-0.5,0-0.7-0.1-0.7-0.6c0-0.2,0-0.3,0-0.5c0-14.3,0-28.5,0-42.8c0-0.7,0.2-1.3,0.8-1.8c10.3-10,20.6-20,30.8-30
		c0.6-0.6,0.9-0.5,1.4,0C47.2,15.3,48.4,16.4,49.6,17.6z"/>
	<path class="st4" d="M26.8,57.2c4.6,0,9.1-0.1,13.7,0c0.2,0.3,0.1,0.6,0.1,1c0,10.1,0,20.3,0,30.4c0,1.1,0,1.1-1.1,1.1
		c-3.9,0-7.9,0-11.8,0c-1,0-1.1-0.1-1.2-1.1c0-0.3,0-0.5,0-0.8c0-9.6,0-19.2,0-28.9C26.5,58.4,26.4,57.7,26.8,57.2z"/>
	<path class="st5" d="M46.7,10.6c-1.2-0.9-1.7-0.9-2.8,0.2C31.8,22.5,19.8,34.2,7.7,46c-0.6,0.6-1.3,1.1-2.2,1.1
		c-1.1,0-1.9-0.5-2.3-1.5c-0.4-0.9-0.4-1.8,0.3-2.7c0.2-0.3,0.5-0.6,0.8-0.8c13-12.6,25.9-25.2,38.9-37.8c1.6-1.5,2.8-1.5,4.4,0
		c1,1,2,2,3,3c-0.8,0.8-1.9,1.3-2.6,2.2C47.5,9.8,47.2,10.3,46.7,10.6z"/>
	<path class="st6" d="M17.7,92.8c0.4,0,0.7,0,1.1,0c20.2,0,40.4,0,60.6,0c0.9,0,1.3,0.2,1.2,1.2c-0.1,0.9,0,1.8,0,2.7
		c0,0.5-0.2,0.7-0.7,0.6c-0.1,0-0.2,0-0.3,0c-20.4,0-40.7,0-61.1,0c-0.3,0-0.5,0-0.8,0C17.1,95.7,17.2,94.2,17.7,92.8z"/>
	<path class="st7" d="M46.7,10.6c0.9-1.5,2.2-2.7,3.8-3.4c3.9,3.8,7.9,7.6,11.8,11.4c8.1,7.9,16.2,15.7,24.2,23.6
		c0.7,0.7,1.3,1.4,1.3,2.4c-0.1,2-2.2,3.1-3.9,2.1c-0.3-0.2-0.5-0.4-0.8-0.6C71.1,34.4,59.1,22.7,47,10.9
		C46.9,10.8,46.8,10.7,46.7,10.6z"/>
	<path class="st8" d="M26.8,57.2c0,10.4,0,20.9,0,31.3c0,0.9,0.2,1.2,1.1,1.1c3.8-0.1,7.7-0.1,11.5,0c0.9,0,1.1-0.3,1.1-1.1
		c0-10.4,0-20.9,0-31.3c0.3,0.3,0.2,0.6,0.2,0.9c0,10.2,0,20.4,0,30.6c0,0.8-0.2,1-1,1c-5.9,0-11.8,0-17.8,0c-0.8,0-1-0.2-1-1
		c0-10.2,0-20.4,0-30.6c0-0.8,0.2-1.1,1-1C23.6,57.2,25.2,57.2,26.8,57.2z"/>
	<path class="st9" d="M28.8,48.5c1.3,0.3,2.6,0,3.9,0.1c0.2,1.1,0.9,1.5,2,1.4c1.8,0,3.5,0,5.3,0c0.3,0,0.7-0.1,0.7,0.4
		c0,1.2,0.2,2.5-0.1,3.7c-0.2,0.1-0.5,0.1-0.8,0.1c-4,0-8,0-12,0c-1,0-1.1-0.1-1.2-1.1c0-0.6,0-1.2,0-1.8c0-0.8,0.2-1.3,1.1-1.2
		C28.3,49.8,28.8,49.3,28.8,48.5z"/>
	<path class="st10" d="M75.4,14.3c-0.4-0.9-0.1-1.8-0.1-2.7c0-0.6-0.2-0.9-0.8-0.8c-0.7,0-1.4,0.1-2,0c-0.7-0.1-0.9,0.3-0.9,0.9
		c0,2.7,0,5.4,0,8.1c0,0.7,0.2,1.2,0.6,1.7c0.9,1,1.9,2,2.9,3c0.3-1.3-0.1-2.6,0.3-3.7c0,2.1,0,4.2,0,6.5c-1-0.9-1.8-1.7-2.7-2.5
		c-1.6-1.5-3.1-3.1-4.7-4.6c-0.4-0.4-0.6-0.8-0.6-1.4c0-2.4,0-4.7,0-7.1c0-0.8,0.2-1,1-1c2,0,4.1,0,6.1,0c0.7,0,0.9,0.2,0.9,0.9
		C75.4,12.4,75.4,13.3,75.4,14.3z"/>
	<path class="st11" d="M68.4,3.2c3.2,0,6.3,0,9.5,0c0.5,0,0.7,0.1,0.7,0.7c0,1.1,0,2.1,0,3.2c0,0.5-0.2,0.7-0.7,0.7
		c-3.2,0-6.4,0-9.6,0c-0.6-1.4-0.3-2.7-0.1-4.1C68.1,3.3,68.2,3.3,68.4,3.2z"/>
	<path class="st12" d="M17.7,92.8c0,1.5,0,3,0,4.4c-2.3,0-4.5,0-6.8,0c-0.5,0-0.6-0.1-0.6-0.6c0-1.1,0-2.2,0-3.3
		c0-0.5,0.2-0.6,0.6-0.6C13.1,92.7,15.4,92.7,17.7,92.8z"/>
	<path class="st13" d="M27.6,50c-0.6,0.2-0.9,0.5-0.8,1.2c0.1,0.9-0.4,2.1,0.2,2.7c0.6,0.6,1.7,0.2,2.6,0.2c3.6,0,7.2,0,10.8,0
		c-0.3,0.3-0.6,0.1-0.9,0.1c-5.9,0-11.7,0-17.6,0c-0.8,0-1.1-0.2-1-1c0.1-0.8,0-1.6,0-2.4c0-0.6,0.1-0.8,0.7-0.8
		C23.6,50,25.6,50,27.6,50z"/>
	<path class="st14" d="M68.4,3.2c-0.4,1.5-0.1,3-0.2,4.4c-1.1,0-2.1,0-3.2,0c-0.5,0-0.7-0.2-0.7-0.7c0-1.1,0-2.1,0-3.2
		c0-0.5,0.2-0.7,0.7-0.7C66.1,3.2,67.3,3.2,68.4,3.2z"/>
	<path class="st0" d="M72.7,66.2c0,5.3,0,10.7,0,16c0,2.3-0.9,3.1-3.1,3.1c-6.4,0-12.9,0-19.3,0c-2.2,0-3.1-0.9-3.1-3.2
		c0-10.6,0-21.3,0-31.9c0-2.3,0.9-3.2,3.2-3.2c6.4,0,12.8,0,19.2,0c2.2,0,3.1,0.9,3.1,3.1C72.7,55.5,72.7,60.9,72.7,66.2z"/>
	<path class="st0" d="M34.1,75.8c-2.4,0-4.3-2-4.3-4.4c0-2.4,2.1-4.4,4.4-4.4c2.4,0,4.4,2,4.3,4.5C38.5,73.9,36.6,75.8,34.1,75.8z"
		/>
	<path class="st15" d="M69.8,62.8c0,1.6,0,3.2,0,4.8c0,0.5-0.1,0.8-0.7,0.8c-2.3,0-4.7,0-7,0c-0.5,0-0.7-0.1-0.7-0.7
		c0-3.3,0-6.6,0-9.8c0-0.6,0.2-0.7,0.7-0.7c2.3,0,4.7,0,7,0c0.5,0,0.7,0.2,0.7,0.7C69.8,59.5,69.8,61.1,69.8,62.8z"/>
	<path class="st15" d="M61.4,76.7c0-1.6,0-3.2,0-4.8c0-0.6,0.2-0.7,0.7-0.7c2.3,0,4.7,0,7,0c0.6,0,0.7,0.2,0.7,0.7
		c0,3.2,0,6.5,0,9.7c0,0.5-0.1,0.7-0.7,0.7c-2.3,0-4.7,0-7,0c-0.6,0-0.7-0.2-0.7-0.7C61.4,80,61.4,78.4,61.4,76.7z"/>
	<path class="st16" d="M56.1,68.3c-1.8,0-3.6,0-5.3,0c-0.5,0-0.6-0.1-0.6-0.6c0-3.3,0-6.6,0-9.9c0-0.5,0.1-0.7,0.7-0.7
		c1.7,0,3.4,0,5.1,0.1c0.2,0.3,0.3,0.6,0.3,1c0,3.2,0,6.4,0,9.5C56.2,67.9,56.2,68.1,56.1,68.3z"/>
	<path class="st16" d="M55.9,82.4c-1.7,0-3.4,0-5.2,0.1c-0.5,0-0.7-0.2-0.7-0.7c0-3.3,0-6.6,0-9.8c0-0.5,0.1-0.7,0.7-0.7
		c1.7,0,3.4,0,5.2,0c0.3,0.3,0.3,0.8,0.3,1.2c0,2.9,0,5.8,0,8.7C56.2,81.6,56.2,82,55.9,82.4z"/>
	<path class="st17" d="M69.7,50.2c0.1,1.3,0.2,2.6,0,3.9c-0.2,0.1-0.5,0.1-0.8,0.1c-4.1,0-8.1,0-12.2,0c-1,0-1.1-0.1-1.2-1.1
		c-0.2-3-0.2-3,2.8-3c3.4,0,6.9,0,10.3,0C69,50.1,69.4,50,69.7,50.2z"/>
	<path class="st18" d="M69.7,50.2c-4.3,0-8.6,0-12.9,0c-0.8,0-1.1,0.2-1,1c0.1,0.6,0.1,1.2,0,1.8c-0.1,0.9,0.2,1.2,1.2,1.2
		c4-0.1,7.9,0,11.9,0c0.3,0,0.5,0,0.8,0c-0.2,0.3-0.6,0.1-0.8,0.1c-5.9,0-11.9,0-17.8,0c-0.8,0-1-0.2-1-1c0.1-0.8,0.1-1.6,0-2.3
		C50,50.2,50.3,50,51,50c5.4,0,10.7,0,16.1,0C68,50,68.9,49.8,69.7,50.2z"/>
	<path class="st15" d="M55.9,82.4c0-3.7,0-7.4,0-11.1c2.6-0.2,2.6-0.2,2.6,2.4c0,2.7,0,5.3,0,8c0,0.6-0.1,0.8-0.8,0.8
		C57.1,82.4,56.5,82.4,55.9,82.4z"/>
	<path class="st15" d="M56.1,68.3c-0.2-0.3-0.2-0.7-0.2-1c0-3.4,0-6.7,0-10.1c2.6-0.2,2.6-0.2,2.6,2.3c0,2.7,0,5.3,0,8
		c0,0.7-0.1,1-0.9,0.9C57.1,68.3,56.6,68.3,56.1,68.3z"/>
	<path class="st19" d="M35.6,71.4c0,0.8-0.6,1.5-1.4,1.5c-0.8,0-1.5-0.7-1.5-1.5c0-0.7,0.7-1.4,1.4-1.4
		C34.9,69.9,35.6,70.6,35.6,71.4z"/>
</g>
</svg>
