<svg xmlns="http://www.w3.org/2000/svg" xmlns:xlink="http://www.w3.org/1999/xlink" viewBox="0 0 536.92 628.08"><defs><style>.cls-1{fill:url(#Degradado_sin_nombre_2);}.cls-2{fill:url(#Degradado_sin_nombre_2-2);}.cls-3,.cls-7{fill:#eaeaf2;}.cls-4{fill:#e1e4e5;}.cls-5{fill:#fff;stroke-width:4.64px;}.cls-5,.cls-6{stroke:#e1e4e5;}.cls-5,.cls-7{fill-rule:evenodd;}.cls-10,.cls-6,.cls-8,.cls-9{fill:none;stroke-linecap:round;stroke-linejoin:round;}.cls-6{stroke-width:10px;}.cls-10,.cls-8,.cls-9{stroke:#eaeaf2;}.cls-8{stroke-width:28.19px;}.cls-9{stroke-width:25.85px;}.cls-10{stroke-width:20px;}</style><linearGradient id="Degradado_sin_nombre_2" x1="274.42" y1="-160.56" x2="283.9" y2="764.67" gradientTransform="matrix(1, 0, 0, -1, 0, 553.37)" gradientUnits="userSpaceOnUse"><stop offset="0" stop-color="#fff"/><stop offset="1" stop-color="#eee"/></linearGradient><linearGradient id="Degradado_sin_nombre_2-2" x1="389.8" y1="196.86" x2="279.73" y2="691.45" xlink:href="#Degradado_sin_nombre_2"/></defs><title>no_found_illustration_mb</title><g id="Capa_2" data-name="Capa 2"><g id="Capa_1-2" data-name="Capa 1"><path class="cls-1" d="M475.06,423.25c-9.51,54-139,138.21-258.15,68.21-55.43-32.56-43.17-62.37-79.13-113.77-21.43-30.64-56.07-58.09-58.68-96-2.25-32.71,11.11-64.2,32.29-81.78,47.62-39.54,128.88-55.31,183.83,37.2S499.54,284,475.06,423.25Z"/><path class="cls-2" d="M473.26,213.62c-12.34,22-39.39,25.07-82.72,20.88-32.58-3.16-62.3-5.6-94.89-23.37a182.36,182.36,0,0,1-54-45.57c-14.28-17.69-34.21-37.88-24.44-57.94,13.43-27.55,91.08-50.76,166.48-12.81C466.49,136.51,485.34,192.08,473.26,213.62Z"/><circle class="cls-3" cx="476.09" cy="247.62" r="12.7"/><circle class="cls-3" cx="38.33" cy="311.77" r="11.91"/><circle class="cls-3" cx="220.06" cy="499.17" r="5.56"/><circle class="cls-4" cx="87.75" cy="369.83" r="5.31"/><circle class="cls-4" cx="471.49" cy="323.61" r="7.86"/><circle class="cls-4" cx="408.97" cy="101.12" r="8.73"/><circle class="cls-4" cx="216.95" cy="81.26" r="7.22"/><circle class="cls-4" cx="306.17" cy="16.33" r="16.32"/><path class="cls-4" d="M78.42,190h.12c.67,9.59,7.81,9.74,7.81,9.74s-7.87.15-7.87,11.23c0-11.08-7.87-11.23-7.87-11.23s7.13-.15,7.81-9.74ZM66.47,441h.11c.65,9.56,7.5,9.71,7.5,9.71s-7.55.16-7.55,11.21c0-11.05-7.56-11.21-7.56-11.21S65.82,450.59,66.47,441Z"/><path class="cls-5" d="M182.51,70.33l-38-37.82a26.93,26.93,0,0,0-19-7.84H29.19A26.8,26.8,0,0,0,2.32,51.42V238.64a26.8,26.8,0,0,0,26.87,26.75H163.52a26.8,26.8,0,0,0,26.86-26.75V89.24a26.68,26.68,0,0,0-7.87-18.91Z"/><path class="cls-6" d="M48.84,220h93.49M48.84,193.69h93.49"/><path class="cls-7" d="M137.83,157v6a6,6,0,0,1-6,6H59.89a6,6,0,0,1-6-6v-6.14c0-18.28,20.73-30.16,42-30.16s42,11.89,42,30.16M110.2,82.55a22.1,22.1,0,0,1,0,30.47,20.3,20.3,0,0,1-29.41,0,22.08,22.08,0,0,1,0-30.47A20.3,20.3,0,0,1,110.2,82.55Z"/><path class="cls-5" d="M399,171l-53.93-53.7a38.26,38.26,0,0,0-27-11.13H181.35a38.05,38.05,0,0,0-38.14,38V409.94a38.05,38.05,0,0,0,38.14,38H372.07a38.06,38.06,0,0,0,38.15-38V197.81A37.87,37.87,0,0,0,399,171Z"/><path class="cls-5" d="M526.73,430.7l-38-37.82a26.91,26.91,0,0,0-19-7.84H373.41a26.81,26.81,0,0,0-26.87,26.75V599a26.8,26.8,0,0,0,26.87,26.74H507.74A26.8,26.8,0,0,0,534.6,599V449.61a26.65,26.65,0,0,0-7.87-18.91Z"/><path class="cls-6" d="M393.06,580.36h93.5m-93.5-26.3h93.5"/><path class="cls-7" d="M482.05,517.39v6a6,6,0,0,1-6,6H404.11a6,6,0,0,1-6-6v-6.14c0-18.28,20.73-30.16,42-30.16s42,11.88,42,30.16m-27.63-74.36a22.09,22.09,0,0,1,0,30.46,20.3,20.3,0,0,1-29.41,0,22.09,22.09,0,0,1,0-30.46A20.3,20.3,0,0,1,454.42,442.93Z"/><path class="cls-8" d="M420.53,415.2l-50-50"/><circle class="cls-9" cx="275.97" cy="250.29" r="144.24"/><path class="cls-10" d="M239.86,212.27v17.78M311,212.27v17.78m26.54,80.34S314.24,288,275.37,288s-62.18,22.35-62.18,22.35"/></g></g></svg>