<svg xmlns="http://www.w3.org/2000/svg" xmlns:xlink="http://www.w3.org/1999/xlink" viewBox="0 0 728.68 442.69"><defs><style>.cls-1{fill:url(#Degradado_sin_nombre_4);}.cls-2{fill:url(#Degradado_sin_nombre_4-2);}.cls-3{fill:url(#Degradado_sin_nombre_4-3);}.cls-4{fill:url(#Degradado_sin_nombre_4-4);}.cls-5,.cls-9{fill:#eaeaf2;}.cls-6{fill:#e1e4e5;}.cls-7{fill:#fff;stroke-width:4.64px;}.cls-7,.cls-8{stroke:#e1e4e5;}.cls-7,.cls-9{fill-rule:evenodd;}.cls-10,.cls-11,.cls-12,.cls-8{fill:none;stroke-linecap:round;stroke-linejoin:round;}.cls-8{stroke-width:10px;}.cls-10,.cls-11,.cls-12{stroke:#eaeaf2;}.cls-10{stroke-width:28.19px;}.cls-11{stroke-width:25.85px;}.cls-12{stroke-width:20px;}</style><linearGradient id="Degradado_sin_nombre_4" x1="359.79" y1="-206.69" x2="369.27" y2="718.55" gradientTransform="matrix(1, 0, 0, -1, 0, 431.87)" gradientUnits="userSpaceOnUse"><stop offset="0" stop-color="#fff"/><stop offset="1" stop-color="#eee"/></linearGradient><linearGradient id="Degradado_sin_nombre_4-2" x1="529.17" y1="134.98" x2="419.11" y2="629.58" xlink:href="#Degradado_sin_nombre_4"/><linearGradient id="Degradado_sin_nombre_4-3" x1="607.26" y1="195.2" x2="799.14" y2="346.97" xlink:href="#Degradado_sin_nombre_4"/><linearGradient id="Degradado_sin_nombre_4-4" x1="129.29" y1="100.56" x2="-70.28" y2="285.99" xlink:href="#Degradado_sin_nombre_4"/></defs><title>no_found_illustration</title><g id="Capa_2" data-name="Capa 2"><g id="Capa_1-2" data-name="Capa 1"><path class="cls-1" d="M560.43,347.88c-9.5,54-139,138.21-258.15,68.2-55.43-32.56-43.16-62.37-79.12-113.77-21.43-30.63-56.08-58.09-58.68-96-2.25-32.71,11.11-64.2,32.28-81.78C244.39,85,325.64,69.24,380.59,161.75S584.92,208.6,560.43,347.88Z"/><path class="cls-2" d="M612.64,154c-12.35,22-39.39,25.06-82.72,20.87-32.59-3.15-62.3-5.59-94.89-23.36a182.38,182.38,0,0,1-54-45.57C366.71,88.25,346.77,68.06,356.55,48,370,20.45,447.63-2.76,523,35.19,605.86,76.89,624.72,132.46,612.64,154Z"/><path class="cls-3" d="M696.12,200.07c-23.27,11.54-54.14-3.3-54.14-3.3s6.86-33.54,30.14-45.06S726.24,155,726.24,155,719.38,188.53,696.12,200.07Z"/><path class="cls-4" d="M33.9,282.83C58.71,297.7,94.29,284,94.29,284s-4.65-37.84-29.47-52.69-60.37-1.14-60.37-1.14S9.1,268,33.9,282.83Z"/><circle class="cls-5" cx="650.34" cy="122.74" r="12.7"/><circle class="cls-5" cx="261.99" cy="160.65" r="10.46"/><circle class="cls-5" cx="125.96" cy="251.02" r="11.91"/><circle class="cls-5" cx="624.94" cy="188.67" r="5.56"/><circle class="cls-6" cx="621.73" cy="397.63" r="7.14"/><circle class="cls-6" cx="69.04" cy="359.62" r="5.31"/><circle class="cls-6" cx="658.12" cy="326.99" r="7.86"/><circle class="cls-6" cx="574.76" cy="84.16" r="8.73"/><circle class="cls-6" cx="97.7" cy="183.26" r="7.84"/><circle class="cls-6" cx="304.57" cy="20.51" r="7.22"/><ellipse class="cls-6" cx="629.53" cy="283.48" rx="8.02" ry="6.42"/><circle class="cls-6" cx="478.17" cy="16.33" r="16.32"/><path class="cls-6" d="M133.42,129.21h.12c.67,9.59,7.81,9.74,7.81,9.74s-7.87.15-7.87,11.23c0-11.08-7.87-11.23-7.87-11.23s7.13-.15,7.81-9.74ZM121.47,380.28h.11c.65,9.56,7.5,9.71,7.5,9.71s-7.55.16-7.55,11.21C121.53,390.15,114,390,114,390S120.82,389.84,121.47,380.28Z"/><path class="cls-7" d="M182.51,141.58l-38-37.82a26.93,26.93,0,0,0-19-7.84H29.19A26.8,26.8,0,0,0,2.32,122.67V309.89a26.8,26.8,0,0,0,26.87,26.75H163.52a26.8,26.8,0,0,0,26.86-26.75V160.49a26.68,26.68,0,0,0-7.87-18.91Z"/><path class="cls-8" d="M48.84,291.23h93.49M48.84,264.94h93.49"/><path class="cls-9" d="M137.83,228.26v6a6,6,0,0,1-6,6H59.89a6,6,0,0,1-6-6v-6.14c0-18.28,20.73-30.16,42-30.16s42,11.89,42,30.16M110.2,153.8a22.1,22.1,0,0,1,0,30.47,20.3,20.3,0,0,1-29.41,0,22.08,22.08,0,0,1,0-30.47A20.3,20.3,0,0,1,110.2,153.8Z"/><path class="cls-7" d="M486.67,110.22l-53.94-53.7a38.24,38.24,0,0,0-27-11.13H269a38.06,38.06,0,0,0-38.15,38V349.19a38.06,38.06,0,0,0,38.15,38H459.7a38.05,38.05,0,0,0,38.14-38V137.06a37.86,37.86,0,0,0-11.17-26.84Z"/><path class="cls-7" d="M718.48,141.58l-38-37.82a27,27,0,0,0-19-7.84H565.16a26.81,26.81,0,0,0-26.87,26.75V309.89a26.81,26.81,0,0,0,26.87,26.75H699.49a26.81,26.81,0,0,0,26.87-26.75V160.49a26.69,26.69,0,0,0-7.88-18.91Z"/><path class="cls-8" d="M584.81,291.23h93.5m-93.5-26.29h93.5"/><path class="cls-9" d="M673.8,228.26v6a6,6,0,0,1-6,6H595.86a6,6,0,0,1-6-6v-6.14c0-18.28,20.73-30.16,42-30.16s42,11.89,42,30.16M646.17,153.8a22.1,22.1,0,0,1,0,30.47,20.3,20.3,0,0,1-29.41,0,22.1,22.1,0,0,1,0-30.47A20.3,20.3,0,0,1,646.17,153.8Z"/><path class="cls-10" d="M508.15,354.45l-50-50"/><circle class="cls-11" cx="363.6" cy="189.54" r="144.24"/><path class="cls-12" d="M327.49,151.52V169.3m71.14-17.78V169.3m26.54,80.34S401.86,227.29,363,227.29s-62.17,22.35-62.17,22.35"/></g></g></svg>