<svg width="656" height="437" viewBox="0 0 656 437" fill="none" xmlns="http://www.w3.org/2000/svg">
<path d="M448.905 127.213C509.732 187.993 509.732 286.537 448.905 347.317C388.078 408.098 289.459 408.098 228.633 347.317C167.806 286.537 167.806 187.993 228.633 127.213C289.443 66.448 388.078 66.448 448.905 127.213Z" stroke="#E1E4E5" stroke-width="4"/>
<path fill-rule="evenodd" clip-rule="evenodd" d="M273.18 378.478V296.743C273.18 289.043 274.983 281.442 278.475 274.577L338.761 155.359L399.047 274.577C402.534 281.446 404.349 289.041 404.343 296.743V378.478" fill="#F2F2F2"/>
<path d="M273.18 378.478V296.743C273.18 289.043 274.983 281.442 278.475 274.577L338.761 155.359L399.047 274.577C402.534 281.446 404.349 289.041 404.343 296.743V378.478" stroke="#E1E4E5" stroke-width="4"/>
<path fill-rule="evenodd" clip-rule="evenodd" d="M403.079 285.979L371.977 309.293L338.76 284.39L305.542 309.293L274.441 285.979" fill="#F2F2F2"/>
<path d="M403.079 285.979L371.977 309.293L338.76 284.39L305.542 309.293L274.441 285.979M361.146 199.419L338.262 217.131L316.834 200.55M304.998 307.459V388.93M372.353 307.459V388.93" stroke="#E1E4E5" stroke-width="4"/>
<path d="M512.761 348.024C506.809 348.024 501.984 352.845 501.984 358.793C501.984 364.741 506.809 369.562 512.761 369.562C518.713 369.562 523.538 364.741 523.538 358.793C523.538 352.845 518.713 348.024 512.761 348.024Z" fill="#F2F2F2"/>
<path d="M529.337 147.772C520.871 147.772 514.008 154.63 514.008 163.089C514.008 171.548 520.871 178.406 529.337 178.406C537.802 178.406 544.665 171.548 544.665 163.089C544.665 154.63 537.802 147.772 529.337 147.772Z" fill="#F2F2F2"/>
<path d="M139.593 213.587C134.693 213.587 130.721 217.557 130.721 222.453C130.721 227.349 134.693 231.318 139.593 231.318C144.493 231.318 148.465 227.349 148.465 222.453C148.465 217.557 144.493 213.587 139.593 213.587Z" fill="#F2F2F2"/>
<path d="M215.489 405.062C209.909 405.062 205.386 400.542 205.386 394.966C205.386 389.39 209.909 384.87 215.489 384.87C221.07 384.87 225.593 389.39 225.593 394.966C225.593 400.542 221.07 405.062 215.489 405.062Z" fill="#F2F2F2"/>
<path d="M187.656 86.7074C185.052 86.7074 182.941 84.5979 182.941 81.9958C182.941 79.3936 185.052 77.2842 187.656 77.2842C190.26 77.2842 192.371 79.3936 192.371 81.9958C192.371 84.5979 190.26 86.7074 187.656 86.7074Z" fill="#F2F2F2"/>
<path d="M451.399 404.587C448.051 404.587 445.337 401.875 445.337 398.529C445.337 395.184 448.051 392.472 451.399 392.472C454.747 392.472 457.462 395.184 457.462 398.529C457.462 401.875 454.747 404.587 451.399 404.587Z" fill="#E1E4E5"/>
<path d="M121.609 312.277C116.773 312.277 112.852 308.359 112.852 303.526C112.852 298.694 116.773 294.776 121.609 294.776C126.446 294.776 130.366 298.694 130.366 303.526C130.366 308.359 126.446 312.277 121.609 312.277Z" fill="#E1E4E5"/>
<path d="M556.748 310.079C553.067 310.079 550.084 307.098 550.084 303.42C550.084 299.742 553.067 296.761 556.748 296.761C560.428 296.761 563.412 299.742 563.412 303.42C563.412 307.098 560.428 310.079 556.748 310.079Z" fill="#E1E4E5"/>
<path d="M504.756 101.469C500.664 101.469 497.346 98.1546 497.346 94.0657C497.346 89.9769 500.664 86.6622 504.756 86.6622C508.847 86.6622 512.165 89.9769 512.165 94.0657C512.165 98.1546 508.847 101.469 504.756 101.469Z" fill="#E1E4E5"/>
<path d="M106.415 176.364C107.366 179.911 105.26 183.556 101.711 184.506C98.1614 185.457 94.5132 183.352 93.5621 179.805C92.6111 176.259 94.7174 172.613 98.2667 171.663C101.816 170.713 105.464 172.818 106.415 176.364Z" fill="#E1E4E5"/>
<path d="M264.74 58.1276C259.852 58.1276 255.889 54.1676 255.889 49.2827C255.889 44.3978 259.852 40.4378 264.74 40.4378C269.629 40.4378 273.592 44.3978 273.592 49.2827C273.592 54.1676 269.629 58.1276 264.74 58.1276Z" fill="#E1E4E5"/>
<path d="M556.889 248.37C553.129 248.37 550.081 245.934 550.081 242.928C550.081 239.922 553.129 237.485 556.889 237.485C560.65 237.485 563.698 239.922 563.698 242.928C563.698 245.934 560.65 248.37 556.889 248.37Z" fill="#E1E4E5"/>
<path d="M423.383 45.412C425.363 52.7935 420.979 60.3808 413.592 62.3586C406.205 64.3365 398.612 59.956 396.632 52.5745C394.653 45.193 399.037 37.6057 406.424 35.6278C413.811 33.65 421.404 38.0305 423.383 45.412Z" fill="#E1E4E5"/>
<path d="M137.46 130.151H137.557C138.132 138.283 144.184 138.407 144.184 138.407C144.184 138.407 137.511 138.538 137.511 147.934C137.511 138.538 130.836 138.407 130.836 138.407C130.836 138.407 136.886 138.283 137.46 130.151ZM144.412 348.025H144.505C145.056 356.132 150.867 356.257 150.867 356.257C150.867 356.257 144.459 356.387 144.459 365.755C144.459 356.387 138.052 356.257 138.052 356.257C138.052 356.257 143.86 356.132 144.412 348.025Z" fill="#E1E4E5"/>
</svg>
